Fraternidad-Regular.ufo
<glyph name="exclam" format="2">
  <advance width="663"/>
  <unicode hex="0021"/>
  <outline>
    <component base="period" xOffset="59"/>
    <contour>
      <point x="255" y="392" type="line"/>
      <point x="225" y="1440" type="line"/>
      <point x="438" y="1440" type="line"/>
      <point x="408" y="392" type="line"/>
    </contour>
  </outline>
</glyph>
<glyph name="numbersign" format="2">
  <advance width="1847"/>
  <unicode hex="0023"/>
  <outline>
    <contour>
      <point x="402" y="1" type="line"/>
      <point x="515" y="423" type="line"/>
      <point x="120" y="423" type="line"/>
      <point x="163" y="587" type="line"/>
      <point x="559" y="587" type="line"/>
      <point x="638" y="885" type="line"/>
      <point x="243" y="885" type="line"/>
      <point x="287" y="1048" type="line"/>
      <point x="683" y="1048" type="line"/>
      <point x="787" y="1440" type="line"/>
      <point x="957" y="1440" type="line"/>
      <point x="852" y="1048" type="line"/>
      <point x="1163" y="1048" type="line"/>
      <point x="1267" y="1440" type="line"/>
      <point x="1437" y="1440" type="line"/>
      <point x="1332" y="1048" type="line"/>
      <point x="1727" y="1048" type="line"/>
      <point x="1683" y="885" type="line"/>
      <point x="1288" y="885" type="line"/>
      <point x="1208" y="587" type="line"/>
      <point x="1603" y="587" type="line"/>
      <point x="1559" y="423" type="line"/>
      <point x="1164" y="423" type="line"/>
      <point x="1051" y="1" type="line"/>
      <point x="882" y="1" type="line"/>
      <point x="994" y="423" type="line"/>
      <point x="684" y="423" type="line"/>
      <point x="571" y="1" type="line"/>
    </contour>
    <contour>
      <point x="729" y="587" type="line"/>
      <point x="1039" y="587" type="line"/>
      <point x="1118" y="885" type="line"/>
      <point x="808" y="885" type="line"/>
    </contour>
  </outline>
</glyph>
<glyph name="dollar" format="2">
  <advance width="1208"/>
  <unicode hex="0024"/>
  <outline>
    <contour>
      <point x="519" y="-198" type="line"/>
      <point x="519" y="33" type="line"/>
      <point x="702" y="33" type="line"/>
      <point x="702" y="-198" type="line"/>
    </contour>
    <contour>
      <point x="519" y="1407" type="line"/>
      <point x="519" y="1639" type="line"/>
      <point x="702" y="1639" type="line"/>
      <point x="702" y="1407" type="line"/>
    </contour>
    <contour>
      <point x="624" y="-30" type="qcurve" smooth="yes"/>
      <point x="477" y="-30"/>
      <point x="244" y="76"/>
      <point x="93" y="269"/>
      <point x="71" y="401" type="qcurve"/>
      <point x="250" y="431" type="line"/>
      <point x="282" y="299"/>
      <point x="487" y="143"/>
      <point x="632" y="143" type="qcurve" smooth="yes"/>
      <point x="777" y="143"/>
      <point x="958" y="283"/>
      <point x="958" y="394" type="qcurve" smooth="yes"/>
      <point x="958" y="474"/>
      <point x="862" y="573"/>
      <point x="751" y="607" type="qcurve" smooth="yes"/>
      <point x="420" y="709" type="line"/>
      <point x="125" y="802"/>
      <point x="125" y="1063" type="qcurve" smooth="yes"/>
      <point x="125" y="1185"/>
      <point x="244" y="1368"/>
      <point x="459" y="1469"/>
      <point x="603" y="1469" type="qcurve"/>
      <point x="742" y="1468"/>
      <point x="961" y="1367"/>
      <point x="1103" y="1179"/>
      <point x="1129" y="1048" type="qcurve"/>
      <point x="944" y="1014" type="line"/>
      <point x="930" y="1097"/>
      <point x="836" y="1224"/>
      <point x="691" y="1295"/>
      <point x="602" y="1296" type="qcurve" smooth="yes"/>
      <point x="518" y="1297"/>
      <point x="384" y="1239"/>
      <point x="307" y="1136"/>
      <point x="307" y="1071" type="qcurve" smooth="yes"/>
      <point x="307" y="999"/>
      <point x="415" y="899"/>
      <point x="531" y="864" type="qcurve" smooth="yes"/>
      <point x="800" y="784" type="line" smooth="yes"/>
      <point x="979" y="731"/>
      <point x="1137" y="552"/>
      <point x="1137" y="402" type="qcurve" smooth="yes"/>
      <point x="1137" y="273"/>
      <point x="1009" y="78"/>
      <point x="778" y="-30"/>
    </contour>
  </outline>
</glyph>
<glyph name="percent" format="2">
  <advance width="1802"/>
  <unicode hex="0025"/>
  <outline>
    <contour>
      <point x="303" y="0" type="line"/>
      <point x="180" y="123" type="line"/>
      <point x="1499" y="1440" type="line"/>
      <point x="1622" y="1317" type="line"/>
    </contour>
    <contour>
      <point x="1322" y="-30" type="curve" smooth="yes"/>
      <point x="1124" y="-30"/>
      <point x="962" y="132"/>
      <point x="962" y="330" type="curve" smooth="yes"/>
      <point x="962" y="525"/>
      <point x="1127" y="690"/>
      <point x="1322" y="690" type="curve" smooth="yes"/>
      <point x="1522" y="690"/>
      <point x="1682" y="530"/>
      <point x="1682" y="330" type="curve" smooth="yes"/>
      <point x="1682" y="131"/>
      <point x="1522" y="-30"/>
    </contour>
    <contour>
      <point x="1322" y="131" type="curve" smooth="yes"/>
      <point x="1431" y="131"/>
      <point x="1521" y="221"/>
      <point x="1521" y="330" type="curve" smooth="yes"/>
      <point x="1521" y="439"/>
      <point x="1431" y="529"/>
      <point x="1322" y="529" type="curve" smooth="yes"/>
      <point x="1214" y="529"/>
      <point x="1123" y="438"/>
      <point x="1123" y="330" type="curve" smooth="yes"/>
      <point x="1123" y="222"/>
      <point x="1215" y="131"/>
    </contour>
    <contour>
      <point x="480" y="750" type="curve" smooth="yes"/>
      <point x="281" y="750"/>
      <point x="120" y="911"/>
      <point x="120" y="1110" type="curve" smooth="yes"/>
      <point x="120" y="1305"/>
      <point x="285" y="1470"/>
      <point x="480" y="1470" type="curve" smooth="yes"/>
      <point x="679" y="1470"/>
      <point x="840" y="1309"/>
      <point x="840" y="1110" type="curve" smooth="yes"/>
      <point x="840" y="912"/>
      <point x="678" y="750"/>
    </contour>
    <contour>
      <point x="480" y="911" type="curve" smooth="yes"/>
      <point x="589" y="911"/>
      <point x="679" y="1001"/>
      <point x="679" y="1110" type="curve" smooth="yes"/>
      <point x="679" y="1219"/>
      <point x="589" y="1309"/>
      <point x="480" y="1309" type="curve" smooth="yes"/>
      <point x="372" y="1309"/>
      <point x="281" y="1218"/>
      <point x="281" y="1110" type="curve" smooth="yes"/>
      <point x="281" y="1002"/>
      <point x="373" y="911"/>
    </contour>
  </outline>
</glyph>
<glyph name="ampersand" format="2">
  <advance width="1316"/>
  <unicode hex="0026"/>
  <outline>
    <contour>
      <point x="609" y="-30" type="curve" smooth="yes"/>
      <point x="343" y="-30"/>
      <point x="100" y="108"/>
      <point x="100" y="402" type="curve" smooth="yes"/>
      <point x="100" y="571"/>
      <point x="165" y="704"/>
      <point x="318" y="784" type="curve"/>
      <point x="234" y="873"/>
      <point x="177" y="951"/>
      <point x="177" y="1078" type="curve" smooth="yes"/>
      <point x="177" y="1332"/>
      <point x="377" y="1468"/>
      <point x="614" y="1468" type="curve" smooth="yes"/>
      <point x="798" y="1468"/>
      <point x="967" y="1387"/>
      <point x="1028" y="1203" type="curve"/>
      <point x="849" y="1158" type="line"/>
      <point x="809" y="1259"/>
      <point x="716" y="1295"/>
      <point x="614" y="1295" type="curve" smooth="yes"/>
      <point x="477" y="1295"/>
      <point x="364" y="1226"/>
      <point x="364" y="1078" type="curve" smooth="yes"/>
      <point x="364" y="958"/>
      <point x="459" y="886"/>
      <point x="539" y="812" type="curve" smooth="yes"/>
      <point x="958" y="423" type="line"/>
      <point x="970" y="520"/>
      <point x="962" y="623"/>
      <point x="962" y="720" type="curve"/>
      <point x="1129" y="720" type="line"/>
      <point x="1129" y="484" type="line" smooth="yes"/>
      <point x="1129" y="420"/>
      <point x="1129" y="342"/>
      <point x="1110" y="281" type="curve"/>
      <point x="1293" y="112" type="line"/>
      <point x="1174" y="-15" type="line"/>
      <point x="1023" y="128" type="line"/>
      <point x="917" y="14"/>
      <point x="760" y="-30"/>
    </contour>
    <contour>
      <point x="613" y="145" type="curve" smooth="yes"/>
      <point x="734" y="145"/>
      <point x="803" y="173"/>
      <point x="891" y="254" type="curve"/>
      <point x="456" y="652" type="line"/>
      <point x="347" y="618"/>
      <point x="287" y="534"/>
      <point x="287" y="421" type="curve" smooth="yes"/>
      <point x="287" y="226"/>
      <point x="435" y="145"/>
    </contour>
  </outline>
</glyph>
<glyph name="parenleft" format="2">
  <advance width="873"/>
  <unicode hex="0028"/>
  <outline>
    <contour>
      <point x="652" y="-367" type="line"/>
      <point x="535" y="-232"/>
      <point x="367" y="104"/>
      <point x="278" y="474"/>
      <point x="280" y="660" type="qcurve"/>
      <point x="278" y="846"/>
      <point x="367" y="1216"/>
      <point x="535" y="1552"/>
      <point x="652" y="1687" type="qcurve"/>
      <point x="788" y="1585" type="line"/>
      <point x="670" y="1444"/>
      <point x="519" y="1142"/>
      <point x="448" y="825"/>
      <point x="447" y="660" type="qcurve"/>
      <point x="448" y="497"/>
      <point x="520" y="177"/>
      <point x="671" y="-126"/>
      <point x="788" y="-264" type="qcurve"/>
    </contour>
  </outline>
</glyph>
<glyph name="parenright" format="2">
  <advance width="866"/>
  <unicode hex="0029"/>
  <outline>
    <contour>
      <point x="85" y="-267" type="line"/>
      <point x="163" y="-176"/>
      <point x="227" y="-79"/>
      <point x="278" y="23" type="curve" smooth="yes"/>
      <point x="379" y="225"/>
      <point x="428" y="442"/>
      <point x="429" y="660" type="curve" smooth="yes"/>
      <point x="428" y="770"/>
      <point x="416" y="879"/>
      <point x="392" y="985" type="curve" smooth="yes"/>
      <point x="343" y="1198"/>
      <point x="242" y="1401"/>
      <point x="85" y="1588" type="curve"/>
      <point x="213" y="1685" type="line"/>
      <point x="291" y="1595"/>
      <point x="358" y="1494"/>
      <point x="414" y="1382" type="curve" smooth="yes"/>
      <point x="527" y="1159"/>
      <point x="589" y="907"/>
      <point x="586" y="660" type="curve"/>
      <point x="588" y="536"/>
      <point x="573" y="413"/>
      <point x="544" y="290" type="curve" smooth="yes"/>
      <point x="483" y="44"/>
      <point x="369" y="-185"/>
      <point x="213" y="-365" type="curve"/>
    </contour>
  </outline>
</glyph>
<glyph name="asterisk" format="2">
  <advance width="888"/>
  <unicode hex="002A"/>
  <outline>
    <contour>
      <point x="273" y="765" type="line"/>
      <point x="146" y="857" type="line"/>
      <point x="301" y="1054" type="line"/>
      <point x="60" y="1125" type="line"/>
      <point x="108" y="1274" type="line"/>
      <point x="344" y="1187" type="line"/>
      <point x="336" y="1440" type="line"/>
      <point x="493" y="1440" type="line"/>
      <point x="484" y="1187" type="line"/>
      <point x="720" y="1274" type="line"/>
      <point x="768" y="1125" type="line"/>
      <point x="527" y="1054" type="line"/>
      <point x="681" y="857" type="line"/>
      <point x="555" y="765" type="line"/>
      <point x="414" y="973" type="line"/>
    </contour>
  </outline>
</glyph>
<glyph name="plus" format="2">
  <advance width="1151"/>
  <unicode hex="002B"/>
  <outline>
    <contour>
      <point x="504" y="265" type="line"/>
      <point x="504" y="649" type="line"/>
      <point x="120" y="649" type="line"/>
      <point x="120" y="792" type="line"/>
      <point x="504" y="792" type="line"/>
      <point x="504" y="1175" type="line"/>
      <point x="647" y="1175" type="line"/>
      <point x="647" y="792" type="line"/>
      <point x="1031" y="792" type="line"/>
      <point x="1031" y="649" type="line"/>
      <point x="647" y="649" type="line"/>
      <point x="647" y="265" type="line"/>
    </contour>
  </outline>
</glyph>
<glyph name="comma" format="2">
  <advance width="551"/>
  <unicode hex="002C"/>
  <outline>
    <contour>
      <point x="188" y="223" type="line"/>
      <point x="358" y="223" type="line"/>
      <point x="211" y="-282" type="line"/>
      <point x="97" y="-282" type="line"/>
    </contour>
  </outline>
</glyph>
<glyph name="hyphen" format="2">
  <advance width="840"/>
  <unicode hex="002D"/>
  <outline>
    <contour>
      <point x="120" y="469" type="line"/>
      <point x="120" y="611" type="line"/>
      <point x="720" y="611" type="line"/>
      <point x="720" y="469" type="line"/>
    </contour>
  </outline>
</glyph>
<glyph name="period" format="2">
  <advance width="545"/>
  <unicode hex="002E"/>
  <outline>
    <contour>
      <point x="273" y="-14" type="qcurve" smooth="yes"/>
      <point x="222" y="-14"/>
      <point x="154" y="54"/>
      <point x="154" y="103" type="qcurve" smooth="yes"/>
      <point x="154" y="154"/>
      <point x="222" y="221"/>
      <point x="273" y="221" type="qcurve" smooth="yes"/>
      <point x="324" y="221"/>
      <point x="391" y="154"/>
      <point x="391" y="103" type="qcurve" smooth="yes"/>
      <point x="391" y="54"/>
      <point x="324" y="-14"/>
    </contour>
  </outline>
</glyph>
<glyph name="zero" format="2">
  <advance width="1257"/>
  <unicode hex="0030"/>
  <outline>
    <contour>
      <point x="628" y="-30" type="curve" smooth="yes"/>
      <point x="534" y="-30"/>
      <point x="450" y="-9"/>
      <point x="377" y="34" type="curve" smooth="yes"/>
      <point x="304" y="76"/>
      <point x="246" y="134"/>
      <point x="204" y="207" type="curve" smooth="yes"/>
      <point x="161" y="280"/>
      <point x="140" y="364"/>
      <point x="140" y="458" type="curve" smooth="yes"/>
      <point x="140" y="982" type="line" smooth="yes"/>
      <point x="140" y="1076"/>
      <point x="161" y="1160"/>
      <point x="204" y="1233" type="curve" smooth="yes"/>
      <point x="246" y="1306"/>
      <point x="304" y="1364"/>
      <point x="377" y="1407" type="curve" smooth="yes"/>
      <point x="450" y="1449"/>
      <point x="534" y="1470"/>
      <point x="628" y="1470" type="curve" smooth="yes"/>
      <point x="722" y="1470"/>
      <point x="806" y="1449"/>
      <point x="880" y="1407" type="curve" smooth="yes"/>
      <point x="953" y="1364"/>
      <point x="1011" y="1306"/>
      <point x="1054" y="1233" type="curve" smooth="yes"/>
      <point x="1096" y="1160"/>
      <point x="1117" y="1076"/>
      <point x="1117" y="982" type="curve" smooth="yes"/>
      <point x="1117" y="458" type="line" smooth="yes"/>
      <point x="1117" y="364"/>
      <point x="1096" y="280"/>
      <point x="1054" y="207" type="curve" smooth="yes"/>
      <point x="1011" y="134"/>
      <point x="953" y="76"/>
      <point x="880" y="34" type="curve" smooth="yes"/>
      <point x="806" y="-9"/>
      <point x="722" y="-30"/>
    </contour>
    <contour>
      <point x="628" y="145" type="curve" smooth="yes"/>
      <point x="684" y="145"/>
      <point x="735" y="159"/>
      <point x="781" y="186" type="curve" smooth="yes"/>
      <point x="873" y="241"/>
      <point x="931" y="336"/>
      <point x="931" y="448" type="curve" smooth="yes"/>
      <point x="931" y="993" type="line" smooth="yes"/>
      <point x="931" y="1049"/>
      <point x="918" y="1100"/>
      <point x="891" y="1146" type="curve" smooth="yes"/>
      <point x="837" y="1237"/>
      <point x="740" y="1296"/>
      <point x="628" y="1296" type="curve" smooth="yes"/>
      <point x="573" y="1296"/>
      <point x="522" y="1282"/>
      <point x="476" y="1255" type="curve" smooth="yes"/>
      <point x="384" y="1200"/>
      <point x="326" y="1105"/>
      <point x="326" y="993" type="curve" smooth="yes"/>
      <point x="326" y="448" type="line" smooth="yes"/>
      <point x="326" y="392"/>
      <point x="340" y="341"/>
      <point x="367" y="296" type="curve" smooth="yes"/>
      <point x="421" y="204"/>
      <point x="517" y="145"/>
    </contour>
  </outline>
</glyph>
<glyph name="one" format="2">
  <advance width="817"/>
  <unicode hex="0031"/>
  <outline>
    <contour>
      <point x="391" y="0" type="line"/>
      <point x="391" y="1238" type="line"/>
      <point x="120" y="1074" type="line"/>
      <point x="120" y="1278" type="line"/>
      <point x="391" y="1440" type="line"/>
      <point x="577" y="1440" type="line"/>
      <point x="577" y="0" type="line"/>
    </contour>
  </outline>
</glyph>
<glyph name="two" format="2">
  <advance width="1161"/>
  <unicode hex="0032"/>
  <outline>
    <contour>
      <point x="1061" y="1" type="line"/>
      <point x="1061" y="178" type="line"/>
      <point x="297" y="178" type="line"/>
      <point x="320" y="118" type="line"/>
      <point x="839" y="584" type="line"/>
      <point x="989" y="717"/>
      <point x="1061" y="810"/>
      <point x="1061" y="1001" type="curve" smooth="yes"/>
      <point x="1061" y="1268"/>
      <point x="859" y="1470"/>
      <point x="590" y="1470" type="curve" smooth="yes"/>
      <point x="324" y="1470"/>
      <point x="125" y="1295"/>
      <point x="107" y="1043" type="curve"/>
      <point x="297" y="1021" type="line"/>
      <point x="303" y="1168"/>
      <point x="424" y="1293"/>
      <point x="587" y="1293" type="curve" smooth="yes"/>
      <point x="750" y="1293"/>
      <point x="871" y="1166"/>
      <point x="871" y="1003" type="curve" smooth="yes"/>
      <point x="871" y="915"/>
      <point x="842" y="833"/>
      <point x="737" y="739" type="curve" smooth="yes"/>
      <point x="101" y="168" type="line"/>
      <point x="100" y="1" type="line"/>
    </contour>
  </outline>
</glyph>
<glyph name="three" format="2">
  <advance width="1259"/>
  <unicode hex="0033"/>
  <outline>
    <contour>
      <point x="1139.97" y="434.32" type="curve" smooth="yes"/>
      <point x="1139.97" y="151.28"/>
      <point x="928.176" y="-30.256"/>
      <point x="627.568" y="-30.256" type="curve" smooth="yes"/>
      <point x="348.432" y="-30.256"/>
      <point x="142.496" y="103.456"/>
      <point x="80.032" y="396.256" type="curve"/>
      <point x="255.712" y="424.56" type="line"/>
      <point x="304.512" y="232.288"/>
      <point x="411.872" y="132.736"/>
      <point x="630.496" y="132.736" type="curve" smooth="yes"/>
      <point x="829.6" y="132.736"/>
      <point x="960.384" y="261.568"/>
      <point x="960.384" y="428.464" type="curve" smooth="yes"/>
      <point x="960.384" y="610"/>
      <point x="844.24" y="704.672"/>
      <point x="627.568" y="704.672" type="curve" smooth="yes"/>
      <point x="483.12" y="704.672" type="line"/>
      <point x="483.12" y="850.096" type="line"/>
      <point x="870.592" y="1275.63" type="line"/>
      <point x="162.016" y="1275.63" type="line"/>
      <point x="162.016" y="1439.6" type="line"/>
      <point x="1084.34" y="1439.6" type="line"/>
      <point x="1084.34" y="1275.63" type="line"/>
      <point x="691.984" y="846.192" type="line"/>
      <point x="696.864" y="846.192" type="line" smooth="yes"/>
      <point x="948.672" y="846.192"/>
      <point x="1139.97" y="701.744"/>
    </contour>
  </outline>
</glyph>
<glyph name="four" format="2">
  <advance width="1194"/>
  <unicode hex="0034"/>
  <outline>
    <contour>
      <point x="760" y="0" type="line"/>
      <point x="760" y="263" type="line"/>
      <point x="100" y="263" type="line"/>
      <point x="100" y="436" type="line"/>
      <point x="574" y="1440" type="line"/>
      <point x="782" y="1440" type="line"/>
      <point x="308" y="436" type="line"/>
      <point x="760" y="436" type="line"/>
      <point x="760" y="839" type="line"/>
      <point x="945" y="839" type="line"/>
      <point x="945" y="436" type="line"/>
      <point x="1094" y="436" type="line"/>
      <point x="1094" y="263" type="line"/>
      <point x="945" y="263" type="line"/>
      <point x="945" y="0" type="line"/>
    </contour>
  </outline>
</glyph>
<glyph name="five" format="2">
  <advance width="1259"/>
  <unicode hex="0035"/>
  <outline>
    <contour>
      <point x="1159.49" y="434.32" type="curve" smooth="yes"/>
      <point x="1159.49" y="152.256"/>
      <point x="948.672" y="-30.256"/>
      <point x="647.088" y="-30.256" type="curve" smooth="yes"/>
      <point x="367.952" y="-30.256"/>
      <point x="164.944" y="103.456"/>
      <point x="99.552" y="396.256" type="curve"/>
      <point x="275.232" y="424.56" type="line"/>
      <point x="325.008" y="232.288"/>
      <point x="432.368" y="132.736"/>
      <point x="650.016" y="132.736" type="curve" smooth="yes"/>
      <point x="851.072" y="132.736"/>
      <point x="979.904" y="262.544"/>
      <point x="979.904" y="428.464" type="curve" smooth="yes"/>
      <point x="979.904" y="610.976"/>
      <point x="864.736" y="704.672"/>
      <point x="647.088" y="704.672" type="curve" smooth="yes"/>
      <point x="203.008" y="704.672" type="line"/>
      <point x="248.88" y="1439.6" type="line"/>
      <point x="1064.82" y="1439.6" type="line"/>
      <point x="1064.82" y="1275.63" type="line"/>
      <point x="410.896" y="1275.63" type="line"/>
      <point x="385.52" y="868.64" type="line"/>
      <point x="650.016" y="868.64" type="line" smooth="yes"/>
      <point x="977.952" y="868.64"/>
      <point x="1159.49" y="709.552"/>
    </contour>
  </outline>
</glyph>
<glyph name="six" format="2">
  <advance width="1281"/>
  <unicode hex="0036"/>
  <outline>
    <contour>
      <point x="648" y="-30" type="curve" smooth="yes"/>
      <point x="219" y="-30"/>
      <point x="93" y="293"/>
      <point x="93" y="658" type="curve" smooth="yes"/>
      <point x="93" y="1071"/>
      <point x="309" y="1469"/>
      <point x="787" y="1469" type="curve" smooth="yes"/>
      <point x="896" y="1469"/>
      <point x="1004" y="1452"/>
      <point x="1108" y="1417" type="curve"/>
      <point x="1078" y="1252" type="line"/>
      <point x="999" y="1285"/>
      <point x="912" y="1306"/>
      <point x="825" y="1306" type="curve" smooth="yes"/>
      <point x="475" y="1306"/>
      <point x="290" y="1073"/>
      <point x="261" y="749" type="curve"/>
      <point x="341" y="893"/>
      <point x="520" y="945"/>
      <point x="677" y="945" type="curve" smooth="yes"/>
      <point x="983" y="945"/>
      <point x="1195" y="776"/>
      <point x="1195" y="460" type="curve" smooth="yes"/>
      <point x="1195" y="135"/>
      <point x="957" y="-30"/>
    </contour>
    <contour>
      <point x="646" y="136" type="curve" smooth="yes"/>
      <point x="850" y="136"/>
      <point x="1009" y="236"/>
      <point x="1009" y="456" type="curve" smooth="yes"/>
      <point x="1009" y="670"/>
      <point x="849" y="773"/>
      <point x="648" y="773" type="curve" smooth="yes"/>
      <point x="446" y="773"/>
      <point x="288" y="672"/>
      <point x="288" y="456" type="curve" smooth="yes"/>
      <point x="288" y="239"/>
      <point x="443" y="136"/>
    </contour>
  </outline>
</glyph>
<glyph name="seven" format="2">
  <advance width="1028"/>
  <unicode hex="0037"/>
  <outline>
    <contour>
      <point x="216" y="0" type="line"/>
      <point x="732" y="1265" type="line"/>
      <point x="80" y="1265" type="line"/>
      <point x="80" y="1440" type="line"/>
      <point x="928" y="1440" type="line"/>
      <point x="928" y="1265" type="line"/>
      <point x="413" y="0" type="line"/>
    </contour>
  </outline>
</glyph>
<glyph name="eight" format="2">
  <advance width="1280"/>
  <unicode hex="0038"/>
  <outline>
    <contour>
      <point x="640.256" y="1467.9" type="curve" smooth="yes"/>
      <point x="919.392" y="1467.9"/>
      <point x="1116.54" y="1316.62"/>
      <point x="1116.54" y="1056.03" type="curve" smooth="yes"/>
      <point x="1116.54" y="928.176"/>
      <point x="1046.27" y="784.704"/>
      <point x="918.416" y="741.76" type="curve"/>
      <point x="1062.86" y="699.792"/>
      <point x="1159.49" y="561.2"/>
      <point x="1159.49" y="410.896" type="curve" smooth="yes"/>
      <point x="1159.49" y="132.736"/>
      <point x="943.792" y="-30.256"/>
      <point x="640.256" y="-30.256" type="curve" smooth="yes"/>
      <point x="334.768" y="-30.256"/>
      <point x="120.048" y="132.736"/>
      <point x="120.048" y="410.896" type="curve" smooth="yes"/>
      <point x="120.048" y="563.152"/>
      <point x="215.696" y="697.84"/>
      <point x="360.144" y="741.76" type="curve"/>
      <point x="233.264" y="783.728"/>
      <point x="162.992" y="929.152"/>
      <point x="162.992" y="1056.03" type="curve" smooth="yes"/>
      <point x="162.992" y="1316.62"/>
      <point x="358.192" y="1467.9"/>
    </contour>
    <contour>
      <point x="640.256" y="818.864" type="curve" smooth="yes"/>
      <point x="837.408" y="818.864"/>
      <point x="940.864" y="925.248"/>
      <point x="940.864" y="1058.96" type="curve" smooth="yes"/>
      <point x="940.864" y="1212.19"/>
      <point x="818.864" y="1304.91"/>
      <point x="640.256" y="1304.91" type="curve" smooth="yes"/>
      <point x="458.72" y="1304.91"/>
      <point x="339.648" y="1212.19"/>
      <point x="339.648" y="1058.96" type="curve" smooth="yes"/>
      <point x="339.648" y="925.248"/>
      <point x="442.128" y="818.864"/>
    </contour>
    <contour>
      <point x="640.256" y="653.92" type="curve" smooth="yes"/>
      <point x="422.608" y="653.92"/>
      <point x="298.656" y="563.152"/>
      <point x="298.656" y="406.016" type="curve" smooth="yes"/>
      <point x="298.656" y="240.096"/>
      <point x="428.464" y="132.736"/>
      <point x="640.256" y="132.736" type="curve" smooth="yes"/>
      <point x="851.072" y="132.736"/>
      <point x="979.904" y="240.096"/>
      <point x="979.904" y="406.016" type="curve" smooth="yes"/>
      <point x="979.904" y="563.152"/>
      <point x="856.928" y="653.92"/>
    </contour>
  </outline>
</glyph>
<glyph name="nine" format="2">
  <advance width="1281"/>
  <unicode hex="0039"/>
  <outline>
    <contour>
      <point x="633" y="1469" type="curve" smooth="yes"/>
      <point x="1063" y="1469"/>
      <point x="1188" y="1142"/>
      <point x="1188" y="777" type="curve" smooth="yes"/>
      <point x="1188" y="366"/>
      <point x="969" y="-30"/>
      <point x="494" y="-30" type="curve" smooth="yes"/>
      <point x="384" y="-30"/>
      <point x="277" y="-12"/>
      <point x="173" y="22" type="curve"/>
      <point x="202" y="187" type="line"/>
      <point x="282" y="154"/>
      <point x="369" y="133"/>
      <point x="456" y="133" type="curve" smooth="yes"/>
      <point x="804" y="133"/>
      <point x="992" y="366"/>
      <point x="1020" y="690" type="curve"/>
      <point x="940" y="545"/>
      <point x="760" y="495"/>
      <point x="603" y="495" type="curve" smooth="yes"/>
      <point x="298" y="495"/>
      <point x="85" y="662"/>
      <point x="85" y="979" type="curve" smooth="yes"/>
      <point x="85" y="1306"/>
      <point x="325" y="1469"/>
    </contour>
    <contour>
      <point x="635" y="1302" type="curve" smooth="yes"/>
      <point x="430" y="1302"/>
      <point x="272" y="1204"/>
      <point x="272" y="984" type="curve" smooth="yes"/>
      <point x="272" y="768"/>
      <point x="431" y="666"/>
      <point x="633" y="666" type="curve" smooth="yes"/>
      <point x="835" y="666"/>
      <point x="992" y="767"/>
      <point x="992" y="984" type="curve" smooth="yes"/>
      <point x="992" y="1200"/>
      <point x="838" y="1302"/>
    </contour>
  </outline>
</glyph>
<glyph name="less" format="2">
  <advance width="1246"/>
  <unicode hex="003C"/>
  <outline>
    <contour>
      <point x="754" y="156" type="line"/>
      <point x="280" y="630" type="line"/>
      <point x="754" y="1104" type="line"/>
      <point x="868" y="990" type="line"/>
      <point x="503" y="630" type="line"/>
      <point x="868" y="270" type="line"/>
    </contour>
  </outline>
</glyph>
<glyph name="equal" format="2">
  <advance width="1500"/>
  <unicode hex="003D"/>
  <outline>
    <contour>
      <point x="240" y="824" type="line"/>
      <point x="240" y="967" type="line"/>
      <point x="1260" y="967" type="line"/>
      <point x="1260" y="824" type="line"/>
    </contour>
    <contour>
      <point x="240" y="473" type="line"/>
      <point x="240" y="616" type="line"/>
      <point x="1260" y="616" type="line"/>
      <point x="1260" y="473" type="line"/>
    </contour>
  </outline>
</glyph>
<glyph name="greater" format="2">
  <advance width="1246"/>
  <unicode hex="003E"/>
  <outline>
    <contour>
      <point x="378" y="270" type="line"/>
      <point x="743" y="630" type="line"/>
      <point x="378" y="990" type="line"/>
      <point x="492" y="1104" type="line"/>
      <point x="966" y="630" type="line"/>
      <point x="492" y="156" type="line"/>
    </contour>
  </outline>
</glyph>
<glyph name="question" format="2">
  <advance width="900"/>
  <unicode hex="003F"/>
  <outline>
    <contour>
      <point x="381" y="-13" type="curve" smooth="yes"/>
      <point x="317" y="-13"/>
      <point x="268" y="35"/>
      <point x="268" y="99" type="curve" smooth="yes"/>
      <point x="268" y="164"/>
      <point x="317" y="212"/>
      <point x="381" y="212" type="curve" smooth="yes"/>
      <point x="446" y="212"/>
      <point x="495" y="164"/>
      <point x="495" y="99" type="curve" smooth="yes"/>
      <point x="495" y="35"/>
      <point x="445" y="-13"/>
    </contour>
    <contour>
      <point x="325" y="397" type="line"/>
      <point x="325" y="462" type="line" smooth="yes"/>
      <point x="325" y="596"/>
      <point x="368" y="705"/>
      <point x="498" y="851" type="curve" smooth="yes"/>
      <point x="599" y="965"/>
      <point x="636" y="1036"/>
      <point x="636" y="1126" type="curve" smooth="yes"/>
      <point x="636" y="1237"/>
      <point x="551" y="1302"/>
      <point x="411" y="1302" type="curve" smooth="yes"/>
      <point x="293" y="1302"/>
      <point x="189" y="1268"/>
      <point x="91" y="1200" type="curve"/>
      <point x="45" y="1359" type="line"/>
      <point x="145" y="1428"/>
      <point x="284" y="1470"/>
      <point x="420" y="1470" type="curve" smooth="yes"/>
      <point x="665" y="1470"/>
      <point x="828" y="1338"/>
      <point x="828" y="1142" type="curve" smooth="yes"/>
      <point x="828" y="1012"/>
      <point x="779" y="916"/>
      <point x="636" y="773" type="curve" smooth="yes"/>
      <point x="504" y="641"/>
      <point x="460" y="551"/>
      <point x="449" y="449" type="curve"/>
      <point x="442" y="397" type="line"/>
    </contour>
  </outline>
  <guideline angle="0" x="0" y="2193"/>
  <guideline angle="90" x="-1797" y="0"/>
</glyph>
<glyph name="at" format="2">
  <advance width="1815"/>
  <unicode hex="0040"/>
  <outline>
    <contour>
      <point x="908" y="-210" type="curve" smooth="yes"/>
      <point x="692" y="-210"/>
      <point x="507" y="-134"/>
      <point x="372" y="-2" type="curve" smooth="yes"/>
      <point x="237" y="130"/>
      <point x="160" y="313"/>
      <point x="160" y="522" type="curve" smooth="yes"/>
      <point x="160" y="761"/>
      <point x="239" y="952"/>
      <point x="375" y="1085" type="curve" smooth="yes"/>
      <point x="510" y="1218"/>
      <point x="696" y="1290"/>
      <point x="909" y="1290" type="curve" smooth="yes"/>
      <point x="1161" y="1290"/>
      <point x="1352" y="1205"/>
      <point x="1477" y="1069" type="curve" smooth="yes"/>
      <point x="1601" y="933"/>
      <point x="1661" y="755"/>
      <point x="1654" y="568" type="curve" smooth="yes"/>
      <point x="1649" y="440"/>
      <point x="1621" y="343"/>
      <point x="1570" y="276" type="curve" smooth="yes"/>
      <point x="1518" y="209"/>
      <point x="1441" y="176"/>
      <point x="1340" y="176" type="curve" smooth="yes"/>
      <point x="1281" y="176"/>
      <point x="1229" y="190"/>
      <point x="1182" y="217" type="curve" smooth="yes"/>
      <point x="1135" y="244"/>
      <point x="1103" y="283"/>
      <point x="1086" y="334" type="curve"/>
      <point x="1140" y="330" type="line"/>
      <point x="1115" y="281"/>
      <point x="1079" y="246"/>
      <point x="1032" y="225" type="curve" smooth="yes"/>
      <point x="985" y="204"/>
      <point x="936" y="193"/>
      <point x="886" y="193" type="curve" smooth="yes"/>
      <point x="822" y="193"/>
      <point x="766" y="207"/>
      <point x="717" y="235" type="curve" smooth="yes"/>
      <point x="619" y="291"/>
      <point x="560" y="394"/>
      <point x="560" y="526" type="curve" smooth="yes"/>
      <point x="560" y="594"/>
      <point x="574" y="653"/>
      <point x="603" y="703" type="curve" smooth="yes"/>
      <point x="660" y="803"/>
      <point x="765" y="860"/>
      <point x="889" y="860" type="curve" smooth="yes"/>
      <point x="932" y="860"/>
      <point x="978" y="851"/>
      <point x="1025" y="833" type="curve" smooth="yes"/>
      <point x="1072" y="815"/>
      <point x="1108" y="788"/>
      <point x="1133" y="752" type="curve"/>
      <point x="1093" y="703" type="line"/>
      <point x="1093" y="832" type="line"/>
      <point x="1215" y="832" type="line"/>
      <point x="1213" y="487" type="line" smooth="yes"/>
      <point x="1213" y="436"/>
      <point x="1224" y="397"/>
      <point x="1245" y="369" type="curve" smooth="yes"/>
      <point x="1266" y="341"/>
      <point x="1299" y="327"/>
      <point x="1344" y="327" type="curve" smooth="yes"/>
      <point x="1379" y="327"/>
      <point x="1408" y="337"/>
      <point x="1429" y="357" type="curve" smooth="yes"/>
      <point x="1472" y="396"/>
      <point x="1490" y="468"/>
      <point x="1494" y="561" type="curve" smooth="yes"/>
      <point x="1497" y="663"/>
      <point x="1482" y="751"/>
      <point x="1451" y="824" type="curve" smooth="yes"/>
      <point x="1419" y="897"/>
      <point x="1375" y="957"/>
      <point x="1320" y="1004" type="curve" smooth="yes"/>
      <point x="1265" y="1051"/>
      <point x="1202" y="1085"/>
      <point x="1133" y="1107" type="curve" smooth="yes"/>
      <point x="1064" y="1129"/>
      <point x="992" y="1140"/>
      <point x="919" y="1140" type="curve" smooth="yes"/>
      <point x="727" y="1140"/>
      <point x="576" y="1074"/>
      <point x="473" y="963" type="curve" smooth="yes"/>
      <point x="370" y="851"/>
      <point x="317" y="700"/>
      <point x="320" y="525" type="curve" smooth="yes"/>
      <point x="324" y="350"/>
      <point x="386" y="205"/>
      <point x="493" y="102" type="curve" smooth="yes"/>
      <point x="600" y="-2"/>
      <point x="747" y="-60"/>
      <point x="916" y="-60" type="curve" smooth="yes"/>
      <point x="967" y="-60"/>
      <point x="1018" y="-54"/>
      <point x="1069" y="-42" type="curve" smooth="yes"/>
      <point x="1120" y="-29"/>
      <point x="1166" y="-12"/>
      <point x="1207" y="9" type="curve"/>
      <point x="1260" y="-128" type="line"/>
      <point x="1152" y="-184"/>
      <point x="1031" y="-210"/>
    </contour>
    <contour>
      <point x="897" y="345" type="curve" smooth="yes"/>
      <point x="946" y="345"/>
      <point x="987" y="359"/>
      <point x="1020" y="388" type="curve" smooth="yes"/>
      <point x="1052" y="416"/>
      <point x="1068" y="462"/>
      <point x="1068" y="527" type="curve" smooth="yes"/>
      <point x="1068" y="587"/>
      <point x="1053" y="632"/>
      <point x="1024" y="663" type="curve" smooth="yes"/>
      <point x="994" y="694"/>
      <point x="953" y="709"/>
      <point x="901" y="709" type="curve" smooth="yes"/>
      <point x="780" y="709"/>
      <point x="718" y="640"/>
      <point x="718" y="527" type="curve" smooth="yes"/>
      <point x="718" y="411"/>
      <point x="785" y="345"/>
    </contour>
  </outline>
</glyph>
<glyph name="A" format="2">
  <advance width="1296"/>
  <unicode hex="0041"/>
  <outline>
    <contour>
      <point x="40" y="0" type="line"/>
      <point x="520" y="1440" type="line"/>
      <point x="776" y="1440" type="line"/>
      <point x="1256" y="0" type="line"/>
      <point x="1066" y="0" type="line"/>
      <point x="618" y="1333" type="line"/>
      <point x="674" y="1333" type="line"/>
      <point x="230" y="0" type="line"/>
    </contour>
    <contour>
      <point x="274" y="335" type="line"/>
      <point x="274" y="507" type="line"/>
      <point x="1022" y="507" type="line"/>
      <point x="1022" y="335" type="line"/>
    </contour>
  </outline>
</glyph>
<glyph name="B" format="2">
  <advance width="1236"/>
  <unicode hex="0042"/>
  <outline>
    <contour>
      <point x="140" y="0" type="line"/>
      <point x="140" y="1440" type="line"/>
      <point x="700" y="1440" type="line" smooth="yes"/>
      <point x="785" y="1440"/>
      <point x="858" y="1423"/>
      <point x="919" y="1388" type="curve" smooth="yes"/>
      <point x="979" y="1353"/>
      <point x="1026" y="1306"/>
      <point x="1059" y="1249" type="curve" smooth="yes"/>
      <point x="1091" y="1192"/>
      <point x="1107" y="1129"/>
      <point x="1107" y="1063" type="curve" smooth="yes"/>
      <point x="1107" y="984"/>
      <point x="1087" y="916"/>
      <point x="1047" y="857" type="curve" smooth="yes"/>
      <point x="1006" y="799"/>
      <point x="952" y="758"/>
      <point x="884" y="735" type="curve"/>
      <point x="882" y="784" type="line"/>
      <point x="975" y="759"/>
      <point x="1048" y="714"/>
      <point x="1100" y="648" type="curve" smooth="yes"/>
      <point x="1151" y="581"/>
      <point x="1177" y="502"/>
      <point x="1177" y="410" type="curve" smooth="yes"/>
      <point x="1177" y="327"/>
      <point x="1159" y="254"/>
      <point x="1125" y="193" type="curve" smooth="yes"/>
      <point x="1055" y="70"/>
      <point x="924" y="0"/>
      <point x="749" y="0" type="curve" smooth="yes"/>
    </contour>
    <contour>
      <point x="314" y="164" type="line"/>
      <point x="715" y="164" type="line" smooth="yes"/>
      <point x="769" y="164"/>
      <point x="817" y="174"/>
      <point x="861" y="194" type="curve" smooth="yes"/>
      <point x="947" y="234"/>
      <point x="1000" y="308"/>
      <point x="1000" y="411" type="curve" smooth="yes"/>
      <point x="1000" y="460"/>
      <point x="988" y="505"/>
      <point x="966" y="544" type="curve" smooth="yes"/>
      <point x="921" y="624"/>
      <point x="839" y="674"/>
      <point x="736" y="674" type="curve" smooth="yes"/>
      <point x="314" y="674" type="line"/>
    </contour>
    <contour>
      <point x="314" y="836" type="line"/>
      <point x="698" y="836" type="line" smooth="yes"/>
      <point x="741" y="836"/>
      <point x="781" y="846"/>
      <point x="816" y="865" type="curve" smooth="yes"/>
      <point x="886" y="902"/>
      <point x="931" y="972"/>
      <point x="931" y="1063" type="curve" smooth="yes"/>
      <point x="931" y="1126"/>
      <point x="909" y="1178"/>
      <point x="866" y="1218" type="curve" smooth="yes"/>
      <point x="823" y="1258"/>
      <point x="767" y="1278"/>
      <point x="698" y="1278" type="curve" smooth="yes"/>
      <point x="314" y="1278" type="line"/>
    </contour>
  </outline>
</glyph>
<glyph name="C" format="2">
  <advance width="1448"/>
  <unicode hex="0043"/>
  <outline>
    <contour>
      <point x="733" y="-30" type="qcurve" smooth="yes"/>
      <point x="518" y="-30"/>
      <point x="217" y="160"/>
      <point x="60" y="498"/>
      <point x="60" y="720" type="qcurve" smooth="yes"/>
      <point x="60" y="942"/>
      <point x="217" y="1280"/>
      <point x="518" y="1470"/>
      <point x="733" y="1470" type="qcurve" smooth="yes"/>
      <point x="983" y="1470"/>
      <point x="1306" y="1216"/>
      <point x="1368" y="1002" type="qcurve"/>
      <point x="1183" y="952" type="line"/>
      <point x="1139" y="1112"/>
      <point x="914" y="1296"/>
      <point x="733" y="1296" type="qcurve" smooth="yes"/>
      <point x="574" y="1296"/>
      <point x="361" y="1151"/>
      <point x="254" y="891"/>
      <point x="253" y="720" type="qcurve" smooth="yes"/>
      <point x="252" y="549"/>
      <point x="359" y="290"/>
      <point x="574" y="144"/>
      <point x="733" y="144" type="qcurve" smooth="yes"/>
      <point x="914" y="144"/>
      <point x="1139" y="329"/>
      <point x="1183" y="488" type="qcurve"/>
      <point x="1368" y="438" type="line"/>
      <point x="1306" y="224"/>
      <point x="983" y="-30"/>
    </contour>
  </outline>
</glyph>
<glyph name="D" format="2">
  <advance width="1365"/>
  <unicode hex="0044"/>
  <outline>
    <contour>
      <point x="140" y="0" type="line"/>
      <point x="140" y="1440" type="line"/>
      <point x="585" y="1440" type="line" smooth="yes"/>
      <point x="606" y="1440"/>
      <point x="716" y="1438"/>
      <point x="767" y="1431" type="qcurve" smooth="yes"/>
      <point x="934" y="1409"/>
      <point x="1160" y="1210"/>
      <point x="1274" y="903"/>
      <point x="1274" y="720" type="qcurve" smooth="yes"/>
      <point x="1274" y="536"/>
      <point x="1160" y="229"/>
      <point x="934" y="31"/>
      <point x="767" y="9" type="qcurve" smooth="yes"/>
      <point x="717" y="2"/>
      <point x="605" y="0"/>
      <point x="585" y="0" type="qcurve" smooth="yes"/>
    </contour>
    <contour>
      <point x="328" y="174" type="line"/>
      <point x="585" y="174" type="line" smooth="yes"/>
      <point x="622" y="174"/>
      <point x="716" y="179"/>
      <point x="752" y="185" type="qcurve"/>
      <point x="868" y="207"/>
      <point x="1013" y="360"/>
      <point x="1080" y="588"/>
      <point x="1080" y="720" type="qcurve" smooth="yes"/>
      <point x="1080" y="855"/>
      <point x="1012" y="1082"/>
      <point x="867" y="1234"/>
      <point x="752" y="1255" type="qcurve" smooth="yes"/>
      <point x="716" y="1262"/>
      <point x="621" y="1266"/>
      <point x="585" y="1266" type="qcurve" smooth="yes"/>
      <point x="328" y="1266" type="line"/>
    </contour>
  </outline>
</glyph>
<glyph name="E" format="2">
  <advance width="1148"/>
  <unicode hex="0045"/>
  <outline>
    <contour>
      <point x="140" y="0" type="line"/>
      <point x="140" y="1440" type="line"/>
      <point x="1048" y="1440" type="line"/>
      <point x="1048" y="1277" type="line"/>
      <point x="312" y="1277" type="line"/>
      <point x="312" y="816" type="line"/>
      <point x="928" y="816" type="line"/>
      <point x="928" y="653" type="line"/>
      <point x="312" y="653" type="line"/>
      <point x="312" y="163" type="line"/>
      <point x="1048" y="163" type="line"/>
      <point x="1048" y="0" type="line"/>
    </contour>
  </outline>
</glyph>
<glyph name="F" format="2">
  <advance width="1022"/>
  <unicode hex="0046"/>
  <outline>
    <contour>
      <point x="140" y="0" type="line"/>
      <point x="140" y="1440" type="line"/>
      <point x="982" y="1440" type="line"/>
      <point x="982" y="1257" type="line"/>
      <point x="323" y="1257" type="line"/>
      <point x="323" y="811" type="line"/>
      <point x="862" y="811" type="line"/>
      <point x="862" y="629" type="line"/>
      <point x="323" y="629" type="line"/>
      <point x="323" y="0" type="line"/>
    </contour>
  </outline>
</glyph>
<glyph name="G" format="2">
  <advance width="1442"/>
  <unicode hex="0047"/>
  <outline>
    <contour>
      <point x="1209" y="0" type="line"/>
      <point x="1362" y="0" type="line"/>
      <point x="1362" y="767" type="line"/>
      <point x="1192" y="767" type="line"/>
      <point x="1192" y="323" type="line"/>
    </contour>
    <contour>
      <point x="727" y="1469" type="curve" smooth="yes"/>
      <point x="526" y="1469"/>
      <point x="359" y="1396"/>
      <point x="242" y="1266" type="curve" smooth="yes"/>
      <point x="125" y="1135"/>
      <point x="60" y="948"/>
      <point x="60" y="720" type="curve" smooth="yes"/>
      <point x="60" y="485"/>
      <point x="124" y="297"/>
      <point x="238" y="169" type="curve" smooth="yes"/>
      <point x="351" y="40"/>
      <point x="515" y="-30"/>
      <point x="714" y="-30" type="curve" smooth="yes"/>
      <point x="824" y="-30"/>
      <point x="935" y="-7"/>
      <point x="1014" y="37" type="curve" smooth="yes"/>
      <point x="1094" y="80"/>
      <point x="1168" y="142"/>
      <point x="1203" y="221" type="curve"/>
      <point x="1355" y="767" type="line"/>
      <point x="649" y="767" type="line"/>
      <point x="649" y="590" type="line"/>
      <point x="1188" y="590" type="line"/>
      <point x="1184" y="451"/>
      <point x="1131" y="341"/>
      <point x="1058" y="265" type="curve" smooth="yes"/>
      <point x="985" y="189"/>
      <point x="865" y="147"/>
      <point x="729" y="147" type="curve" smooth="yes"/>
      <point x="578" y="147"/>
      <point x="459" y="200"/>
      <point x="379" y="297" type="curve" smooth="yes"/>
      <point x="299" y="394"/>
      <point x="257" y="537"/>
      <point x="257" y="715" type="curve" smooth="yes"/>
      <point x="257" y="898"/>
      <point x="301" y="1043"/>
      <point x="382" y="1141" type="curve" smooth="yes"/>
      <point x="464" y="1239"/>
      <point x="581" y="1292"/>
      <point x="732" y="1292" type="curve" smooth="yes"/>
      <point x="831" y="1292"/>
      <point x="918" y="1266"/>
      <point x="988" y="1218" type="curve" smooth="yes"/>
      <point x="1059" y="1169"/>
      <point x="1110" y="1098"/>
      <point x="1139" y="1005" type="curve"/>
      <point x="1327" y="1043" type="line"/>
      <point x="1282" y="1185"/>
      <point x="1206" y="1292"/>
      <point x="1105" y="1363" type="curve" smooth="yes"/>
      <point x="1004" y="1434"/>
      <point x="877" y="1469"/>
    </contour>
  </outline>
</glyph>
<glyph name="H" format="2">
  <advance width="1398"/>
  <unicode hex="0048"/>
  <outline>
    <contour>
      <point x="140" y="0" type="line"/>
      <point x="140" y="1440" type="line"/>
      <point x="323" y="1440" type="line"/>
      <point x="323" y="807" type="line"/>
      <point x="1075" y="807" type="line"/>
      <point x="1075" y="1440" type="line"/>
      <point x="1258" y="1440" type="line"/>
      <point x="1258" y="0" type="line"/>
      <point x="1075" y="0" type="line"/>
      <point x="1075" y="634" type="line"/>
      <point x="323" y="634" type="line"/>
      <point x="323" y="0" type="line"/>
    </contour>
  </outline>
</glyph>
<glyph name="J" format="2">
  <advance width="956"/>
  <unicode hex="004A"/>
  <outline>
    <contour>
      <point x="402" y="-29" type="curve" smooth="yes"/>
      <point x="301" y="-29"/>
      <point x="215" y="-2"/>
      <point x="145" y="54" type="curve" smooth="yes"/>
      <point x="74" y="109"/>
      <point x="26" y="182"/>
      <point x="0" y="274" type="curve"/>
      <point x="182" y="317" type="line"/>
      <point x="192" y="269"/>
      <point x="217" y="228"/>
      <point x="258" y="195" type="curve" smooth="yes"/>
      <point x="299" y="161"/>
      <point x="345" y="144"/>
      <point x="398" y="144" type="curve" smooth="yes"/>
      <point x="432" y="144"/>
      <point x="467" y="153"/>
      <point x="503" y="170" type="curve" smooth="yes"/>
      <point x="538" y="187"/>
      <point x="565" y="214"/>
      <point x="584" y="252" type="curve" smooth="yes"/>
      <point x="597" y="278"/>
      <point x="605" y="307"/>
      <point x="607" y="340" type="curve" smooth="yes"/>
      <point x="609" y="372"/>
      <point x="610" y="410"/>
      <point x="610" y="453" type="curve" smooth="yes"/>
      <point x="610" y="1440" type="line"/>
      <point x="795" y="1440" type="line"/>
      <point x="795" y="453" type="line" smooth="yes"/>
      <point x="795" y="412"/>
      <point x="795" y="375"/>
      <point x="794" y="342" type="curve" smooth="yes"/>
      <point x="793" y="276"/>
      <point x="783" y="219"/>
      <point x="748" y="158" type="curve" smooth="yes"/>
      <point x="675" y="30"/>
      <point x="549" y="-29"/>
    </contour>
  </outline>
</glyph>
<glyph name="K" format="2">
  <advance width="1216"/>
  <unicode hex="004B"/>
  <outline>
    <contour>
      <point x="948" y="1440" type="line"/>
      <point x="1164" y="1440" type="line"/>
      <point x="222" y="427" type="line"/>
      <point x="223" y="666" type="line"/>
    </contour>
    <contour>
      <point x="997" y="0" type="line"/>
      <point x="403" y="742" type="line"/>
      <point x="561" y="814" type="line"/>
      <point x="1216" y="0" type="line"/>
    </contour>
    <contour>
      <point x="140" y="0" type="line"/>
      <point x="140" y="1440" type="line"/>
      <point x="307" y="1440" type="line"/>
      <point x="307" y="0" type="line"/>
    </contour>
  </outline>
</glyph>
<glyph name="L" format="2">
  <advance width="1038"/>
  <unicode hex="004C"/>
  <outline>
    <contour>
      <point x="160" y="0" type="line"/>
      <point x="160" y="1440" type="line"/>
      <point x="343" y="1440" type="line"/>
      <point x="343" y="173" type="line"/>
      <point x="1008" y="173" type="line"/>
      <point x="1008" y="0" type="line"/>
    </contour>
  </outline>
</glyph>
<glyph name="M" format="2">
  <advance width="1636"/>
  <unicode hex="004D"/>
  <outline>
    <contour>
      <point x="140" y="0" type="line"/>
      <point x="140" y="1440" type="line"/>
      <point x="311" y="1440" type="line"/>
      <point x="818" y="366" type="line"/>
      <point x="1323" y="1440" type="line"/>
      <point x="1496" y="1440" type="line"/>
      <point x="1496" y="1" type="line"/>
      <point x="1323" y="1" type="line"/>
      <point x="1323" y="1080" type="line"/>
      <point x="896" y="168" type="line"/>
      <point x="740" y="168" type="line"/>
      <point x="313" y="1080" type="line"/>
      <point x="313" y="0" type="line"/>
    </contour>
  </outline>
</glyph>
<glyph name="N" format="2">
  <advance width="1394"/>
  <unicode hex="004E"/>
  <outline>
    <contour>
      <point x="140" y="0" type="line"/>
      <point x="140" y="1440" type="line"/>
      <point x="325" y="1440" type="line"/>
      <point x="1070" y="323" type="line"/>
      <point x="1070" y="1440" type="line"/>
      <point x="1254" y="1440" type="line"/>
      <point x="1254" y="0" type="line"/>
      <point x="1070" y="0" type="line"/>
      <point x="325" y="1117" type="line"/>
      <point x="325" y="0" type="line"/>
    </contour>
  </outline>
</glyph>
<glyph name="P" format="2">
  <advance width="1235"/>
  <unicode hex="0050"/>
  <outline>
    <contour>
      <point x="140" y="0" type="line"/>
      <point x="140" y="1440" type="line"/>
      <point x="711" y="1440" type="line" smooth="yes"/>
      <point x="739" y="1440"/>
      <point x="781" y="1439"/>
      <point x="818" y="1432" type="curve"/>
      <point x="896" y="1420"/>
      <point x="962" y="1393"/>
      <point x="1015" y="1352" type="curve" smooth="yes"/>
      <point x="1121" y="1268"/>
      <point x="1175" y="1138"/>
      <point x="1175" y="985" type="curve" smooth="yes"/>
      <point x="1175" y="908"/>
      <point x="1162" y="839"/>
      <point x="1135" y="776" type="curve" smooth="yes"/>
      <point x="1081" y="650"/>
      <point x="973" y="562"/>
      <point x="818" y="538" type="curve" smooth="yes"/>
      <point x="799" y="535"/>
      <point x="780" y="533"/>
      <point x="761" y="532" type="curve" smooth="yes"/>
      <point x="741" y="531"/>
      <point x="724" y="530"/>
      <point x="711" y="530" type="curve" smooth="yes"/>
      <point x="323" y="530" type="line"/>
      <point x="323" y="0" type="line"/>
    </contour>
    <contour>
      <point x="323" y="703" type="line"/>
      <point x="705" y="703" type="line" smooth="yes"/>
      <point x="730" y="703"/>
      <point x="764" y="705"/>
      <point x="795" y="712" type="curve" smooth="yes"/>
      <point x="840" y="723"/>
      <point x="877" y="742"/>
      <point x="906" y="770" type="curve" smooth="yes"/>
      <point x="962" y="826"/>
      <point x="988" y="906"/>
      <point x="988" y="985" type="curve" smooth="yes"/>
      <point x="988" y="1024"/>
      <point x="981" y="1063"/>
      <point x="968" y="1101" type="curve" smooth="yes"/>
      <point x="941" y="1176"/>
      <point x="886" y="1237"/>
      <point x="795" y="1258" type="curve" smooth="yes"/>
      <point x="764" y="1265"/>
      <point x="730" y="1267"/>
      <point x="705" y="1267" type="curve" smooth="yes"/>
      <point x="323" y="1267" type="line"/>
    </contour>
  </outline>
</glyph>
<glyph name="Q" format="2">
  <advance width="1467"/>
  <unicode hex="0051"/>
  <outline>
    <contour>
      <point x="1156" y="232" type="line"/>
      <point x="1258" y="149"/>
      <point x="1290" y="93"/>
      <point x="1434" y="83" type="curve"/>
      <point x="1413" y="-85" type="line"/>
      <point x="1225" y="-71"/>
      <point x="1140" y="-10"/>
      <point x="1022" y="130" type="curve"/>
    </contour>
    <contour>
      <point x="733" y="-30" type="curve" smooth="yes"/>
      <point x="284" y="-30"/>
      <point x="60" y="298"/>
      <point x="60" y="720" type="curve" smooth="yes"/>
      <point x="60" y="1142"/>
      <point x="284" y="1470"/>
      <point x="733" y="1470" type="curve" smooth="yes"/>
      <point x="1184" y="1470"/>
      <point x="1407" y="1143"/>
      <point x="1407" y="720" type="curve" smooth="yes"/>
      <point x="1407" y="297"/>
      <point x="1184" y="-30"/>
    </contour>
    <contour>
      <point x="733" y="144" type="curve" smooth="yes"/>
      <point x="1077" y="144"/>
      <point x="1213" y="411"/>
      <point x="1213" y="720" type="curve" smooth="yes"/>
      <point x="1213" y="1031"/>
      <point x="1078" y="1296"/>
      <point x="733" y="1296" type="curve" smooth="yes"/>
      <point x="387" y="1296"/>
      <point x="254" y="1025"/>
      <point x="254" y="716" type="curve" smooth="yes"/>
      <point x="254" y="407"/>
      <point x="390" y="144"/>
    </contour>
  </outline>
</glyph>
<glyph name="T" format="2">
  <advance width="1199"/>
  <unicode hex="0054"/>
  <outline>
    <contour>
      <point x="513" y="0" type="line"/>
      <point x="513" y="1277" type="line"/>
      <point x="20" y="1277" type="line"/>
      <point x="20" y="1440" type="line"/>
      <point x="1179" y="1440" type="line"/>
      <point x="1179" y="1277" type="line"/>
      <point x="685" y="1277" type="line"/>
      <point x="685" y="0" type="line"/>
    </contour>
  </outline>
</glyph>
<glyph name="V" format="2">
  <advance width="1227"/>
  <unicode hex="0056"/>
  <outline>
    <contour>
      <point x="495" y="0" type="line"/>
      <point x="10" y="1440" type="line"/>
      <point x="189" y="1440" type="line"/>
      <point x="612" y="185" type="line"/>
      <point x="1038" y="1440" type="line"/>
      <point x="1217" y="1440" type="line"/>
      <point x="732" y="0" type="line"/>
    </contour>
  </outline>
</glyph>
<glyph name="W" format="2">
  <advance width="1893"/>
  <unicode hex="0057"/>
  <outline>
    <contour>
      <point x="447" y="0" type="line"/>
      <point x="31" y="1440" type="line"/>
      <point x="210" y="1440" type="line"/>
      <point x="533" y="291" type="line"/>
      <point x="856" y="1439" type="line"/>
      <point x="1036" y="1440" type="line"/>
      <point x="1359" y="291" type="line"/>
      <point x="1682" y="1440" type="line"/>
      <point x="1862" y="1440" type="line"/>
      <point x="1445" y="0" type="line"/>
      <point x="1273" y="0" type="line"/>
      <point x="946" y="1139" type="line"/>
      <point x="619" y="0" type="line"/>
    </contour>
  </outline>
</glyph>
<glyph name="X" format="2">
  <advance width="1250"/>
  <unicode hex="0058"/>
  <outline>
    <contour>
      <point x="20" y="0" type="line"/>
      <point x="514" y="729" type="line"/>
      <point x="33" y="1440" type="line"/>
      <point x="256" y="1440" type="line"/>
      <point x="626" y="883" type="line"/>
      <point x="994" y="1440" type="line"/>
      <point x="1218" y="1440" type="line"/>
      <point x="737" y="729" type="line"/>
      <point x="1230" y="0" type="line"/>
      <point x="1007" y="0" type="line"/>
      <point x="626" y="574" type="line"/>
      <point x="244" y="0" type="line"/>
    </contour>
  </outline>
</glyph>
<glyph name="Y" format="2">
  <advance width="1155"/>
  <unicode hex="0059"/>
  <outline>
    <contour>
      <point x="485" y="0" type="line"/>
      <point x="485" y="598" type="line"/>
      <point x="0" y="1440" type="line"/>
      <point x="213" y="1440" type="line"/>
      <point x="578" y="808" type="line"/>
      <point x="942" y="1440" type="line"/>
      <point x="1155" y="1440" type="line"/>
      <point x="670" y="598" type="line"/>
      <point x="670" y="0" type="line"/>
    </contour>
  </outline>
</glyph>
<glyph name="bracketleft" format="2">
  <advance width="827"/>
  <unicode hex="005B"/>
  <outline>
    <contour>
      <point x="280" y="-431" type="line"/>
      <point x="280" y="1783" type="line"/>
      <point x="678" y="1783" type="line"/>
      <point x="678" y="1617" type="line"/>
      <point x="446" y="1617" type="line"/>
      <point x="446" y="-265" type="line"/>
      <point x="678" y="-265" type="line"/>
      <point x="678" y="-431" type="line"/>
    </contour>
  </outline>
</glyph>
<glyph name="backslash" format="2">
  <advance width="799"/>
  <unicode hex="005C"/>
  <outline>
    <contour>
      <point x="295" y="1440" type="line"/>
      <point x="679" y="0" type="line"/>
      <point x="504" y="0" type="line"/>
      <point x="120" y="1440" type="line"/>
    </contour>
  </outline>
</glyph>
<glyph name="grave" format="2">
  <advance width="1005"/>
  <unicode hex="0060"/>
  <outline>
    <contour>
      <point x="510" y="1932" type="line"/>
      <point x="582" y="1606" type="line"/>
      <point x="467" y="1606" type="line"/>
      <point x="339" y="1932" type="line"/>
    </contour>
  </outline>
</glyph>
<glyph name="a" format="2">
  <advance width="1122"/>
  <unicode hex="0061"/>
  <outline>
    <contour>
      <point x="1002" y="662" type="line" smooth="yes"/>
      <point x="1002" y="894"/>
      <point x="890" y="1050"/>
      <point x="694" y="1096" type="curve" smooth="yes"/>
      <point x="654" y="1106"/>
      <point x="610" y="1110"/>
      <point x="562" y="1110" type="curve" smooth="yes"/>
      <point x="404" y="1110"/>
      <point x="260" y="1056"/>
      <point x="148" y="926" type="curve"/>
      <point x="256" y="812" type="line"/>
      <point x="346" y="918"/>
      <point x="450" y="946"/>
      <point x="548" y="946" type="curve" smooth="yes"/>
      <point x="640" y="946"/>
      <point x="718" y="922"/>
      <point x="768" y="884" type="curve" smooth="yes"/>
      <point x="806" y="854"/>
      <point x="828" y="818"/>
      <point x="828" y="776" type="curve" smooth="yes"/>
      <point x="828" y="726"/>
      <point x="798" y="690"/>
      <point x="636" y="668" type="curve" smooth="yes"/>
      <point x="396" y="634"/>
      <point x="80" y="608"/>
      <point x="80" y="298" type="curve" smooth="yes"/>
      <point x="80" y="96"/>
      <point x="226" y="-30"/>
      <point x="434" y="-30" type="curve" smooth="yes"/>
      <point x="616" y="-30"/>
      <point x="752" y="22"/>
      <point x="850" y="166" type="curve"/>
      <point x="850" y="0" type="line"/>
      <point x="1002" y="0" type="line"/>
    </contour>
    <contour>
      <point x="790" y="292" type="curve" smooth="yes"/>
      <point x="728" y="180"/>
      <point x="612" y="120"/>
      <point x="466" y="120" type="curve" smooth="yes"/>
      <point x="342" y="120"/>
      <point x="252" y="196"/>
      <point x="252" y="312" type="curve" smooth="yes"/>
      <point x="252" y="500"/>
      <point x="534" y="506"/>
      <point x="674" y="528" type="curve" smooth="yes"/>
      <point x="762" y="542"/>
      <point x="796" y="554"/>
      <point x="832" y="584" type="curve"/>
      <point x="832" y="460"/>
      <point x="832" y="370"/>
    </contour>
  </outline>
</glyph>
<glyph name="b" format="2">
  <advance width="1246"/>
  <unicode hex="0062"/>
  <outline>
    <contour>
      <point x="139" y="1440" type="line"/>
      <point x="311" y="1440" type="line"/>
      <point x="311" y="0" type="line"/>
      <point x="139" y="0" type="line"/>
    </contour>
    <contour>
      <point x="675" y="1110" type="qcurve" smooth="yes"/>
      <point x="787" y="1110"/>
      <point x="968" y="1027"/>
      <point x="1096" y="877"/>
      <point x="1166" y="666"/>
      <point x="1166" y="539" type="qcurve" smooth="yes"/>
      <point x="1166" y="414"/>
      <point x="1097" y="204"/>
      <point x="969" y="54"/>
      <point x="788" y="-30"/>
      <point x="675" y="-30" type="qcurve" smooth="yes"/>
      <point x="558" y="-30"/>
      <point x="391" y="54"/>
      <point x="284" y="204"/>
      <point x="233" y="414"/>
      <point x="233" y="539" type="qcurve" smooth="yes"/>
      <point x="233" y="664"/>
      <point x="282" y="873"/>
      <point x="390" y="1025"/>
      <point x="557" y="1110"/>
    </contour>
    <contour>
      <point x="647" y="947" type="qcurve" smooth="yes"/>
      <point x="563" y="947"/>
      <point x="438" y="889"/>
      <point x="353" y="782"/>
      <point x="311" y="632"/>
      <point x="311" y="539" type="qcurve" smooth="yes"/>
      <point x="311" y="450"/>
      <point x="351" y="300"/>
      <point x="434" y="193"/>
      <point x="560" y="133"/>
      <point x="647" y="133" type="qcurve" smooth="yes"/>
      <point x="731" y="133"/>
      <point x="857" y="191"/>
      <point x="941" y="297"/>
      <point x="983" y="447"/>
      <point x="983" y="539" type="qcurve" smooth="yes"/>
      <point x="983" y="630"/>
      <point x="942" y="779"/>
      <point x="858" y="887"/>
      <point x="731" y="947"/>
    </contour>
  </outline>
</glyph>
<glyph name="c" format="2">
  <advance width="1119"/>
  <unicode hex="0063"/>
  <outline>
    <contour>
      <point x="594" y="-30" type="curve" smooth="yes"/>
      <point x="484" y="-30"/>
      <point x="391" y="-6"/>
      <point x="315" y="43" type="curve" smooth="yes"/>
      <point x="163" y="141"/>
      <point x="82" y="319"/>
      <point x="80" y="540" type="curve"/>
      <point x="81" y="652"/>
      <point x="102" y="752"/>
      <point x="143" y="837" type="curve" smooth="yes"/>
      <point x="224" y="1009"/>
      <point x="379" y="1110"/>
      <point x="595" y="1110" type="curve" smooth="yes"/>
      <point x="708" y="1110"/>
      <point x="805" y="1082"/>
      <point x="888" y="1027" type="curve" smooth="yes"/>
      <point x="970" y="971"/>
      <point x="1025" y="895"/>
      <point x="1054" y="799" type="curve"/>
      <point x="884" y="747" type="line"/>
      <point x="861" y="810"/>
      <point x="823" y="860"/>
      <point x="772" y="894" type="curve" smooth="yes"/>
      <point x="720" y="929"/>
      <point x="660" y="947"/>
      <point x="594" y="947" type="curve" smooth="yes"/>
      <point x="518" y="947"/>
      <point x="457" y="929"/>
      <point x="408" y="895" type="curve" smooth="yes"/>
      <point x="310" y="825"/>
      <point x="264" y="698"/>
      <point x="262" y="540" type="curve"/>
      <point x="263" y="418"/>
      <point x="292" y="320"/>
      <point x="347" y="245" type="curve" smooth="yes"/>
      <point x="402" y="170"/>
      <point x="484" y="133"/>
      <point x="594" y="133" type="curve" smooth="yes"/>
      <point x="736" y="133"/>
      <point x="831" y="200"/>
      <point x="880" y="324" type="curve"/>
      <point x="1054" y="278" type="line"/>
      <point x="1015" y="178"/>
      <point x="957" y="102"/>
      <point x="878" y="49" type="curve" smooth="yes"/>
      <point x="800" y="-4"/>
      <point x="704" y="-30"/>
    </contour>
  </outline>
</glyph>
<glyph name="d" format="2">
  <advance width="1204"/>
  <unicode hex="0064"/>
  <outline>
    <contour>
      <point x="565" y="-30" type="curve" smooth="yes"/>
      <point x="464" y="-30"/>
      <point x="378" y="-5"/>
      <point x="306" y="45" type="curve" smooth="yes"/>
      <point x="233" y="95"/>
      <point x="178" y="163"/>
      <point x="139" y="250" type="curve" smooth="yes"/>
      <point x="100" y="336"/>
      <point x="80" y="433"/>
      <point x="80" y="541" type="curve" smooth="yes"/>
      <point x="80" y="649"/>
      <point x="100" y="746"/>
      <point x="139" y="832" type="curve" smooth="yes"/>
      <point x="178" y="918"/>
      <point x="233" y="986"/>
      <point x="306" y="1036" type="curve" smooth="yes"/>
      <point x="378" y="1085"/>
      <point x="464" y="1110"/>
      <point x="564" y="1110" type="curve" smooth="yes"/>
      <point x="666" y="1110"/>
      <point x="752" y="1085"/>
      <point x="822" y="1036" type="curve" smooth="yes"/>
      <point x="961" y="936"/>
      <point x="1033" y="758"/>
      <point x="1033" y="541" type="curve" smooth="yes"/>
      <point x="1033" y="433"/>
      <point x="1015" y="336"/>
      <point x="980" y="250" type="curve" smooth="yes"/>
      <point x="944" y="164"/>
      <point x="891" y="96"/>
      <point x="822" y="46" type="curve" smooth="yes"/>
      <point x="752" y="-5"/>
      <point x="666" y="-30"/>
    </contour>
    <contour>
      <point x="588" y="137" type="curve" smooth="yes"/>
      <point x="660" y="137"/>
      <point x="719" y="154"/>
      <point x="765" y="189" type="curve" smooth="yes"/>
      <point x="857" y="258"/>
      <point x="900" y="385"/>
      <point x="900" y="541" type="curve" smooth="yes"/>
      <point x="900" y="620"/>
      <point x="889" y="689"/>
      <point x="867" y="750" type="curve" smooth="yes"/>
      <point x="823" y="871"/>
      <point x="733" y="943"/>
      <point x="593" y="943" type="curve" smooth="yes"/>
      <point x="520" y="943"/>
      <point x="460" y="925"/>
      <point x="413" y="890" type="curve" smooth="yes"/>
      <point x="318" y="818"/>
      <point x="274" y="692"/>
      <point x="274" y="541" type="curve" smooth="yes"/>
      <point x="274" y="465"/>
      <point x="286" y="397"/>
      <point x="309" y="336" type="curve" smooth="yes"/>
      <point x="355" y="214"/>
      <point x="447" y="137"/>
    </contour>
    <contour>
      <point x="900" y="0" type="line"/>
      <point x="900" y="792" type="line"/>
      <point x="880" y="792" type="line"/>
      <point x="880" y="1440" type="line"/>
      <point x="1064" y="1440" type="line"/>
      <point x="1064" y="0" type="line"/>
    </contour>
  </outline>
</glyph>
<glyph name="f" format="2">
  <advance width="727"/>
  <unicode hex="0066"/>
  <outline>
    <contour>
      <point x="242" y="0" type="line"/>
      <point x="242" y="1136" type="line" smooth="yes"/>
      <point x="242" y="1177"/>
      <point x="250" y="1266"/>
      <point x="278" y="1350"/>
      <point x="311" y="1385" type="qcurve" smooth="yes"/>
      <point x="348" y="1426"/>
      <point x="438" y="1462"/>
      <point x="530" y="1470"/>
      <point x="571" y="1470" type="qcurve" smooth="yes"/>
      <point x="707" y="1470" type="line"/>
      <point x="707" y="1318" type="line"/>
      <point x="581" y="1318" type="line" smooth="yes"/>
      <point x="502" y="1318"/>
      <point x="425" y="1241"/>
      <point x="425" y="1166" type="qcurve" smooth="yes"/>
      <point x="425" y="0" type="line"/>
    </contour>
    <contour>
      <point x="60" y="930" type="line"/>
      <point x="60" y="1080" type="line"/>
      <point x="707" y="1080" type="line"/>
      <point x="707" y="930" type="line"/>
    </contour>
  </outline>
</glyph>
<glyph name="g" format="2">
  <advance width="1247"/>
  <unicode hex="0067"/>
  <outline>
    <contour>
      <point x="599" y="173" type="curve" smooth="yes"/>
      <point x="830" y="173"/>
      <point x="935" y="346"/>
      <point x="935" y="559" type="curve" smooth="yes"/>
      <point x="935" y="771"/>
      <point x="830" y="947"/>
      <point x="599" y="947" type="curve" smooth="yes"/>
      <point x="369" y="947"/>
      <point x="262" y="771"/>
      <point x="262" y="559" type="curve" smooth="yes"/>
      <point x="262" y="345"/>
      <point x="367" y="173"/>
    </contour>
    <contour>
      <point x="571" y="1110" type="curve" smooth="yes"/>
      <point x="903" y="1110"/>
      <point x="1013" y="850"/>
      <point x="1013" y="559" type="curve" smooth="yes"/>
      <point x="1013" y="268"/>
      <point x="902" y="10"/>
      <point x="571" y="10" type="curve" smooth="yes"/>
      <point x="252" y="10"/>
      <point x="80" y="259"/>
      <point x="80" y="559" type="curve" smooth="yes"/>
      <point x="80" y="859"/>
      <point x="250" y="1110"/>
    </contour>
    <contour>
      <point x="1107" y="58" type="line" smooth="yes"/>
      <point x="1107" y="-263"/>
      <point x="936" y="-510"/>
      <point x="595" y="-510" type="curve" smooth="yes"/>
      <point x="379" y="-510"/>
      <point x="203" y="-405"/>
      <point x="125" y="-202" type="curve"/>
      <point x="299" y="-156" type="line"/>
      <point x="350" y="-284"/>
      <point x="458" y="-347"/>
      <point x="595" y="-347" type="curve" smooth="yes"/>
      <point x="838" y="-347"/>
      <point x="935" y="-159"/>
      <point x="935" y="60" type="curve" smooth="yes"/>
      <point x="935" y="1080" type="line"/>
      <point x="1107" y="1080" type="line"/>
    </contour>
  </outline>
</glyph>
<glyph name="h" format="2">
  <advance width="1212"/>
  <unicode hex="0068"/>
  <outline>
    <contour>
      <point x="907" y="0" type="line"/>
      <point x="907" y="539" type="line" smooth="yes"/>
      <point x="907" y="589"/>
      <point x="903" y="637"/>
      <point x="894" y="684" type="curve" smooth="yes"/>
      <point x="885" y="731"/>
      <point x="870" y="773"/>
      <point x="848" y="811" type="curve" smooth="yes"/>
      <point x="826" y="849"/>
      <point x="796" y="879"/>
      <point x="759" y="902" type="curve" smooth="yes"/>
      <point x="722" y="924"/>
      <point x="674" y="935"/>
      <point x="617" y="935" type="curve" smooth="yes"/>
      <point x="530" y="935"/>
      <point x="457" y="905"/>
      <point x="406" y="845" type="curve" smooth="yes"/>
      <point x="354" y="785"/>
      <point x="324" y="693"/>
      <point x="324" y="568" type="curve"/>
      <point x="205" y="606" type="line"/>
      <point x="205" y="709"/>
      <point x="224" y="799"/>
      <point x="261" y="874" type="curve" smooth="yes"/>
      <point x="298" y="949"/>
      <point x="351" y="1006"/>
      <point x="420" y="1047" type="curve" smooth="yes"/>
      <point x="489" y="1088"/>
      <point x="570" y="1108"/>
      <point x="663" y="1108" type="curve" smooth="yes"/>
      <point x="733" y="1108"/>
      <point x="793" y="1097"/>
      <point x="843" y="1075" type="curve" smooth="yes"/>
      <point x="892" y="1052"/>
      <point x="933" y="1023"/>
      <point x="966" y="986" type="curve" smooth="yes"/>
      <point x="999" y="949"/>
      <point x="1024" y="909"/>
      <point x="1043" y="864" type="curve" smooth="yes"/>
      <point x="1079" y="774"/>
      <point x="1092" y="677"/>
      <point x="1092" y="597" type="curve" smooth="yes"/>
      <point x="1092" y="0" type="line"/>
    </contour>
    <contour>
      <point x="139" y="0" type="line"/>
      <point x="139" y="1440" type="line"/>
      <point x="303" y="1440" type="line"/>
      <point x="303" y="648" type="line"/>
      <point x="324" y="648" type="line"/>
      <point x="324" y="0" type="line"/>
    </contour>
  </outline>
</glyph>
<glyph name="j" format="2">
  <advance width="530"/>
  <unicode hex="006A"/>
  <outline>
    <contour>
      <point x="-20" y="-480" type="line"/>
      <point x="-20" y="-306" type="line"/>
      <point x="37" y="-306" type="line" smooth="yes"/>
      <point x="116" y="-306"/>
      <point x="198" y="-228"/>
      <point x="198" y="-143" type="qcurve" smooth="yes"/>
      <point x="198" y="1080" type="line"/>
      <point x="380" y="1080" type="line"/>
      <point x="380" y="-207" type="line" smooth="yes"/>
      <point x="380" y="-341"/>
      <point x="242" y="-480"/>
      <point x="108" y="-480" type="qcurve" smooth="yes"/>
    </contour>
    <contour>
      <point x="289" y="1244" type="qcurve" smooth="yes"/>
      <point x="239" y="1244"/>
      <point x="170" y="1312"/>
      <point x="170" y="1362" type="qcurve" smooth="yes"/>
      <point x="170" y="1412"/>
      <point x="239" y="1480"/>
      <point x="289" y="1480" type="qcurve" smooth="yes"/>
      <point x="340" y="1480"/>
      <point x="408" y="1412"/>
      <point x="408" y="1362" type="qcurve" smooth="yes"/>
      <point x="408" y="1312"/>
      <point x="340" y="1244"/>
    </contour>
  </outline>
</glyph>
<glyph name="k" format="2">
  <advance width="1014"/>
  <unicode hex="006B"/>
  <outline>
    <contour>
      <point x="139" y="0" type="line"/>
      <point x="140" y="1440" type="line"/>
      <point x="304" y="1440" type="line"/>
      <point x="304" y="0" type="line"/>
    </contour>
    <contour>
      <point x="780" y="1080" type="line"/>
      <point x="990" y="1080" type="line"/>
      <point x="219" y="330" type="line"/>
      <point x="219" y="544" type="line"/>
    </contour>
    <contour>
      <point x="347" y="591" type="line"/>
      <point x="467" y="691" type="line"/>
      <point x="1017" y="0" type="line"/>
      <point x="819" y="0" type="line"/>
    </contour>
  </outline>
</glyph>
<glyph name="l" format="2">
  <advance width="591"/>
  <unicode hex="006C"/>
  <outline>
    <contour>
      <point x="547" y="166" type="qcurve"/>
      <point x="547" y="0" type="line"/>
      <point x="457" y="0" type="line" smooth="yes"/>
      <point x="397" y="0"/>
      <point x="297" y="30"/>
      <point x="221" y="88"/>
      <point x="174" y="174"/>
      <point x="166" y="229" type="qcurve" smooth="yes"/>
      <point x="163" y="252"/>
      <point x="160" y="298"/>
      <point x="160" y="322" type="qcurve" smooth="yes"/>
      <point x="160" y="1440" type="line"/>
      <point x="343" y="1440" type="line"/>
      <point x="343" y="461" type="line" smooth="yes"/>
      <point x="343" y="429"/>
      <point x="342" y="365"/>
      <point x="342" y="333" type="qcurve" smooth="yes"/>
      <point x="342" y="296"/>
      <point x="354" y="238"/>
      <point x="381" y="196"/>
      <point x="429" y="172"/>
      <point x="465" y="169" type="qcurve" smooth="yes"/>
      <point x="484" y="167"/>
      <point x="524" y="166"/>
    </contour>
  </outline>
</glyph>
<glyph name="m" format="2">
  <advance width="1723"/>
  <unicode hex="006D"/>
  <outline>
    <contour>
      <point x="1430" y="0" type="line"/>
      <point x="1431" y="695" type="line"/>
      <point x="1431" y="776"/>
      <point x="1410" y="840"/>
      <point x="1366" y="886" type="curve" smooth="yes"/>
      <point x="1322" y="931"/>
      <point x="1265" y="955"/>
      <point x="1197" y="955" type="curve" smooth="yes"/>
      <point x="1156" y="955"/>
      <point x="1118" y="945"/>
      <point x="1082" y="927" type="curve" smooth="yes"/>
      <point x="1045" y="909"/>
      <point x="1015" y="879"/>
      <point x="993" y="840" type="curve"/>
      <point x="969" y="801"/>
      <point x="957" y="750"/>
      <point x="957" y="688" type="curve"/>
      <point x="865" y="724" type="line"/>
      <point x="863" y="800"/>
      <point x="879" y="867"/>
      <point x="912" y="925" type="curve" smooth="yes"/>
      <point x="978" y="1041"/>
      <point x="1097" y="1108"/>
      <point x="1241" y="1108" type="curve" smooth="yes"/>
      <point x="1353" y="1108"/>
      <point x="1441" y="1074"/>
      <point x="1507" y="1006" type="curve" smooth="yes"/>
      <point x="1571" y="938"/>
      <point x="1603" y="846"/>
      <point x="1603" y="731" type="curve"/>
      <point x="1602" y="0" type="line"/>
    </contour>
    <contour>
      <point x="139" y="0" type="line"/>
      <point x="139" y="1080" type="line"/>
      <point x="293" y="1080" type="line"/>
      <point x="293" y="796" type="line"/>
      <point x="312" y="796" type="line"/>
      <point x="312" y="0" type="line"/>
    </contour>
    <contour>
      <point x="786" y="0" type="line"/>
      <point x="787" y="687" type="line"/>
      <point x="787" y="770"/>
      <point x="765" y="835"/>
      <point x="722" y="883" type="curve" smooth="yes"/>
      <point x="679" y="931"/>
      <point x="621" y="955"/>
      <point x="550" y="955" type="curve" smooth="yes"/>
      <point x="478" y="955"/>
      <point x="421" y="930"/>
      <point x="378" y="882" type="curve" smooth="yes"/>
      <point x="334" y="833"/>
      <point x="312" y="768"/>
      <point x="312" y="688" type="curve"/>
      <point x="219" y="743" type="line"/>
      <point x="219" y="812"/>
      <point x="236" y="875"/>
      <point x="269" y="930" type="curve" smooth="yes"/>
      <point x="336" y="1040"/>
      <point x="454" y="1108"/>
      <point x="599" y="1108" type="curve" smooth="yes"/>
      <point x="671" y="1108"/>
      <point x="734" y="1093"/>
      <point x="788" y="1063" type="curve" smooth="yes"/>
      <point x="895" y="1001"/>
      <point x="957" y="885"/>
      <point x="957" y="728" type="curve"/>
      <point x="956" y="0" type="line"/>
    </contour>
  </outline>
</glyph>
<glyph name="p" format="2">
  <advance width="1202"/>
  <unicode hex="0070"/>
  <outline>
    <contour>
      <point x="638" y="-30" type="curve" smooth="yes"/>
      <point x="536" y="-30"/>
      <point x="450" y="-5"/>
      <point x="381" y="46" type="curve" smooth="yes"/>
      <point x="242" y="146"/>
      <point x="170" y="325"/>
      <point x="170" y="541" type="curve" smooth="yes"/>
      <point x="170" y="650"/>
      <point x="188" y="747"/>
      <point x="224" y="833" type="curve" smooth="yes"/>
      <point x="295" y="1004"/>
      <point x="434" y="1110"/>
      <point x="638" y="1110" type="curve" smooth="yes"/>
      <point x="738" y="1110"/>
      <point x="824" y="1085"/>
      <point x="897" y="1036" type="curve" smooth="yes"/>
      <point x="969" y="986"/>
      <point x="1025" y="918"/>
      <point x="1064" y="832" type="curve" smooth="yes"/>
      <point x="1103" y="746"/>
      <point x="1122" y="649"/>
      <point x="1122" y="541" type="curve" smooth="yes"/>
      <point x="1122" y="433"/>
      <point x="1103" y="336"/>
      <point x="1064" y="250" type="curve" smooth="yes"/>
      <point x="1025" y="163"/>
      <point x="970" y="95"/>
      <point x="898" y="45" type="curve" smooth="yes"/>
      <point x="825" y="-5"/>
      <point x="739" y="-30"/>
    </contour>
    <contour>
      <point x="139" y="-480" type="line"/>
      <point x="139" y="1080" type="line"/>
      <point x="302" y="1080" type="line"/>
      <point x="302" y="288" type="line"/>
      <point x="323" y="288" type="line"/>
      <point x="323" y="-480" type="line"/>
    </contour>
    <contour>
      <point x="615" y="137" type="curve" smooth="yes"/>
      <point x="685" y="137"/>
      <point x="743" y="155"/>
      <point x="790" y="191" type="curve" smooth="yes"/>
      <point x="882" y="262"/>
      <point x="928" y="389"/>
      <point x="928" y="541" type="curve" smooth="yes"/>
      <point x="928" y="616"/>
      <point x="917" y="684"/>
      <point x="894" y="745" type="curve" smooth="yes"/>
      <point x="849" y="866"/>
      <point x="754" y="943"/>
      <point x="609" y="943" type="curve" smooth="yes"/>
      <point x="540" y="943"/>
      <point x="482" y="926"/>
      <point x="437" y="892" type="curve" smooth="yes"/>
      <point x="346" y="824"/>
      <point x="302" y="698"/>
      <point x="302" y="541" type="curve" smooth="yes"/>
      <point x="302" y="463"/>
      <point x="313" y="394"/>
      <point x="335" y="333" type="curve" smooth="yes"/>
      <point x="379" y="211"/>
      <point x="471" y="137"/>
    </contour>
  </outline>
</glyph>
<glyph name="q" format="2">
  <advance width="1247"/>
  <unicode hex="0071"/>
  <outline>
    <contour>
      <point x="1107" y="-480" type="line"/>
      <point x="935" y="-480" type="line"/>
      <point x="935" y="1080" type="line"/>
      <point x="1107" y="1080" type="line"/>
    </contour>
    <contour>
      <point x="571" y="-30" type="qcurve" smooth="yes"/>
      <point x="460" y="-30"/>
      <point x="278" y="53"/>
      <point x="150" y="203"/>
      <point x="80" y="414"/>
      <point x="80" y="541" type="qcurve" smooth="yes"/>
      <point x="80" y="666"/>
      <point x="149" y="876"/>
      <point x="277" y="1026"/>
      <point x="459" y="1110"/>
      <point x="571" y="1110" type="qcurve" smooth="yes"/>
      <point x="688" y="1110"/>
      <point x="855" y="1026"/>
      <point x="962" y="876"/>
      <point x="1013" y="667"/>
      <point x="1013" y="541" type="qcurve" smooth="yes"/>
      <point x="1013" y="416"/>
      <point x="963" y="207"/>
      <point x="856" y="55"/>
      <point x="689" y="-30"/>
    </contour>
    <contour>
      <point x="599" y="133" type="qcurve" smooth="yes"/>
      <point x="682" y="133"/>
      <point x="808" y="191"/>
      <point x="892" y="298"/>
      <point x="935" y="448"/>
      <point x="935" y="541" type="qcurve" smooth="yes"/>
      <point x="935" y="631"/>
      <point x="894" y="780"/>
      <point x="812" y="887"/>
      <point x="685" y="947"/>
      <point x="599" y="947" type="qcurve" smooth="yes"/>
      <point x="515" y="947"/>
      <point x="389" y="889"/>
      <point x="304" y="783"/>
      <point x="262" y="633"/>
      <point x="262" y="541" type="qcurve" smooth="yes"/>
      <point x="262" y="450"/>
      <point x="304" y="301"/>
      <point x="388" y="193"/>
      <point x="514" y="133"/>
    </contour>
  </outline>
</glyph>
<glyph name="r" format="2">
  <advance width="736"/>
  <unicode hex="0072"/>
  <outline>
    <contour>
      <point x="140" y="0" type="line"/>
      <point x="140" y="1080" type="line"/>
      <point x="303" y="1080" type="line"/>
      <point x="303" y="819" type="line"/>
      <point x="277" y="853" type="line"/>
      <point x="325" y="982"/>
      <point x="437" y="1100"/>
      <point x="578" y="1100" type="curve" smooth="yes"/>
      <point x="631" y="1100"/>
      <point x="721" y="1090"/>
      <point x="766" y="1060" type="curve"/>
      <point x="701" y="902" type="line"/>
      <point x="670" y="924"/>
      <point x="632" y="940"/>
      <point x="593" y="940" type="curve" smooth="yes"/>
      <point x="521" y="940"/>
      <point x="466" y="913"/>
      <point x="425" y="870" type="curve" smooth="yes"/>
      <point x="353" y="794"/>
      <point x="324" y="648"/>
      <point x="324" y="543" type="curve" smooth="yes"/>
      <point x="324" y="0" type="line"/>
    </contour>
  </outline>
</glyph>
<glyph name="s" format="2">
  <advance width="1063"/>
  <unicode hex="0073"/>
  <outline>
    <contour>
      <point x="549" y="-29" type="qcurve" smooth="yes"/>
      <point x="355" y="-29"/>
      <point x="108" y="141"/>
      <point x="80" y="294" type="qcurve"/>
      <point x="267" y="323" type="line"/>
      <point x="289" y="236"/>
      <point x="445" y="134"/>
      <point x="560" y="134" type="qcurve" smooth="yes"/>
      <point x="669" y="134"/>
      <point x="793" y="224"/>
      <point x="793" y="302" type="qcurve" smooth="yes"/>
      <point x="793" y="346"/>
      <point x="751" y="402"/>
      <point x="621" y="452"/>
      <point x="490" y="487" type="qcurve" smooth="yes"/>
      <point x="348" y="525"/>
      <point x="184" y="607"/>
      <point x="114" y="715"/>
      <point x="114" y="793" type="qcurve" smooth="yes"/>
      <point x="114" y="888"/>
      <point x="218" y="1031"/>
      <point x="405" y="1110"/>
      <point x="530" y="1110" type="qcurve" smooth="yes"/>
      <point x="653" y="1110"/>
      <point x="847" y="1032"/>
      <point x="966" y="889"/>
      <point x="977" y="794" type="qcurve"/>
      <point x="791" y="760" type="line"/>
      <point x="778" y="845"/>
      <point x="639" y="944"/>
      <point x="530" y="947" type="qcurve" smooth="yes"/>
      <point x="427" y="951"/>
      <point x="298" y="870"/>
      <point x="298" y="802" type="qcurve" smooth="yes"/>
      <point x="298" y="763"/>
      <point x="346" y="709"/>
      <point x="479" y="659"/>
      <point x="606" y="627" type="qcurve" smooth="yes"/>
      <point x="747" y="591"/>
      <point x="911" y="506"/>
      <point x="982" y="391"/>
      <point x="982" y="307" type="qcurve" smooth="yes"/>
      <point x="982" y="150"/>
      <point x="751" y="-29"/>
    </contour>
  </outline>
</glyph>
<glyph name="v" format="2">
  <advance width="1040"/>
  <unicode hex="0076"/>
  <outline>
    <contour>
      <point x="432" y="0" type="line"/>
      <point x="40" y="1080" type="line"/>
      <point x="214" y="1080" type="line"/>
      <point x="520" y="220" type="line"/>
      <point x="825" y="1080" type="line"/>
      <point x="1000" y="1080" type="line"/>
      <point x="608" y="0" type="line"/>
    </contour>
  </outline>
</glyph>
<glyph name="w" format="2">
  <advance width="1562"/>
  <unicode hex="0077"/>
  <outline>
    <contour>
      <point x="370" y="0" type="line"/>
      <point x="40" y="1081" type="line"/>
      <point x="222" y="1080" type="line"/>
      <point x="460" y="298" type="line"/>
      <point x="701" y="1080" type="line"/>
      <point x="861" y="1080" type="line"/>
      <point x="1101" y="298" type="line"/>
      <point x="1341" y="1080" type="line"/>
      <point x="1522" y="1080" type="line"/>
      <point x="1192" y="0" type="line"/>
      <point x="1041" y="0" type="line"/>
      <point x="781" y="815" type="line"/>
      <point x="521" y="0" type="line"/>
    </contour>
  </outline>
</glyph>
<glyph name="x" format="2">
  <advance width="1075"/>
  <unicode hex="0078"/>
  <outline>
    <contour>
      <point x="20" y="0" type="line"/>
      <point x="432" y="546" type="line"/>
      <point x="29" y="1080" type="line"/>
      <point x="247" y="1080" type="line"/>
      <point x="538" y="688" type="line"/>
      <point x="827" y="1080" type="line"/>
      <point x="1045" y="1080" type="line"/>
      <point x="642" y="546" type="line"/>
      <point x="1055" y="0" type="line"/>
      <point x="836" y="0" type="line"/>
      <point x="538" y="404" type="line"/>
      <point x="239" y="0" type="line"/>
    </contour>
  </outline>
</glyph>
<glyph name="y" format="2">
  <advance width="1112"/>
  <unicode hex="0079"/>
  <outline>
    <contour>
      <point x="579" y="203" type="line"/>
      <point x="227" y="1080" type="line"/>
      <point x="40" y="1080" type="line"/>
      <point x="480" y="0" type="line"/>
      <point x="505" y="0" type="line"/>
      <point x="444" y="-162"/>
      <point x="408" y="-244"/>
      <point x="366" y="-276" type="curve"/>
      <point x="328" y="-302"/>
      <point x="289" y="-305"/>
      <point x="220" y="-303" type="curve"/>
      <point x="220" y="-479" type="line"/>
      <point x="337" y="-480"/>
      <point x="396" y="-478"/>
      <point x="456" y="-435" type="curve" smooth="yes"/>
      <point x="523" y="-387"/>
      <point x="565" y="-303"/>
      <point x="606" y="-193" type="curve" smooth="yes"/>
      <point x="1092" y="1079" type="line"/>
      <point x="907" y="1079" type="line"/>
    </contour>
  </outline>
</glyph>
<glyph name="z" format="2">
  <advance width="1062"/>
  <unicode hex="007A"/>
  <outline>
    <contour>
      <point x="40" y="0" type="line"/>
      <point x="40" y="32" type="line"/>
      <point x="689" y="914" type="line"/>
      <point x="94" y="914" type="line"/>
      <point x="94" y="1080" type="line"/>
      <point x="982" y="1080" type="line"/>
      <point x="982" y="1046" type="line"/>
      <point x="335" y="166" type="line"/>
      <point x="949" y="166" type="line"/>
      <point x="949" y="0" type="line"/>
    </contour>
  </outline>
</glyph>
<glyph name="braceleft" format="2">
  <advance width="862"/>
  <unicode hex="007B"/>
  <outline>
    <contour>
      <point x="651" y="-431" type="line" smooth="yes"/>
      <point x="537" y="-431"/>
      <point x="397" y="-291"/>
      <point x="397" y="-178" type="qcurve" smooth="yes"/>
      <point x="397" y="454" type="line" smooth="yes"/>
      <point x="397" y="482"/>
      <point x="381" y="505" type="qcurve" smooth="yes"/>
      <point x="295" y="627" type="line" smooth="yes"/>
      <point x="280" y="649"/>
      <point x="280" y="703"/>
      <point x="295" y="725" type="qcurve" smooth="yes"/>
      <point x="381" y="846" type="line"/>
      <point x="397" y="872"/>
      <point x="397" y="897" type="qcurve" smooth="yes"/>
      <point x="397" y="1529" type="line" smooth="yes"/>
      <point x="397" y="1642"/>
      <point x="537" y="1783"/>
      <point x="651" y="1783" type="qcurve" smooth="yes"/>
      <point x="777" y="1783" type="line"/>
      <point x="777" y="1609" type="line"/>
      <point x="661" y="1609" type="line" smooth="yes"/>
      <point x="624" y="1609"/>
      <point x="571" y="1556"/>
      <point x="571" y="1518" type="qcurve" smooth="yes"/>
      <point x="571" y="897" type="line" smooth="yes"/>
      <point x="571" y="814"/>
      <point x="523" y="746" type="qcurve" smooth="yes"/>
      <point x="472" y="676" type="line"/>
      <point x="523" y="606" type="line" smooth="yes"/>
      <point x="571" y="538"/>
      <point x="571" y="454" type="qcurve" smooth="yes"/>
      <point x="571" y="-168" type="line" smooth="yes"/>
      <point x="571" y="-205"/>
      <point x="624" y="-258"/>
      <point x="661" y="-258" type="qcurve" smooth="yes"/>
      <point x="777" y="-258" type="line"/>
      <point x="777" y="-431" type="line"/>
    </contour>
  </outline>
</glyph>
<glyph name="bar" format="2">
  <advance width="543"/>
  <unicode hex="007C"/>
  <outline>
    <contour>
      <point x="180" y="0" type="line"/>
      <point x="180" y="1440" type="line"/>
      <point x="363" y="1440" type="line"/>
      <point x="363" y="0" type="line"/>
    </contour>
  </outline>
</glyph>
<glyph name="braceright" format="2">
  <advance width="862"/>
  <unicode hex="007D"/>
  <outline>
    <contour>
      <point x="85" y="-431" type="line"/>
      <point x="85" y="-258" type="line"/>
      <point x="201" y="-258" type="line" smooth="yes"/>
      <point x="226" y="-258"/>
      <point x="247" y="-249"/>
      <point x="265" y="-232" type="curve"/>
      <point x="282" y="-214"/>
      <point x="291" y="-193"/>
      <point x="291" y="-168" type="curve" smooth="yes"/>
      <point x="291" y="454" type="line" smooth="yes"/>
      <point x="291" y="510"/>
      <point x="307" y="561"/>
      <point x="339" y="606" type="curve" smooth="yes"/>
      <point x="390" y="676" type="line"/>
      <point x="339" y="746" type="line" smooth="yes"/>
      <point x="307" y="791"/>
      <point x="291" y="842"/>
      <point x="291" y="897" type="curve" smooth="yes"/>
      <point x="291" y="1518" type="line" smooth="yes"/>
      <point x="291" y="1543"/>
      <point x="282" y="1565"/>
      <point x="265" y="1583" type="curve"/>
      <point x="247" y="1600"/>
      <point x="226" y="1609"/>
      <point x="201" y="1609" type="curve" smooth="yes"/>
      <point x="85" y="1609" type="line"/>
      <point x="85" y="1783" type="line"/>
      <point x="211" y="1783" type="line" smooth="yes"/>
      <point x="287" y="1783"/>
      <point x="348" y="1760"/>
      <point x="395" y="1713" type="curve" smooth="yes"/>
      <point x="442" y="1666"/>
      <point x="465" y="1604"/>
      <point x="465" y="1529" type="curve" smooth="yes"/>
      <point x="465" y="897" type="line" smooth="yes"/>
      <point x="465" y="880"/>
      <point x="470" y="863"/>
      <point x="481" y="846" type="curve"/>
      <point x="567" y="725" type="line" smooth="yes"/>
      <point x="587" y="696"/>
      <point x="587" y="656"/>
      <point x="567" y="627" type="curve" smooth="yes"/>
      <point x="481" y="505" type="line" smooth="yes"/>
      <point x="470" y="490"/>
      <point x="465" y="473"/>
      <point x="465" y="454" type="curve" smooth="yes"/>
      <point x="465" y="-178" type="line" smooth="yes"/>
      <point x="465" y="-253"/>
      <point x="442" y="-314"/>
      <point x="395" y="-361" type="curve" smooth="yes"/>
      <point x="348" y="-408"/>
      <point x="287" y="-431"/>
      <point x="211" y="-431" type="curve" smooth="yes"/>
    </contour>
  </outline>
</glyph>
<glyph name="asciitilde" format="2">
  <advance width="1366"/>
  <unicode hex="007E"/>
  <outline>
    <contour>
      <point x="903" y="444" type="curve" smooth="yes"/>
      <point x="820" y="444"/>
      <point x="742" y="486"/>
      <point x="671" y="531" type="curve" smooth="yes"/>
      <point x="635" y="554"/>
      <point x="601" y="574"/>
      <point x="569" y="592" type="curve" smooth="yes"/>
      <point x="537" y="609"/>
      <point x="507" y="618"/>
      <point x="479" y="618" type="curve" smooth="yes"/>
      <point x="445" y="618"/>
      <point x="423" y="603"/>
      <point x="412" y="574" type="curve" smooth="yes"/>
      <point x="401" y="544"/>
      <point x="402" y="510"/>
      <point x="413" y="473" type="curve"/>
      <point x="241" y="473" type="line"/>
      <point x="225" y="536"/>
      <point x="223" y="594"/>
      <point x="236" y="646" type="curve" smooth="yes"/>
      <point x="260" y="749"/>
      <point x="337" y="815"/>
      <point x="461" y="815" type="curve" smooth="yes"/>
      <point x="544" y="815"/>
      <point x="623" y="775"/>
      <point x="695" y="728" type="curve" smooth="yes"/>
      <point x="767" y="681"/>
      <point x="830" y="641"/>
      <point x="887" y="641" type="curve" smooth="yes"/>
      <point x="918" y="641"/>
      <point x="940" y="656"/>
      <point x="952" y="685" type="curve" smooth="yes"/>
      <point x="964" y="714"/>
      <point x="964" y="748"/>
      <point x="952" y="789" type="curve"/>
      <point x="1125" y="789" type="line"/>
      <point x="1140" y="726"/>
      <point x="1142" y="668"/>
      <point x="1130" y="616" type="curve" smooth="yes"/>
      <point x="1106" y="512"/>
      <point x="1030" y="444"/>
    </contour>
  </outline>
</glyph>
<glyph name="exclamdown" format="2">
  <advance width="663"/>
  <unicode hex="00A1"/>
  <outline>
    <contour>
      <point x="332" y="1094" type="curve" smooth="yes"/>
      <point x="366" y="1094"/>
      <point x="394" y="1083"/>
      <point x="417" y="1060" type="curve" smooth="yes"/>
      <point x="439" y="1037"/>
      <point x="450" y="1010"/>
      <point x="450" y="977" type="curve" smooth="yes"/>
      <point x="450" y="943"/>
      <point x="439" y="915"/>
      <point x="417" y="893" type="curve" smooth="yes"/>
      <point x="394" y="870"/>
      <point x="366" y="859"/>
      <point x="332" y="859" type="curve" smooth="yes"/>
      <point x="298" y="859"/>
      <point x="270" y="870"/>
      <point x="247" y="893" type="curve" smooth="yes"/>
      <point x="224" y="915"/>
      <point x="213" y="943"/>
      <point x="213" y="977" type="curve" smooth="yes"/>
      <point x="213" y="1010"/>
      <point x="224" y="1037"/>
      <point x="247" y="1060" type="curve" smooth="yes"/>
      <point x="270" y="1083"/>
      <point x="298" y="1094"/>
    </contour>
    <contour>
      <point x="408" y="688" type="line"/>
      <point x="438" y="-360" type="line"/>
      <point x="225" y="-360" type="line"/>
      <point x="255" y="688" type="line"/>
    </contour>
  </outline>
</glyph>
<glyph name="cent" format="2">
  <advance width="1119"/>
  <unicode hex="00A2"/>
  <outline>
    <contour>
      <point x="529" y="-59" type="line"/>
      <point x="529" y="124" type="line"/>
      <point x="433" y="134"/>
      <point x="352" y="164"/>
      <point x="286" y="214" type="curve" smooth="yes"/>
      <point x="153" y="316"/>
      <point x="82" y="483"/>
      <point x="80" y="690" type="curve"/>
      <point x="81" y="795"/>
      <point x="99" y="888"/>
      <point x="135" y="970" type="curve" smooth="yes"/>
      <point x="205" y="1133"/>
      <point x="339" y="1236"/>
      <point x="529" y="1255" type="curve"/>
      <point x="529" y="1440" type="line"/>
      <point x="672" y="1440" type="line"/>
      <point x="672" y="1254" type="line"/>
      <point x="765" y="1242"/>
      <point x="846" y="1210"/>
      <point x="914" y="1157" type="curve" smooth="yes"/>
      <point x="981" y="1103"/>
      <point x="1028" y="1034"/>
      <point x="1054" y="949" type="curve"/>
      <point x="884" y="897" type="line"/>
      <point x="861" y="960"/>
      <point x="823" y="1010"/>
      <point x="772" y="1044" type="curve" smooth="yes"/>
      <point x="720" y="1079"/>
      <point x="660" y="1097"/>
      <point x="594" y="1097" type="curve" smooth="yes"/>
      <point x="518" y="1097"/>
      <point x="457" y="1079"/>
      <point x="408" y="1045" type="curve" smooth="yes"/>
      <point x="310" y="975"/>
      <point x="264" y="848"/>
      <point x="262" y="690" type="curve"/>
      <point x="263" y="568"/>
      <point x="292" y="470"/>
      <point x="347" y="395" type="curve" smooth="yes"/>
      <point x="402" y="320"/>
      <point x="484" y="283"/>
      <point x="594" y="283" type="curve" smooth="yes"/>
      <point x="736" y="283"/>
      <point x="831" y="350"/>
      <point x="880" y="474" type="curve"/>
      <point x="1054" y="428" type="line"/>
      <point x="985" y="253"/>
      <point x="853" y="149"/>
      <point x="672" y="126" type="curve"/>
      <point x="672" y="-59" type="line"/>
    </contour>
  </outline>
</glyph>
<glyph name="sterling" format="2">
  <advance width="1262"/>
  <unicode hex="00A3"/>
  <outline>
    <contour>
      <point x="373" y="126" type="line"/>
      <point x="441" y="185"/>
      <point x="462" y="277"/>
      <point x="462" y="364" type="curve" smooth="yes"/>
      <point x="462" y="597"/>
      <point x="323" y="805"/>
      <point x="323" y="1034" type="curve" smooth="yes"/>
      <point x="323" y="1223"/>
      <point x="471" y="1305"/>
      <point x="642" y="1305" type="curve" smooth="yes"/>
      <point x="823" y="1305"/>
      <point x="980" y="1202"/>
      <point x="1010" y="1016" type="curve"/>
      <point x="1192" y="1048" type="line"/>
      <point x="1143" y="1319"/>
      <point x="918" y="1469"/>
      <point x="651" y="1469" type="curve" smooth="yes"/>
      <point x="368" y="1469"/>
      <point x="141" y="1338"/>
      <point x="141" y="1031" type="curve" smooth="yes"/>
      <point x="141" y="798"/>
      <point x="284" y="591"/>
      <point x="284" y="371" type="curve" smooth="yes"/>
      <point x="284" y="283"/>
      <point x="254" y="212"/>
      <point x="178" y="163" type="curve"/>
    </contour>
    <contour>
      <point x="69" y="0" type="line"/>
      <point x="1157" y="0" type="line"/>
      <point x="1157" y="163" type="line"/>
      <point x="69" y="163" type="line"/>
    </contour>
    <contour>
      <point x="77" y="628" type="line"/>
      <point x="934" y="628" type="line"/>
      <point x="934" y="791" type="line"/>
      <point x="77" y="791" type="line"/>
    </contour>
  </outline>
</glyph>
<glyph name="currency" format="2">
  <advance width="1305"/>
  <unicode hex="00A4"/>
  <outline>
    <contour>
      <point x="652" y="196" type="curve" smooth="yes"/>
      <point x="508" y="196"/>
      <point x="378" y="254"/>
      <point x="282" y="351" type="curve" smooth="yes"/>
      <point x="186" y="447"/>
      <point x="128" y="577"/>
      <point x="128" y="722" type="curve" smooth="yes"/>
      <point x="128" y="866"/>
      <point x="186" y="996"/>
      <point x="282" y="1092" type="curve" smooth="yes"/>
      <point x="378" y="1188"/>
      <point x="508" y="1246"/>
      <point x="652" y="1246" type="curve" smooth="yes"/>
      <point x="797" y="1246"/>
      <point x="927" y="1188"/>
      <point x="1024" y="1092" type="curve" smooth="yes"/>
      <point x="1120" y="996"/>
      <point x="1178" y="866"/>
      <point x="1178" y="722" type="curve" smooth="yes"/>
      <point x="1178" y="577"/>
      <point x="1120" y="447"/>
      <point x="1024" y="351" type="curve" smooth="yes"/>
      <point x="927" y="254"/>
      <point x="797" y="196"/>
    </contour>
    <contour>
      <point x="183" y="128" type="line"/>
      <point x="60" y="252" type="line"/>
      <point x="285" y="476" type="line"/>
      <point x="409" y="353" type="line"/>
    </contour>
    <contour>
      <point x="286" y="963" type="line"/>
      <point x="60" y="1188" type="line"/>
      <point x="183" y="1312" type="line"/>
      <point x="408" y="1087" type="line"/>
    </contour>
    <contour>
      <point x="1122" y="128" type="line"/>
      <point x="897" y="353" type="line"/>
      <point x="1020" y="476" type="line"/>
      <point x="1245" y="252" type="line"/>
    </contour>
    <contour>
      <point x="652" y="356" type="curve" smooth="yes"/>
      <point x="719" y="356"/>
      <point x="781" y="373"/>
      <point x="836" y="406" type="curve" smooth="yes"/>
      <point x="891" y="439"/>
      <point x="936" y="484"/>
      <point x="969" y="539" type="curve" smooth="yes"/>
      <point x="1002" y="594"/>
      <point x="1018" y="655"/>
      <point x="1018" y="720" type="curve" smooth="yes"/>
      <point x="1018" y="787"/>
      <point x="1001" y="849"/>
      <point x="968" y="904" type="curve" smooth="yes"/>
      <point x="934" y="959"/>
      <point x="889" y="1003"/>
      <point x="834" y="1036" type="curve" smooth="yes"/>
      <point x="779" y="1069"/>
      <point x="718" y="1085"/>
      <point x="652" y="1085" type="curve" smooth="yes"/>
      <point x="585" y="1085"/>
      <point x="524" y="1069"/>
      <point x="469" y="1036" type="curve" smooth="yes"/>
      <point x="414" y="1003"/>
      <point x="370" y="959"/>
      <point x="337" y="904" type="curve" smooth="yes"/>
      <point x="304" y="849"/>
      <point x="288" y="787"/>
      <point x="288" y="720" type="curve" smooth="yes"/>
      <point x="288" y="655"/>
      <point x="304" y="594"/>
      <point x="337" y="539" type="curve" smooth="yes"/>
      <point x="370" y="484"/>
      <point x="414" y="439"/>
      <point x="469" y="406" type="curve" smooth="yes"/>
      <point x="524" y="373"/>
      <point x="585" y="356"/>
    </contour>
    <contour>
      <point x="1020" y="964" type="line"/>
      <point x="897" y="1087" type="line"/>
      <point x="1122" y="1312" type="line"/>
      <point x="1245" y="1188" type="line"/>
    </contour>
  </outline>
</glyph>
<glyph name="yen" format="2">
  <advance width="1142"/>
  <unicode hex="00A5"/>
  <outline>
    <contour>
      <point x="183" y="519" type="line"/>
      <point x="183" y="661" type="line"/>
      <point x="959" y="661" type="line"/>
      <point x="959" y="519" type="line"/>
    </contour>
    <contour>
      <point x="183" y="218" type="line"/>
      <point x="183" y="361" type="line"/>
      <point x="959" y="361" type="line"/>
      <point x="959" y="218" type="line"/>
    </contour>
    <contour>
      <point x="485" y="0" type="line"/>
      <point x="485" y="600" type="line"/>
      <point x="0" y="1440" type="line"/>
      <point x="200" y="1440" type="line"/>
      <point x="571" y="797" type="line"/>
      <point x="942" y="1440" type="line"/>
      <point x="1142" y="1440" type="line"/>
      <point x="658" y="600" type="line"/>
      <point x="658" y="0" type="line"/>
    </contour>
  </outline>
</glyph>
<glyph name="brokenbar" format="2">
  <advance width="532"/>
  <unicode hex="00A6"/>
  <outline>
    <contour>
      <point x="180" y="681" type="line"/>
      <point x="180" y="1440" type="line"/>
      <point x="352" y="1440" type="line"/>
      <point x="352" y="681" type="line"/>
    </contour>
    <contour>
      <point x="180" y="-338" type="line"/>
      <point x="180" y="421" type="line"/>
      <point x="352" y="421" type="line"/>
      <point x="352" y="-338" type="line"/>
    </contour>
  </outline>
</glyph>
<glyph name="section" format="2">
  <advance width="1063"/>
  <unicode hex="00A7"/>
  <outline>
    <contour>
      <point x="551" y="-298" type="curve" smooth="yes"/>
      <point x="482" y="-298"/>
      <point x="416" y="-287"/>
      <point x="354" y="-265" type="curve" smooth="yes"/>
      <point x="230" y="-220"/>
      <point x="138" y="-126"/>
      <point x="109" y="25" type="curve"/>
      <point x="296" y="55" type="line"/>
      <point x="307" y="11"/>
      <point x="327" y="-25"/>
      <point x="355" y="-53" type="curve" smooth="yes"/>
      <point x="411" y="-109"/>
      <point x="489" y="-135"/>
      <point x="562" y="-135" type="curve" smooth="yes"/>
      <point x="599" y="-135"/>
      <point x="633" y="-129"/>
      <point x="665" y="-116" type="curve" smooth="yes"/>
      <point x="729" y="-91"/>
      <point x="773" y="-42"/>
      <point x="773" y="33" type="curve" smooth="yes"/>
      <point x="773" y="69"/>
      <point x="763" y="97"/>
      <point x="742" y="117" type="curve" smooth="yes"/>
      <point x="700" y="157"/>
      <point x="611" y="182"/>
      <point x="470" y="219" type="curve" smooth="yes"/>
      <point x="392" y="240"/>
      <point x="325" y="262"/>
      <point x="269" y="287" type="curve" smooth="yes"/>
      <point x="212" y="311"/>
      <point x="169" y="341"/>
      <point x="139" y="377" type="curve" smooth="yes"/>
      <point x="109" y="413"/>
      <point x="94" y="459"/>
      <point x="94" y="514" type="curve" smooth="yes"/>
      <point x="94" y="579"/>
      <point x="113" y="633"/>
      <point x="152" y="675" type="curve" smooth="yes"/>
      <point x="191" y="717"/>
      <point x="240" y="747"/>
      <point x="299" y="766" type="curve" smooth="yes"/>
      <point x="358" y="784"/>
      <point x="418" y="791"/>
      <point x="479" y="786" type="curve"/>
      <point x="490" y="719" type="line"/>
      <point x="427" y="701"/>
      <point x="376" y="677"/>
      <point x="337" y="648" type="curve" smooth="yes"/>
      <point x="298" y="618"/>
      <point x="278" y="581"/>
      <point x="278" y="537" type="curve" smooth="yes"/>
      <point x="278" y="501"/>
      <point x="291" y="473"/>
      <point x="317" y="453" type="curve" smooth="yes"/>
      <point x="369" y="413"/>
      <point x="465" y="391"/>
      <point x="586" y="359" type="curve" smooth="yes"/>
      <point x="663" y="338"/>
      <point x="730" y="316"/>
      <point x="787" y="292" type="curve" smooth="yes"/>
      <point x="843" y="267"/>
      <point x="886" y="236"/>
      <point x="917" y="197" type="curve" smooth="yes"/>
      <point x="947" y="158"/>
      <point x="962" y="106"/>
      <point x="962" y="41" type="curve" smooth="yes"/>
      <point x="962" y="-33"/>
      <point x="944" y="-95"/>
      <point x="908" y="-145" type="curve" smooth="yes"/>
      <point x="835" y="-245"/>
      <point x="706" y="-298"/>
    </contour>
    <contour>
      <point x="612" y="254" type="curve"/>
      <point x="609" y="323" type="line"/>
      <point x="640" y="327"/>
      <point x="670" y="337"/>
      <point x="700" y="353" type="curve" smooth="yes"/>
      <point x="760" y="384"/>
      <point x="802" y="437"/>
      <point x="802" y="512" type="curve" smooth="yes"/>
      <point x="802" y="548"/>
      <point x="792" y="576"/>
      <point x="771" y="596" type="curve" smooth="yes"/>
      <point x="729" y="636"/>
      <point x="640" y="661"/>
      <point x="500" y="698" type="curve" smooth="yes"/>
      <point x="422" y="719"/>
      <point x="355" y="741"/>
      <point x="299" y="765" type="curve" smooth="yes"/>
      <point x="242" y="789"/>
      <point x="199" y="820"/>
      <point x="169" y="857" type="curve" smooth="yes"/>
      <point x="139" y="894"/>
      <point x="124" y="943"/>
      <point x="124" y="1003" type="curve" smooth="yes"/>
      <point x="124" y="1075"/>
      <point x="143" y="1135"/>
      <point x="182" y="1182" type="curve" smooth="yes"/>
      <point x="221" y="1229"/>
      <point x="270" y="1264"/>
      <point x="330" y="1287" type="curve" smooth="yes"/>
      <point x="389" y="1310"/>
      <point x="450" y="1321"/>
      <point x="513" y="1321" type="curve" smooth="yes"/>
      <point x="582" y="1321"/>
      <point x="646" y="1308"/>
      <point x="706" y="1283" type="curve" smooth="yes"/>
      <point x="825" y="1232"/>
      <point x="910" y="1136"/>
      <point x="927" y="1004" type="curve"/>
      <point x="740" y="970" type="line"/>
      <point x="732" y="1016"/>
      <point x="716" y="1053"/>
      <point x="693" y="1080" type="curve" smooth="yes"/>
      <point x="669" y="1107"/>
      <point x="641" y="1127"/>
      <point x="608" y="1140" type="curve" smooth="yes"/>
      <point x="575" y="1153"/>
      <point x="540" y="1159"/>
      <point x="504" y="1159" type="curve" smooth="yes"/>
      <point x="469" y="1159"/>
      <point x="436" y="1153"/>
      <point x="406" y="1142" type="curve" smooth="yes"/>
      <point x="346" y="1119"/>
      <point x="307" y="1075"/>
      <point x="307" y="1016" type="curve" smooth="yes"/>
      <point x="307" y="980"/>
      <point x="320" y="952"/>
      <point x="347" y="932" type="curve" smooth="yes"/>
      <point x="400" y="891"/>
      <point x="498" y="869"/>
      <point x="615" y="838" type="curve" smooth="yes"/>
      <point x="692" y="817"/>
      <point x="759" y="794"/>
      <point x="816" y="770" type="curve" smooth="yes"/>
      <point x="872" y="746"/>
      <point x="915" y="715"/>
      <point x="946" y="677" type="curve"/>
      <point x="976" y="638"/>
      <point x="991" y="587"/>
      <point x="991" y="524" type="curve" smooth="yes"/>
      <point x="991" y="457"/>
      <point x="975" y="401"/>
      <point x="942" y="356" type="curve" smooth="yes"/>
      <point x="877" y="267"/>
      <point x="759" y="229"/>
    </contour>
  </outline>
</glyph>
<glyph name="dieresis" format="2">
  <advance width="1200"/>
  <unicode hex="00A8"/>
  <outline>
    <contour>
      <point x="417" y="1245" type="curve" smooth="yes"/>
      <point x="383" y="1245"/>
      <point x="355" y="1256"/>
      <point x="332" y="1279" type="curve" smooth="yes"/>
      <point x="309" y="1302"/>
      <point x="298" y="1330"/>
      <point x="298" y="1363" type="curve" smooth="yes"/>
      <point x="298" y="1396"/>
      <point x="309" y="1424"/>
      <point x="332" y="1447" type="curve" smooth="yes"/>
      <point x="355" y="1470"/>
      <point x="383" y="1481"/>
      <point x="417" y="1481" type="curve" smooth="yes"/>
      <point x="451" y="1481"/>
      <point x="479" y="1470"/>
      <point x="502" y="1447" type="curve" smooth="yes"/>
      <point x="525" y="1424"/>
      <point x="536" y="1396"/>
      <point x="536" y="1363" type="curve" smooth="yes"/>
      <point x="536" y="1330"/>
      <point x="525" y="1302"/>
      <point x="502" y="1279" type="curve" smooth="yes"/>
      <point x="479" y="1256"/>
      <point x="451" y="1245"/>
    </contour>
    <contour>
      <point x="783" y="1245" type="curve" smooth="yes"/>
      <point x="749" y="1245"/>
      <point x="721" y="1256"/>
      <point x="698" y="1279" type="curve" smooth="yes"/>
      <point x="675" y="1302"/>
      <point x="664" y="1330"/>
      <point x="664" y="1363" type="curve" smooth="yes"/>
      <point x="664" y="1396"/>
      <point x="675" y="1424"/>
      <point x="698" y="1447" type="curve" smooth="yes"/>
      <point x="721" y="1470"/>
      <point x="749" y="1481"/>
      <point x="783" y="1481" type="curve" smooth="yes"/>
      <point x="817" y="1481"/>
      <point x="845" y="1470"/>
      <point x="868" y="1447" type="curve" smooth="yes"/>
      <point x="890" y="1424"/>
      <point x="901" y="1396"/>
      <point x="901" y="1363" type="curve" smooth="yes"/>
      <point x="901" y="1330"/>
      <point x="890" y="1302"/>
      <point x="868" y="1279" type="curve" smooth="yes"/>
      <point x="845" y="1256"/>
      <point x="817" y="1245"/>
    </contour>
  </outline>
</glyph>
<glyph name="copyright" format="2">
  <advance width="1651"/>
  <unicode hex="00A9"/>
  <outline>
    <contour>
      <point x="825" y="-71" type="curve" smooth="yes"/>
      <point x="720" y="-71"/>
      <point x="620" y="-51"/>
      <point x="528" y="-11" type="curve" smooth="yes"/>
      <point x="436" y="29"/>
      <point x="354" y="84"/>
      <point x="284" y="154" type="curve" smooth="yes"/>
      <point x="214" y="224"/>
      <point x="159" y="305"/>
      <point x="120" y="397" type="curve" smooth="yes"/>
      <point x="80" y="490"/>
      <point x="60" y="589"/>
      <point x="60" y="695" type="curve" smooth="yes"/>
      <point x="60" y="801"/>
      <point x="80" y="900"/>
      <point x="120" y="993" type="curve" smooth="yes"/>
      <point x="159" y="1085"/>
      <point x="214" y="1166"/>
      <point x="284" y="1236" type="curve" smooth="yes"/>
      <point x="354" y="1306"/>
      <point x="436" y="1361"/>
      <point x="528" y="1401" type="curve" smooth="yes"/>
      <point x="620" y="1440"/>
      <point x="720" y="1460"/>
      <point x="825" y="1460" type="curve" smooth="yes"/>
      <point x="931" y="1460"/>
      <point x="1031" y="1440"/>
      <point x="1123" y="1401" type="curve" smooth="yes"/>
      <point x="1216" y="1361"/>
      <point x="1297" y="1306"/>
      <point x="1367" y="1236" type="curve" smooth="yes"/>
      <point x="1437" y="1166"/>
      <point x="1492" y="1085"/>
      <point x="1532" y="993" type="curve" smooth="yes"/>
      <point x="1571" y="900"/>
      <point x="1591" y="801"/>
      <point x="1591" y="695" type="curve" smooth="yes"/>
      <point x="1591" y="589"/>
      <point x="1571" y="490"/>
      <point x="1532" y="397" type="curve" smooth="yes"/>
      <point x="1492" y="305"/>
      <point x="1437" y="224"/>
      <point x="1367" y="154" type="curve" smooth="yes"/>
      <point x="1297" y="84"/>
      <point x="1216" y="29"/>
      <point x="1123" y="-11" type="curve" smooth="yes"/>
      <point x="1031" y="-51"/>
      <point x="931" y="-71"/>
    </contour>
    <contour>
      <point x="836" y="272" type="curve" smooth="yes"/>
      <point x="712" y="272"/>
      <point x="617" y="313"/>
      <point x="544" y="403" type="curve" smooth="yes"/>
      <point x="509" y="447"/>
      <point x="485" y="494"/>
      <point x="471" y="545" type="curve" smooth="yes"/>
      <point x="458" y="595"/>
      <point x="451" y="645"/>
      <point x="451" y="697" type="curve"/>
      <point x="453" y="804"/>
      <point x="479" y="906"/>
      <point x="544" y="988" type="curve"/>
      <point x="617" y="1077"/>
      <point x="713" y="1120"/>
      <point x="843" y="1120" type="curve" smooth="yes"/>
      <point x="916" y="1120"/>
      <point x="977" y="1107"/>
      <point x="1041" y="1068" type="curve" smooth="yes"/>
      <point x="1107" y="1028"/>
      <point x="1161" y="964"/>
      <point x="1182" y="882" type="curve"/>
      <point x="1043" y="841" type="line"/>
      <point x="1028" y="882"/>
      <point x="1000" y="920"/>
      <point x="963" y="948" type="curve" smooth="yes"/>
      <point x="927" y="976"/>
      <point x="882" y="987"/>
      <point x="836" y="987" type="curve" smooth="yes"/>
      <point x="763" y="987"/>
      <point x="701" y="956"/>
      <point x="658" y="902" type="curve" smooth="yes"/>
      <point x="615" y="847"/>
      <point x="601" y="770"/>
      <point x="601" y="698" type="curve" smooth="yes"/>
      <point x="601" y="620"/>
      <point x="619" y="545"/>
      <point x="658" y="491" type="curve" smooth="yes"/>
      <point x="698" y="435"/>
      <point x="761" y="405"/>
      <point x="837" y="405" type="curve" smooth="yes"/>
      <point x="888" y="405"/>
      <point x="931" y="418"/>
      <point x="965" y="443" type="curve" smooth="yes"/>
      <point x="1001" y="470"/>
      <point x="1023" y="503"/>
      <point x="1040" y="544" type="curve"/>
      <point x="1182" y="508" type="line"/>
      <point x="1154" y="432"/>
      <point x="1107" y="373"/>
      <point x="1054" y="335" type="curve"/>
      <point x="994" y="294"/>
      <point x="928" y="272"/>
    </contour>
    <contour>
      <point x="825" y="95" type="curve" smooth="yes"/>
      <point x="991" y="95"/>
      <point x="1139" y="161"/>
      <point x="1249" y="271" type="curve" smooth="yes"/>
      <point x="1359" y="381"/>
      <point x="1424" y="530"/>
      <point x="1424" y="696" type="curve" smooth="yes"/>
      <point x="1424" y="862"/>
      <point x="1359" y="1010"/>
      <point x="1249" y="1120" type="curve" smooth="yes"/>
      <point x="1139" y="1230"/>
      <point x="991" y="1295"/>
      <point x="825" y="1295" type="curve" smooth="yes"/>
      <point x="659" y="1295"/>
      <point x="510" y="1230"/>
      <point x="400" y="1120" type="curve" smooth="yes"/>
      <point x="290" y="1010"/>
      <point x="224" y="862"/>
      <point x="224" y="696" type="curve" smooth="yes"/>
      <point x="224" y="530"/>
      <point x="290" y="381"/>
      <point x="400" y="271" type="curve" smooth="yes"/>
      <point x="510" y="161"/>
      <point x="659" y="95"/>
    </contour>
  </outline>
</glyph>
<glyph name="ordfeminine" format="2">
  <advance width="784"/>
  <unicode hex="00AA"/>
  <outline>
    <contour>
      <point x="51" y="501" type="line"/>
      <point x="51" y="606" type="line"/>
      <point x="720" y="606" type="line"/>
      <point x="720" y="501" type="line"/>
    </contour>
    <contour>
      <point x="310" y="710" type="curve" smooth="yes"/>
      <point x="152" y="710"/>
      <point x="53" y="792"/>
      <point x="53" y="922" type="curve" smooth="yes"/>
      <point x="53" y="1073"/>
      <point x="173" y="1135"/>
      <point x="363" y="1158" type="curve" smooth="yes"/>
      <point x="574" y="1184" type="line"/>
      <point x="573" y="1216"/>
      <point x="569" y="1244"/>
      <point x="560" y="1267" type="curve" smooth="yes"/>
      <point x="536" y="1325"/>
      <point x="482" y="1353"/>
      <point x="394" y="1353" type="curve" smooth="yes"/>
      <point x="289" y="1353"/>
      <point x="228" y="1314"/>
      <point x="204" y="1233" type="curve"/>
      <point x="84" y="1257" type="line"/>
      <point x="121" y="1395"/>
      <point x="230" y="1470"/>
      <point x="396" y="1470" type="curve" smooth="yes"/>
      <point x="602" y="1470"/>
      <point x="703" y="1371"/>
      <point x="703" y="1167" type="curve" smooth="yes"/>
      <point x="703" y="730" type="line"/>
      <point x="574" y="730" type="line"/>
      <point x="574" y="854" type="line"/>
      <point x="521" y="760"/>
      <point x="433" y="710"/>
    </contour>
    <contour>
      <point x="340" y="822" type="curve" smooth="yes"/>
      <point x="457" y="822"/>
      <point x="541" y="884"/>
      <point x="563" y="979" type="curve"/>
      <point x="569" y="995"/>
      <point x="572" y="1012"/>
      <point x="573" y="1031" type="curve" smooth="yes"/>
      <point x="574" y="1049"/>
      <point x="574" y="1066"/>
      <point x="574" y="1082" type="curve"/>
      <point x="376" y="1058" type="line" smooth="yes"/>
      <point x="238" y="1043"/>
      <point x="181" y="1005"/>
      <point x="181" y="931" type="curve" smooth="yes"/>
      <point x="181" y="859"/>
      <point x="234" y="822"/>
    </contour>
  </outline>
</glyph>
<glyph name="guillemotleft" format="2">
  <advance width="1110"/>
  <unicode hex="00AB"/>
  <outline>
    <contour>
      <point x="877" y="103" type="line"/>
      <point x="528" y="541" type="line"/>
      <point x="877" y="978" type="line"/>
      <point x="981" y="897" type="line"/>
      <point x="697" y="541" type="line"/>
      <point x="981" y="184" type="line"/>
    </contour>
    <contour>
      <point x="508" y="103" type="line"/>
      <point x="160" y="541" type="line"/>
      <point x="508" y="978" type="line"/>
      <point x="612" y="897" type="line"/>
      <point x="328" y="541" type="line"/>
      <point x="612" y="184" type="line"/>
    </contour>
  </outline>
</glyph>
<glyph name="logicalnot" format="2">
  <advance width="1200"/>
  <unicode hex="00AC"/>
  <outline>
    <contour>
      <point x="930" y="383" type="line"/>
      <point x="930" y="625" type="line"/>
      <point x="120" y="625" type="line"/>
      <point x="120" y="776" type="line"/>
      <point x="1080" y="776" type="line"/>
      <point x="1080" y="383" type="line"/>
    </contour>
  </outline>
</glyph>
<glyph name="registered" format="2">
  <advance width="1273"/>
  <unicode hex="00AE"/>
  <outline>
    <contour>
      <point x="636" y="564" type="curve" smooth="yes"/>
      <point x="500" y="564"/>
      <point x="377" y="618"/>
      <point x="286" y="710" type="curve" smooth="yes"/>
      <point x="194" y="801"/>
      <point x="140" y="924"/>
      <point x="140" y="1061" type="curve" smooth="yes"/>
      <point x="140" y="1197"/>
      <point x="194" y="1320"/>
      <point x="286" y="1411" type="curve" smooth="yes"/>
      <point x="377" y="1502"/>
      <point x="500" y="1557"/>
      <point x="636" y="1557" type="curve" smooth="yes"/>
      <point x="773" y="1557"/>
      <point x="896" y="1502"/>
      <point x="988" y="1411" type="curve" smooth="yes"/>
      <point x="1079" y="1320"/>
      <point x="1133" y="1197"/>
      <point x="1133" y="1061" type="curve" smooth="yes"/>
      <point x="1133" y="924"/>
      <point x="1079" y="801"/>
      <point x="988" y="710" type="curve" smooth="yes"/>
      <point x="896" y="618"/>
      <point x="773" y="564"/>
    </contour>
    <contour>
      <point x="638" y="696" type="curve" smooth="yes"/>
      <point x="704" y="696"/>
      <point x="765" y="713"/>
      <point x="820" y="746" type="curve" smooth="yes"/>
      <point x="875" y="779"/>
      <point x="920" y="823"/>
      <point x="953" y="878" type="curve" smooth="yes"/>
      <point x="986" y="933"/>
      <point x="1002" y="994"/>
      <point x="1002" y="1061" type="curve" smooth="yes"/>
      <point x="1002" y="1128"/>
      <point x="986" y="1190"/>
      <point x="953" y="1245" type="curve" smooth="yes"/>
      <point x="920" y="1300"/>
      <point x="875" y="1343"/>
      <point x="820" y="1376" type="curve" smooth="yes"/>
      <point x="765" y="1409"/>
      <point x="704" y="1425"/>
      <point x="638" y="1425" type="curve" smooth="yes"/>
      <point x="570" y="1425"/>
      <point x="509" y="1409"/>
      <point x="454" y="1376" type="curve" smooth="yes"/>
      <point x="399" y="1343"/>
      <point x="355" y="1300"/>
      <point x="322" y="1245" type="curve" smooth="yes"/>
      <point x="289" y="1190"/>
      <point x="272" y="1128"/>
      <point x="272" y="1061" type="curve" smooth="yes"/>
      <point x="272" y="994"/>
      <point x="289" y="933"/>
      <point x="322" y="878" type="curve" smooth="yes"/>
      <point x="355" y="823"/>
      <point x="399" y="779"/>
      <point x="454" y="746" type="curve" smooth="yes"/>
      <point x="509" y="713"/>
      <point x="570" y="696"/>
    </contour>
    <contour>
      <point x="472" y="829" type="line"/>
      <point x="472" y="1297" type="line"/>
      <point x="674" y="1297" type="line" smooth="yes"/>
      <point x="720" y="1297"/>
      <point x="758" y="1283"/>
      <point x="787" y="1254" type="curve" smooth="yes"/>
      <point x="816" y="1225"/>
      <point x="831" y="1188"/>
      <point x="832" y="1144" type="curve"/>
      <point x="832" y="1089"/>
      <point x="802" y="1035"/>
      <point x="747" y="1007" type="curve"/>
      <point x="835" y="829" type="line"/>
      <point x="742" y="829" type="line"/>
      <point x="663" y="992" type="line"/>
      <point x="554" y="992" type="line"/>
      <point x="554" y="829" type="line"/>
    </contour>
    <contour>
      <point x="554" y="1068" type="line"/>
      <point x="675" y="1068" type="line" smooth="yes"/>
      <point x="695" y="1068"/>
      <point x="712" y="1075"/>
      <point x="727" y="1090" type="curve"/>
      <point x="741" y="1105"/>
      <point x="748" y="1123"/>
      <point x="748" y="1144" type="curve" smooth="yes"/>
      <point x="748" y="1167"/>
      <point x="741" y="1186"/>
      <point x="727" y="1200" type="curve"/>
      <point x="713" y="1213"/>
      <point x="696" y="1220"/>
      <point x="675" y="1220" type="curve" smooth="yes"/>
      <point x="554" y="1220" type="line"/>
    </contour>
  </outline>
</glyph>
<glyph name="macron" format="2">
  <advance width="994"/>
  <unicode hex="00AF"/>
  <outline>
    <contour>
      <point x="240" y="1680" type="line"/>
      <point x="240" y="1829" type="line"/>
      <point x="754" y="1829" type="line"/>
      <point x="754" y="1680" type="line"/>
    </contour>
  </outline>
</glyph>
<glyph name="degree" format="2">
  <advance width="900"/>
  <unicode hex="00B0"/>
  <outline>
    <contour>
      <point x="420" y="750" type="curve" smooth="yes"/>
      <point x="354" y="750"/>
      <point x="294" y="766"/>
      <point x="239" y="799" type="curve" smooth="yes"/>
      <point x="130" y="863"/>
      <point x="60" y="977"/>
      <point x="60" y="1110" type="curve" smooth="yes"/>
      <point x="60" y="1175"/>
      <point x="77" y="1235"/>
      <point x="110" y="1290" type="curve" smooth="yes"/>
      <point x="143" y="1345"/>
      <point x="187" y="1388"/>
      <point x="242" y="1421" type="curve" smooth="yes"/>
      <point x="297" y="1454"/>
      <point x="356" y="1470"/>
      <point x="420" y="1470" type="curve" smooth="yes"/>
      <point x="486" y="1470"/>
      <point x="546" y="1454"/>
      <point x="601" y="1422" type="curve" smooth="yes"/>
      <point x="709" y="1357"/>
      <point x="780" y="1243"/>
      <point x="780" y="1110" type="curve" smooth="yes"/>
      <point x="780" y="1043"/>
      <point x="764" y="983"/>
      <point x="731" y="929" type="curve" smooth="yes"/>
      <point x="666" y="820"/>
      <point x="552" y="750"/>
    </contour>
    <contour>
      <point x="420" y="902" type="curve" smooth="yes"/>
      <point x="457" y="902"/>
      <point x="492" y="912"/>
      <point x="524" y="931" type="curve" smooth="yes"/>
      <point x="587" y="969"/>
      <point x="628" y="1035"/>
      <point x="628" y="1110" type="curve" smooth="yes"/>
      <point x="628" y="1147"/>
      <point x="619" y="1182"/>
      <point x="600" y="1214" type="curve" smooth="yes"/>
      <point x="562" y="1277"/>
      <point x="495" y="1318"/>
      <point x="420" y="1318" type="curve" smooth="yes"/>
      <point x="383" y="1318"/>
      <point x="348" y="1309"/>
      <point x="317" y="1290" type="curve" smooth="yes"/>
      <point x="254" y="1252"/>
      <point x="212" y="1185"/>
      <point x="212" y="1110" type="curve" smooth="yes"/>
      <point x="212" y="1073"/>
      <point x="222" y="1038"/>
      <point x="241" y="1007" type="curve" smooth="yes"/>
      <point x="279" y="943"/>
      <point x="345" y="902"/>
    </contour>
  </outline>
</glyph>
<glyph name="plusminus" format="2">
  <advance width="1200"/>
  <unicode hex="00B1"/>
  <outline>
    <contour>
      <point x="529" y="440" type="line"/>
      <point x="529" y="689" type="line"/>
      <point x="120" y="689" type="line"/>
      <point x="120" y="832" type="line"/>
      <point x="529" y="832" type="line"/>
      <point x="529" y="1080" type="line"/>
      <point x="672" y="1080" type="line"/>
      <point x="672" y="832" type="line"/>
      <point x="1080" y="832" type="line"/>
      <point x="1080" y="689" type="line"/>
      <point x="672" y="689" type="line"/>
      <point x="672" y="440" type="line"/>
    </contour>
    <contour>
      <point x="120" y="150" type="line"/>
      <point x="120" y="293" type="line"/>
      <point x="1080" y="293" type="line"/>
      <point x="1080" y="150" type="line"/>
    </contour>
  </outline>
</glyph>
<glyph name="twosuperior" format="2">
  <advance width="836"/>
  <unicode hex="00B2"/>
  <outline>
    <contour>
      <point x="116.144" y="656.848" type="line"/>
      <point x="496.784" y="1007.23" type="line" smooth="yes"/>
      <point x="554.368" y="1059.94"/>
      <point x="606.096" y="1147.78"/>
      <point x="606.096" y="1196.58" type="qcurve" smooth="yes"/>
      <point x="606.096" y="1232.69"/>
      <point x="579.744" y="1288.32"/>
      <point x="532.896" y="1324.43"/>
      <point x="468.48" y="1342.98"/>
      <point x="431.392" y="1342.98" type="qcurve" smooth="yes"/>
      <point x="390.4" y="1342.98"/>
      <point x="323.056" y="1319.55"/>
      <point x="271.328" y="1274.66"/>
      <point x="237.168" y="1211.22"/>
      <point x="230.336" y="1172.18" type="qcurve"/>
      <point x="99.552" y="1196.58" type="line"/>
      <point x="113.216" y="1257.09"/>
      <point x="169.824" y="1355.66"/>
      <point x="255.712" y="1423.01"/>
      <point x="366" y="1459.12"/>
      <point x="430.416" y="1459.12" type="qcurve" smooth="yes"/>
      <point x="494.832" y="1459.12"/>
      <point x="606.096" y="1425.94"/>
      <point x="689.056" y="1360.54"/>
      <point x="734.928" y="1264.9"/>
      <point x="734.928" y="1203.41" type="qcurve" smooth="yes"/>
      <point x="734.928" y="1199.5"/>
      <point x="734.928" y="1195.6" type="qcurve"/>
      <point x="733.952" y="1157.54"/>
      <point x="712.48" y="1086.29"/>
      <point x="676.368" y="1020.9"/>
      <point x="627.568" y="961.36"/>
      <point x="599.264" y="935.008" type="qcurve" smooth="yes"/>
      <point x="296.704" y="656.848" type="line"/>
      <point x="734.928" y="656.848" type="line"/>
      <point x="734.928" y="539.728" type="line"/>
      <point x="116.144" y="539.728" type="line"/>
    </contour>
  </outline>
</glyph>
<glyph name="threesuperior" format="2">
  <advance width="790"/>
  <unicode hex="00B3"/>
  <outline>
    <contour>
      <point x="370" y="519" type="curve" smooth="yes"/>
      <point x="303" y="519"/>
      <point x="242" y="538"/>
      <point x="189" y="576" type="curve" smooth="yes"/>
      <point x="136" y="613"/>
      <point x="99" y="664"/>
      <point x="80" y="729" type="curve"/>
      <point x="204" y="763" type="line"/>
      <point x="229" y="683"/>
      <point x="295" y="642"/>
      <point x="370" y="642" type="curve"/>
      <point x="421" y="643"/>
      <point x="462" y="659"/>
      <point x="493" y="692" type="curve" smooth="yes"/>
      <point x="524" y="725"/>
      <point x="539" y="766"/>
      <point x="539" y="816" type="curve" smooth="yes"/>
      <point x="539" y="867"/>
      <point x="523" y="909"/>
      <point x="492" y="942" type="curve" smooth="yes"/>
      <point x="461" y="975"/>
      <point x="420" y="991"/>
      <point x="369" y="991" type="curve" smooth="yes"/>
      <point x="340" y="991"/>
      <point x="309" y="982"/>
      <point x="282" y="970" type="curve"/>
      <point x="221" y="1070" type="line"/>
      <point x="554" y="1367" type="line"/>
      <point x="573" y="1318" type="line"/>
      <point x="116" y="1318" type="line"/>
      <point x="116" y="1440" type="line"/>
      <point x="658" y="1440" type="line"/>
      <point x="658" y="1317" type="line"/>
      <point x="378" y="1050" type="line"/>
      <point x="375" y="1101" type="line"/>
      <point x="436" y="1104"/>
      <point x="488" y="1093"/>
      <point x="532" y="1068" type="curve" smooth="yes"/>
      <point x="620" y="1019"/>
      <point x="670" y="927"/>
      <point x="670" y="816" type="curve" smooth="yes"/>
      <point x="670" y="759"/>
      <point x="657" y="708"/>
      <point x="631" y="663" type="curve" smooth="yes"/>
      <point x="578" y="574"/>
      <point x="482" y="519"/>
    </contour>
  </outline>
</glyph>
<glyph name="acute" format="2">
  <advance width="1005"/>
  <unicode hex="00B4"/>
  <outline>
    <contour>
      <point x="496" y="1932" type="line"/>
      <point x="667" y="1932" type="line"/>
      <point x="538" y="1606" type="line"/>
      <point x="424" y="1606" type="line"/>
    </contour>
  </outline>
</glyph>
<glyph name="paragraph" format="2">
  <advance width="1331"/>
  <unicode hex="00B6"/>
  <outline>
    <contour>
      <point x="682" y="-282" type="line"/>
      <point x="682" y="530" type="line"/>
      <point x="591" y="530" type="line" smooth="yes"/>
      <point x="578" y="530"/>
      <point x="519" y="533"/>
      <point x="484" y="538" type="qcurve" smooth="yes"/>
      <point x="369" y="555"/>
      <point x="209" y="680"/>
      <point x="127" y="870"/>
      <point x="127" y="985" type="qcurve" smooth="yes"/>
      <point x="127" y="1099"/>
      <point x="208" y="1289"/>
      <point x="367" y="1414"/>
      <point x="484" y="1432" type="qcurve" smooth="yes"/>
      <point x="519" y="1438"/>
      <point x="577" y="1440"/>
      <point x="591" y="1440" type="qcurve" smooth="yes"/>
      <point x="865" y="1440" type="line"/>
      <point x="865" y="-282" type="line"/>
    </contour>
    <contour>
      <point x="1021" y="-282" type="line"/>
      <point x="1021" y="1440" type="line"/>
      <point x="1204" y="1440" type="line"/>
      <point x="1204" y="-282" type="line"/>
    </contour>
  </outline>
</glyph>
<glyph name="periodcentered" format="2">
  <advance width="484"/>
  <unicode hex="00B7"/>
  <outline>
    <contour>
      <point x="245" y="508" type="qcurve" smooth="yes"/>
      <point x="193" y="508"/>
      <point x="120" y="578"/>
      <point x="120" y="630" type="qcurve" smooth="yes"/>
      <point x="120" y="683"/>
      <point x="193" y="752"/>
      <point x="245" y="752" type="qcurve" smooth="yes"/>
      <point x="293" y="752"/>
      <point x="364" y="683"/>
      <point x="364" y="630" type="qcurve" smooth="yes"/>
      <point x="364" y="578"/>
      <point x="293" y="508"/>
    </contour>
  </outline>
</glyph>
<glyph name="cedilla" format="2">
  <advance width="803"/>
  <unicode hex="00B8"/>
  <outline>
    <contour>
      <point x="370" y="-481" type="curve" smooth="yes"/>
      <point x="321" y="-481"/>
      <point x="278" y="-466"/>
      <point x="240" y="-448" type="curve"/>
      <point x="282" y="-336" type="line"/>
      <point x="312" y="-347"/>
      <point x="337" y="-352"/>
      <point x="356" y="-352" type="curve" smooth="yes"/>
      <point x="405" y="-352"/>
      <point x="432" y="-316"/>
      <point x="432" y="-281" type="curve" smooth="yes"/>
      <point x="432" y="-251"/>
      <point x="419" y="-230"/>
      <point x="392" y="-217" type="curve" smooth="yes"/>
      <point x="365" y="-204"/>
      <point x="334" y="-192"/>
      <point x="300" y="-182" type="curve"/>
      <point x="373" y="23" type="line"/>
      <point x="492" y="24" type="line"/>
      <point x="444" y="-109" type="line"/>
      <point x="517" y="-143"/>
      <point x="565" y="-198"/>
      <point x="565" y="-285" type="curve" smooth="yes"/>
      <point x="565" y="-342"/>
      <point x="546" y="-389"/>
      <point x="507" y="-426" type="curve" smooth="yes"/>
      <point x="469" y="-462"/>
      <point x="423" y="-481"/>
    </contour>
  </outline>
</glyph>
<glyph name="onesuperior" format="2">
  <advance width="660"/>
  <unicode hex="00B9"/>
  <outline>
    <contour>
      <point x="289" y="540" type="line"/>
      <point x="289" y="1299" type="line"/>
      <point x="120" y="1196" type="line"/>
      <point x="120" y="1339" type="line"/>
      <point x="289" y="1440" type="line"/>
      <point x="420" y="1440" type="line"/>
      <point x="420" y="540" type="line"/>
    </contour>
  </outline>
</glyph>
<glyph name="ordmasculine" format="2">
  <advance width="828"/>
  <unicode hex="00BA"/>
  <outline>
    <contour>
      <point x="63" y="501" type="line"/>
      <point x="63" y="606" type="line"/>
      <point x="765" y="606" type="line"/>
      <point x="765" y="501" type="line"/>
    </contour>
    <contour>
      <point x="414" y="710" type="curve" smooth="yes"/>
      <point x="184" y="710"/>
      <point x="53" y="874"/>
      <point x="53" y="1091" type="curve" smooth="yes"/>
      <point x="53" y="1300"/>
      <point x="178" y="1470"/>
      <point x="414" y="1470" type="curve" smooth="yes"/>
      <point x="645" y="1470"/>
      <point x="776" y="1307"/>
      <point x="776" y="1091" type="curve" smooth="yes"/>
      <point x="776" y="880"/>
      <point x="652" y="710"/>
    </contour>
    <contour>
      <point x="414" y="833" type="curve" smooth="yes"/>
      <point x="576" y="833"/>
      <point x="639" y="950"/>
      <point x="639" y="1091" type="curve" smooth="yes"/>
      <point x="639" y="1231"/>
      <point x="579" y="1347"/>
      <point x="414" y="1347" type="curve" smooth="yes"/>
      <point x="255" y="1347"/>
      <point x="190" y="1232"/>
      <point x="190" y="1091" type="curve" smooth="yes"/>
      <point x="190" y="953"/>
      <point x="253" y="833"/>
    </contour>
  </outline>
</glyph>
<glyph name="onequarter" format="2">
  <advance width="1994"/>
  <unicode hex="00BC"/>
  <outline>
    <contour>
      <point x="289" y="540" type="line"/>
      <point x="289" y="1299" type="line"/>
      <point x="120" y="1196" type="line"/>
      <point x="120" y="1339" type="line"/>
      <point x="289" y="1440" type="line"/>
      <point x="420" y="1440" type="line"/>
      <point x="420" y="540" type="line"/>
    </contour>
    <contour>
      <point x="1536" y="0" type="line"/>
      <point x="1536" y="158" type="line"/>
      <point x="1127" y="158" type="line"/>
      <point x="1127" y="280" type="line"/>
      <point x="1421" y="900" type="line"/>
      <point x="1568" y="900" type="line"/>
      <point x="1274" y="280" type="line"/>
      <point x="1536" y="280" type="line"/>
      <point x="1536" y="525" type="line"/>
      <point x="1665" y="525" type="line"/>
      <point x="1665" y="280" type="line"/>
      <point x="1754" y="280" type="line"/>
      <point x="1754" y="158" type="line"/>
      <point x="1665" y="158" type="line"/>
      <point x="1665" y="0" type="line"/>
    </contour>
    <contour>
      <point x="436" y="0" type="line"/>
      <point x="320" y="88" type="line"/>
      <point x="1345" y="1447" type="line"/>
      <point x="1461" y="1359" type="line"/>
    </contour>
  </outline>
</glyph>
<glyph name="onehalf" format="2">
  <advance width="1930"/>
  <unicode hex="00BD"/>
  <outline>
    <contour>
      <point x="289" y="540" type="line"/>
      <point x="289" y="1299" type="line"/>
      <point x="120" y="1196" type="line"/>
      <point x="120" y="1339" type="line"/>
      <point x="289" y="1440" type="line"/>
      <point x="420" y="1440" type="line"/>
      <point x="420" y="540" type="line"/>
    </contour>
    <contour>
      <point x="1220" y="0" type="line"/>
      <point x="1221" y="114" type="line"/>
      <point x="1615" y="468" type="line" smooth="yes"/>
      <point x="1662" y="511"/>
      <point x="1697" y="587"/>
      <point x="1697" y="625" type="qcurve" smooth="yes"/>
      <point x="1697" y="699"/>
      <point x="1602" y="799"/>
      <point x="1529" y="799" type="qcurve" smooth="yes"/>
      <point x="1478" y="799"/>
      <point x="1394" y="751"/>
      <point x="1372" y="712" type="qcurve" smooth="yes"/>
      <point x="1357" y="685"/>
      <point x="1352" y="656" type="qcurve"/>
      <point x="1221" y="670" type="line"/>
      <point x="1228" y="730"/>
      <point x="1258" y="780" type="qcurve" smooth="yes"/>
      <point x="1298" y="847"/>
      <point x="1441" y="920"/>
      <point x="1531" y="920" type="qcurve" smooth="yes"/>
      <point x="1616" y="920"/>
      <point x="1751" y="843"/>
      <point x="1830" y="709"/>
      <point x="1830" y="623" type="qcurve" smooth="yes"/>
      <point x="1830" y="562"/>
      <point x="1797" y="476"/>
      <point x="1732" y="403"/>
      <point x="1684" y="360" type="qcurve" smooth="yes"/>
      <point x="1366" y="74" type="line"/>
      <point x="1347" y="122" type="line"/>
      <point x="1830" y="122" type="line"/>
      <point x="1830" y="0" type="line"/>
    </contour>
    <contour>
      <point x="436" y="0" type="line"/>
      <point x="320" y="88" type="line"/>
      <point x="1345" y="1447" type="line"/>
      <point x="1461" y="1359" type="line"/>
    </contour>
  </outline>
</glyph>
<glyph name="threequarters" format="2">
  <advance width="1983"/>
  <unicode hex="00BE"/>
  <outline>
    <contour>
      <point x="551" y="0" type="line"/>
      <point x="440" y="85" type="line"/>
      <point x="1473" y="1446" type="line"/>
      <point x="1583" y="1360" type="line"/>
    </contour>
    <contour>
      <point x="743" y="812" type="qcurve" smooth="yes"/>
      <point x="743" y="744"/>
      <point x="695" y="635"/>
      <point x="609" y="559"/>
      <point x="489" y="518"/>
      <point x="418" y="518" type="qcurve" smooth="yes"/>
      <point x="353" y="518"/>
      <point x="239" y="550"/>
      <point x="148" y="618"/>
      <point x="85" y="721"/>
      <point x="70" y="793" type="qcurve"/>
      <point x="196" y="812" type="line"/>
      <point x="217" y="726"/>
      <point x="321" y="634"/>
      <point x="420" y="634" type="qcurve" smooth="yes"/>
      <point x="463" y="634"/>
      <point x="536" y="662"/>
      <point x="586" y="709"/>
      <point x="614" y="772"/>
      <point x="614" y="808" type="qcurve" smooth="yes"/>
      <point x="614" y="889"/>
      <point x="512" y="972"/>
      <point x="418" y="972" type="qcurve" smooth="yes"/>
      <point x="322" y="972" type="line"/>
      <point x="322" y="1073" type="line"/>
      <point x="557" y="1324" type="line"/>
      <point x="121" y="1324" type="line"/>
      <point x="121" y="1440" type="line"/>
      <point x="708" y="1440" type="line"/>
      <point x="708" y="1324" type="line"/>
      <point x="471" y="1071" type="line"/>
      <point x="591" y="1062"/>
      <point x="661" y="1007" type="qcurve" smooth="yes"/>
      <point x="743" y="943"/>
    </contour>
    <contour>
      <point x="1652" y="0" type="line"/>
      <point x="1652" y="168" type="line"/>
      <point x="1199" y="168" type="line"/>
      <point x="1199" y="283" type="line"/>
      <point x="1495" y="900" type="line"/>
      <point x="1631" y="900" type="line"/>
      <point x="1334" y="283" type="line"/>
      <point x="1652" y="283" type="line"/>
      <point x="1652" y="581" type="line"/>
      <point x="1775" y="581" type="line"/>
      <point x="1775" y="283" type="line"/>
      <point x="1863" y="283" type="line"/>
      <point x="1863" y="168" type="line"/>
      <point x="1775" y="168" type="line"/>
      <point x="1775" y="0" type="line"/>
    </contour>
  </outline>
</glyph>
<glyph name="questiondown" format="2">
  <advance width="1070"/>
  <unicode hex="00BF"/>
  <outline>
    <contour>
      <point x="0" y="76" type="curve" smooth="yes"/>
      <point x="0" y="217"/>
      <point x="47" y="325"/>
      <point x="135" y="400" type="curve" smooth="yes"/>
      <point x="222" y="475"/>
      <point x="351" y="513"/>
      <point x="512" y="513" type="curve" smooth="yes"/>
      <point x="598" y="513" type="line"/>
      <point x="598" y="339" type="line"/>
      <point x="515" y="339" type="line" smooth="yes"/>
      <point x="307" y="339"/>
      <point x="191" y="246"/>
      <point x="191" y="70" type="curve" smooth="yes"/>
      <point x="191" y="-11"/>
      <point x="223" y="-82"/>
      <point x="279" y="-134" type="curve" smooth="yes"/>
      <point x="335" y="-186"/>
      <point x="416" y="-217"/>
      <point x="512" y="-217" type="curve" smooth="yes"/>
      <point x="620" y="-217"/>
      <point x="700" y="-192"/>
      <point x="759" y="-144" type="curve" smooth="yes"/>
      <point x="818" y="-95"/>
      <point x="856" y="-24"/>
      <point x="880" y="71" type="curve"/>
      <point x="1067" y="41" type="line"/>
      <point x="1036" y="-108"/>
      <point x="967" y="-215"/>
      <point x="872" y="-286" type="curve" smooth="yes"/>
      <point x="777" y="-357"/>
      <point x="654" y="-390"/>
      <point x="515" y="-390" type="curve" smooth="yes"/>
      <point x="364" y="-390"/>
      <point x="236" y="-345"/>
      <point x="145" y="-265" type="curve" smooth="yes"/>
      <point x="53" y="-184"/>
      <point x="0" y="-67"/>
    </contour>
    <contour>
      <point x="598" y="690" type="line"/>
      <point x="598" y="339" type="line"/>
      <point x="426" y="339" type="line"/>
      <point x="426" y="690" type="line"/>
    </contour>
    <contour>
      <point x="512" y="1094" type="curve" smooth="yes"/>
      <point x="546" y="1094"/>
      <point x="574" y="1083"/>
      <point x="597" y="1060" type="curve" smooth="yes"/>
      <point x="620" y="1037"/>
      <point x="631" y="1010"/>
      <point x="631" y="977" type="curve" smooth="yes"/>
      <point x="631" y="943"/>
      <point x="620" y="915"/>
      <point x="597" y="893" type="curve" smooth="yes"/>
      <point x="574" y="870"/>
      <point x="546" y="859"/>
      <point x="512" y="859" type="curve" smooth="yes"/>
      <point x="478" y="859"/>
      <point x="450" y="870"/>
      <point x="428" y="893" type="curve"/>
      <point x="405" y="915"/>
      <point x="394" y="943"/>
      <point x="394" y="977" type="curve" smooth="yes"/>
      <point x="394" y="1010"/>
      <point x="405" y="1037"/>
      <point x="428" y="1060" type="curve" smooth="yes"/>
      <point x="450" y="1083"/>
      <point x="478" y="1094"/>
    </contour>
  </outline>
</glyph>
<glyph name="Aacute" format="2">
  <advance width="1287"/>
  <unicode hex="00C1"/>
  <outline>
    <contour>
      <point x="688" y="1932" type="line"/>
      <point x="860" y="1932" type="line"/>
      <point x="731" y="1606" type="line"/>
      <point x="616" y="1606" type="line"/>
    </contour>
    <contour>
      <point x="40" y="0" type="line"/>
      <point x="525" y="1440" type="line"/>
      <point x="762" y="1440" type="line"/>
      <point x="1247" y="0" type="line"/>
      <point x="1068" y="0" type="line"/>
      <point x="613" y="1340" type="line"/>
      <point x="670" y="1340" type="line"/>
      <point x="219" y="0" type="line"/>
    </contour>
    <contour>
      <point x="270" y="339" type="line"/>
      <point x="270" y="501" type="line"/>
      <point x="1017" y="501" type="line"/>
      <point x="1017" y="339" type="line"/>
    </contour>
  </outline>
</glyph>
<glyph name="Acircumflex" format="2">
  <advance width="1287"/>
  <unicode hex="00C2"/>
  <outline>
    <contour>
      <point x="325" y="1606" type="line"/>
      <point x="566" y="1888" type="line"/>
      <point x="719" y="1888" type="line"/>
      <point x="961" y="1606" type="line"/>
      <point x="791" y="1606" type="line"/>
      <point x="643" y="1781" type="line"/>
      <point x="495" y="1606" type="line"/>
    </contour>
    <contour>
      <point x="40" y="0" type="line"/>
      <point x="525" y="1440" type="line"/>
      <point x="762" y="1440" type="line"/>
      <point x="1247" y="0" type="line"/>
      <point x="1068" y="0" type="line"/>
      <point x="613" y="1340" type="line"/>
      <point x="670" y="1340" type="line"/>
      <point x="219" y="0" type="line"/>
    </contour>
    <contour>
      <point x="270" y="339" type="line"/>
      <point x="270" y="501" type="line"/>
      <point x="1017" y="501" type="line"/>
      <point x="1017" y="339" type="line"/>
    </contour>
  </outline>
</glyph>
<glyph name="Atilde" format="2">
  <advance width="1296"/>
  <unicode hex="00C3"/>
  <outline>
    <contour>
      <point x="805" y="1657" type="curve" smooth="yes"/>
      <point x="746" y="1657"/>
      <point x="691" y="1687"/>
      <point x="640" y="1719" type="curve" smooth="yes"/>
      <point x="588" y="1751"/>
      <point x="543" y="1781"/>
      <point x="504" y="1781" type="curve" smooth="yes"/>
      <point x="480" y="1781"/>
      <point x="464" y="1771"/>
      <point x="457" y="1750" type="curve" smooth="yes"/>
      <point x="450" y="1729"/>
      <point x="450" y="1705"/>
      <point x="457" y="1678" type="curve"/>
      <point x="335" y="1678" type="line"/>
      <point x="318" y="1745"/>
      <point x="324" y="1803"/>
      <point x="351" y="1850" type="curve" smooth="yes"/>
      <point x="378" y="1897"/>
      <point x="425" y="1921"/>
      <point x="491" y="1921" type="curve" smooth="yes"/>
      <point x="551" y="1921"/>
      <point x="606" y="1891"/>
      <point x="657" y="1859" type="curve" smooth="yes"/>
      <point x="708" y="1827"/>
      <point x="754" y="1797"/>
      <point x="793" y="1797" type="curve" smooth="yes"/>
      <point x="838" y="1797"/>
      <point x="857" y="1845"/>
      <point x="840" y="1902" type="curve"/>
      <point x="962" y="1902" type="line"/>
      <point x="979" y="1835"/>
      <point x="973" y="1778"/>
      <point x="946" y="1730" type="curve" smooth="yes"/>
      <point x="919" y="1681"/>
      <point x="872" y="1657"/>
    </contour>
    <contour>
      <point x="40" y="0" type="line"/>
      <point x="520" y="1440" type="line"/>
      <point x="776" y="1440" type="line"/>
      <point x="1256" y="0" type="line"/>
      <point x="1066" y="0" type="line"/>
      <point x="618" y="1333" type="line"/>
      <point x="674" y="1333" type="line"/>
      <point x="230" y="0" type="line"/>
    </contour>
    <contour>
      <point x="274" y="335" type="line"/>
      <point x="274" y="507" type="line"/>
      <point x="1022" y="507" type="line"/>
      <point x="1022" y="335" type="line"/>
    </contour>
  </outline>
</glyph>
<glyph name="Aring" format="2">
  <advance width="1296"/>
  <unicode hex="00C5"/>
  <outline>
    <contour>
      <point x="649" y="1555" type="curve" smooth="yes"/>
      <point x="606" y="1555"/>
      <point x="567" y="1566"/>
      <point x="532" y="1587" type="curve" smooth="yes"/>
      <point x="460" y="1629"/>
      <point x="415" y="1702"/>
      <point x="415" y="1789" type="curve" smooth="yes"/>
      <point x="415" y="1832"/>
      <point x="426" y="1871"/>
      <point x="447" y="1906" type="curve" smooth="yes"/>
      <point x="489" y="1977"/>
      <point x="564" y="2023"/>
      <point x="649" y="2023" type="curve" smooth="yes"/>
      <point x="692" y="2023"/>
      <point x="732" y="2012"/>
      <point x="767" y="1991" type="curve" smooth="yes"/>
      <point x="838" y="1948"/>
      <point x="883" y="1874"/>
      <point x="883" y="1789" type="curve" smooth="yes"/>
      <point x="883" y="1746"/>
      <point x="873" y="1706"/>
      <point x="852" y="1671" type="curve" smooth="yes"/>
      <point x="810" y="1600"/>
      <point x="736" y="1555"/>
    </contour>
    <contour>
      <point x="649" y="1679" type="curve" smooth="yes"/>
      <point x="680" y="1679"/>
      <point x="706" y="1690"/>
      <point x="727" y="1712" type="curve" smooth="yes"/>
      <point x="748" y="1733"/>
      <point x="759" y="1759"/>
      <point x="759" y="1789" type="curve" smooth="yes"/>
      <point x="759" y="1820"/>
      <point x="748" y="1846"/>
      <point x="727" y="1867" type="curve" smooth="yes"/>
      <point x="706" y="1888"/>
      <point x="680" y="1899"/>
      <point x="649" y="1899" type="curve" smooth="yes"/>
      <point x="619" y="1899"/>
      <point x="593" y="1888"/>
      <point x="572" y="1867" type="curve" smooth="yes"/>
      <point x="550" y="1846"/>
      <point x="539" y="1820"/>
      <point x="539" y="1789" type="curve" smooth="yes"/>
      <point x="539" y="1759"/>
      <point x="550" y="1733"/>
      <point x="572" y="1712" type="curve"/>
      <point x="593" y="1690"/>
      <point x="619" y="1679"/>
    </contour>
    <contour>
      <point x="40" y="0" type="line"/>
      <point x="520" y="1440" type="line"/>
      <point x="776" y="1440" type="line"/>
      <point x="1256" y="0" type="line"/>
      <point x="1066" y="0" type="line"/>
      <point x="618" y="1333" type="line"/>
      <point x="674" y="1333" type="line"/>
      <point x="230" y="0" type="line"/>
    </contour>
    <contour>
      <point x="274" y="335" type="line"/>
      <point x="274" y="507" type="line"/>
      <point x="1022" y="507" type="line"/>
      <point x="1022" y="335" type="line"/>
    </contour>
  </outline>
</glyph>
<glyph name="AE" format="2">
  <advance width="1847"/>
  <unicode hex="00C6"/>
  <outline>
    <contour>
      <point x="40" y="0" type="line"/>
      <point x="525" y="1440" type="line"/>
      <point x="903" y="1440" type="line"/>
      <point x="903" y="1277" type="line"/>
      <point x="580" y="1277" type="line"/>
      <point x="669" y="1339" type="line"/>
      <point x="219" y="0" type="line"/>
    </contour>
    <contour>
      <point x="270" y="339" type="line"/>
      <point x="270" y="501" type="line"/>
      <point x="964" y="501" type="line"/>
      <point x="964" y="339" type="line"/>
    </contour>
    <contour>
      <point x="839" y="0" type="line"/>
      <point x="839" y="1440" type="line"/>
      <point x="1747" y="1440" type="line"/>
      <point x="1747" y="1277" type="line"/>
      <point x="1011" y="1277" type="line"/>
      <point x="1011" y="816" type="line"/>
      <point x="1627" y="816" type="line"/>
      <point x="1627" y="653" type="line"/>
      <point x="1011" y="653" type="line"/>
      <point x="1011" y="163" type="line"/>
      <point x="1747" y="163" type="line"/>
      <point x="1747" y="0" type="line"/>
    </contour>
  </outline>
</glyph>
<glyph name="Ccedilla" format="2">
  <advance width="1448"/>
  <unicode hex="00C7"/>
  <outline>
    <contour>
      <point x="716" y="-481" type="curve" smooth="yes"/>
      <point x="665" y="-481"/>
      <point x="623" y="-467"/>
      <point x="584" y="-448" type="curve"/>
      <point x="628" y="-331" type="line"/>
      <point x="657" y="-342"/>
      <point x="682" y="-347"/>
      <point x="701" y="-347" type="curve" smooth="yes"/>
      <point x="748" y="-347"/>
      <point x="775" y="-311"/>
      <point x="775" y="-278" type="curve" smooth="yes"/>
      <point x="775" y="-249"/>
      <point x="762" y="-229"/>
      <point x="735" y="-216" type="curve" smooth="yes"/>
      <point x="708" y="-203"/>
      <point x="677" y="-191"/>
      <point x="643" y="-180" type="curve"/>
      <point x="715" y="25" type="line"/>
      <point x="838" y="26" type="line"/>
      <point x="792" y="-105" type="line"/>
      <point x="865" y="-140"/>
      <point x="913" y="-196"/>
      <point x="913" y="-283" type="curve" smooth="yes"/>
      <point x="913" y="-340"/>
      <point x="894" y="-388"/>
      <point x="855" y="-425" type="curve" smooth="yes"/>
      <point x="816" y="-462"/>
      <point x="769" y="-481"/>
    </contour>
    <contour>
      <point x="733" y="-30" type="curve" smooth="yes"/>
      <point x="590" y="-30"/>
      <point x="468" y="2"/>
      <point x="368" y="65" type="curve" smooth="yes"/>
      <point x="267" y="128"/>
      <point x="191" y="216"/>
      <point x="139" y="329" type="curve" smooth="yes"/>
      <point x="86" y="442"/>
      <point x="60" y="572"/>
      <point x="60" y="720" type="curve" smooth="yes"/>
      <point x="60" y="868"/>
      <point x="86" y="998"/>
      <point x="139" y="1111" type="curve" smooth="yes"/>
      <point x="191" y="1224"/>
      <point x="267" y="1312"/>
      <point x="368" y="1375" type="curve" smooth="yes"/>
      <point x="468" y="1438"/>
      <point x="590" y="1470"/>
      <point x="733" y="1470" type="curve" smooth="yes"/>
      <point x="900" y="1470"/>
      <point x="1037" y="1428"/>
      <point x="1145" y="1343" type="curve" smooth="yes"/>
      <point x="1252" y="1258"/>
      <point x="1327" y="1145"/>
      <point x="1368" y="1002" type="curve"/>
      <point x="1183" y="952" type="line"/>
      <point x="1154" y="1059"/>
      <point x="1102" y="1143"/>
      <point x="1027" y="1204" type="curve" smooth="yes"/>
      <point x="952" y="1265"/>
      <point x="854" y="1296"/>
      <point x="733" y="1296" type="curve" smooth="yes"/>
      <point x="627" y="1296"/>
      <point x="539" y="1272"/>
      <point x="468" y="1224" type="curve" smooth="yes"/>
      <point x="326" y="1127"/>
      <point x="254" y="948"/>
      <point x="253" y="720" type="curve" smooth="yes"/>
      <point x="252" y="606"/>
      <point x="270" y="506"/>
      <point x="306" y="420" type="curve" smooth="yes"/>
      <point x="377" y="247"/>
      <point x="521" y="144"/>
      <point x="733" y="144" type="curve" smooth="yes"/>
      <point x="854" y="144"/>
      <point x="952" y="175"/>
      <point x="1027" y="237" type="curve" smooth="yes"/>
      <point x="1102" y="298"/>
      <point x="1154" y="382"/>
      <point x="1183" y="488" type="curve"/>
      <point x="1368" y="438" type="line"/>
      <point x="1327" y="295"/>
      <point x="1252" y="182"/>
      <point x="1145" y="97" type="curve" smooth="yes"/>
      <point x="1037" y="12"/>
      <point x="900" y="-30"/>
    </contour>
  </outline>
</glyph>
<glyph name="Egrave" format="2">
  <advance width="1152"/>
  <unicode hex="00C8"/>
  <outline>
    <contour>
      <point x="597" y="1937" type="line"/>
      <point x="416" y="1937" type="line"/>
      <point x="549" y="1604" type="line"/>
      <point x="669" y="1604" type="line"/>
    </contour>
    <contour>
      <point x="140" y="0" type="line"/>
      <point x="140" y="1440" type="line"/>
      <point x="1052" y="1440" type="line"/>
      <point x="1052" y="1267" type="line"/>
      <point x="323" y="1267" type="line"/>
      <point x="323" y="823" type="line"/>
      <point x="932" y="823" type="line"/>
      <point x="932" y="650" type="line"/>
      <point x="323" y="650" type="line"/>
      <point x="323" y="173" type="line"/>
      <point x="1052" y="173" type="line"/>
      <point x="1052" y="0" type="line"/>
    </contour>
  </outline>
</glyph>
<glyph name="Eacute" format="2">
  <advance width="1148"/>
  <unicode hex="00C9"/>
  <outline>
    <contour>
      <point x="647" y="1932" type="line"/>
      <point x="818" y="1932" type="line"/>
      <point x="689" y="1606" type="line"/>
      <point x="575" y="1606" type="line"/>
    </contour>
    <contour>
      <point x="140" y="0" type="line"/>
      <point x="140" y="1440" type="line"/>
      <point x="1048" y="1440" type="line"/>
      <point x="1048" y="1277" type="line"/>
      <point x="312" y="1277" type="line"/>
      <point x="312" y="816" type="line"/>
      <point x="928" y="816" type="line"/>
      <point x="928" y="653" type="line"/>
      <point x="312" y="653" type="line"/>
      <point x="312" y="163" type="line"/>
      <point x="1048" y="163" type="line"/>
      <point x="1048" y="0" type="line"/>
    </contour>
  </outline>
</glyph>
<glyph name="Ecircumflex" format="2">
  <advance width="1152"/>
  <unicode hex="00CA"/>
  <outline>
    <contour>
      <point x="257" y="1604" type="line"/>
      <point x="503" y="1892" type="line"/>
      <point x="664" y="1892" type="line"/>
      <point x="911" y="1604" type="line"/>
      <point x="732" y="1604" type="line"/>
      <point x="584" y="1779" type="line"/>
      <point x="436" y="1604" type="line"/>
    </contour>
    <contour>
      <point x="140" y="0" type="line"/>
      <point x="140" y="1440" type="line"/>
      <point x="1052" y="1440" type="line"/>
      <point x="1052" y="1267" type="line"/>
      <point x="323" y="1267" type="line"/>
      <point x="323" y="823" type="line"/>
      <point x="932" y="823" type="line"/>
      <point x="932" y="650" type="line"/>
      <point x="323" y="650" type="line"/>
      <point x="323" y="173" type="line"/>
      <point x="1052" y="173" type="line"/>
      <point x="1052" y="0" type="line"/>
    </contour>
  </outline>
</glyph>
<glyph name="Igrave" format="2">
  <advance width="492"/>
  <unicode hex="00CC"/>
  <outline>
    <contour>
      <point x="215" y="1932" type="line"/>
      <point x="287" y="1606" type="line"/>
      <point x="172" y="1606" type="line"/>
      <point x="44" y="1932" type="line"/>
    </contour>
    <contour>
      <point x="160" y="0" type="line"/>
      <point x="160" y="1440" type="line"/>
      <point x="332" y="1440" type="line"/>
      <point x="332" y="0" type="line"/>
    </contour>
  </outline>
</glyph>
<glyph name="Iacute" format="2">
  <advance width="492"/>
  <unicode hex="00CD"/>
  <outline>
    <contour>
      <point x="277" y="1932" type="line"/>
      <point x="448" y="1932" type="line"/>
      <point x="319" y="1606" type="line"/>
      <point x="205" y="1606" type="line"/>
    </contour>
    <contour>
      <point x="160" y="0" type="line"/>
      <point x="160" y="1440" type="line"/>
      <point x="332" y="1440" type="line"/>
      <point x="332" y="0" type="line"/>
    </contour>
  </outline>
</glyph>
<glyph name="Icircumflex" format="2">
  <advance width="492"/>
  <unicode hex="00CE"/>
  <outline>
    <contour>
      <point x="-74" y="1606" type="line"/>
      <point x="167" y="1888" type="line"/>
      <point x="321" y="1888" type="line"/>
      <point x="562" y="1606" type="line"/>
      <point x="392" y="1606" type="line"/>
      <point x="244" y="1781" type="line"/>
      <point x="96" y="1606" type="line"/>
    </contour>
    <contour>
      <point x="160" y="0" type="line"/>
      <point x="160" y="1440" type="line"/>
      <point x="332" y="1440" type="line"/>
      <point x="332" y="0" type="line"/>
    </contour>
  </outline>
</glyph>
<glyph name="Idieresis" format="2">
  <advance width="503"/>
  <unicode hex="00CF"/>
  <outline>
    <contour>
      <point x="55" y="1608" type="qcurve" smooth="yes"/>
      <point x="4" y="1608"/>
      <point x="-64" y="1676"/>
      <point x="-64" y="1725" type="qcurve" smooth="yes"/>
      <point x="-64" y="1776"/>
      <point x="4" y="1843"/>
      <point x="55" y="1843" type="qcurve" smooth="yes"/>
      <point x="106" y="1843"/>
      <point x="173" y="1776"/>
      <point x="173" y="1725" type="qcurve" smooth="yes"/>
      <point x="173" y="1676"/>
      <point x="106" y="1608"/>
    </contour>
    <contour>
      <point x="447" y="1608" type="qcurve" smooth="yes"/>
      <point x="397" y="1608"/>
      <point x="329" y="1676"/>
      <point x="329" y="1725" type="qcurve" smooth="yes"/>
      <point x="329" y="1776"/>
      <point x="397" y="1843"/>
      <point x="447" y="1843" type="qcurve" smooth="yes"/>
      <point x="498" y="1843"/>
      <point x="566" y="1776"/>
      <point x="566" y="1725" type="qcurve" smooth="yes"/>
      <point x="566" y="1676"/>
      <point x="498" y="1608"/>
    </contour>
    <contour>
      <point x="160" y="0" type="line"/>
      <point x="160" y="1440" type="line"/>
      <point x="343" y="1440" type="line"/>
      <point x="343" y="0" type="line"/>
    </contour>
  </outline>
</glyph>
<glyph name="Eth" format="2">
  <advance width="1359"/>
  <unicode hex="00D0"/>
  <outline>
    <contour>
      <point x="20" y="645" type="line"/>
      <point x="20" y="796" type="line"/>
      <point x="667" y="796" type="line"/>
      <point x="667" y="645" type="line"/>
    </contour>
    <contour>
      <point x="134" y="0" type="line"/>
      <point x="134" y="1440" type="line"/>
      <point x="579" y="1440" type="line" smooth="yes"/>
      <point x="593" y="1440"/>
      <point x="618" y="1440"/>
      <point x="655" y="1439" type="curve" smooth="yes"/>
      <point x="692" y="1438"/>
      <point x="727" y="1436"/>
      <point x="760" y="1431" type="curve" smooth="yes"/>
      <point x="871" y="1416"/>
      <point x="965" y="1376"/>
      <point x="1041" y="1310" type="curve" smooth="yes"/>
      <point x="1116" y="1243"/>
      <point x="1173" y="1159"/>
      <point x="1211" y="1057" type="curve" smooth="yes"/>
      <point x="1249" y="954"/>
      <point x="1268" y="842"/>
      <point x="1268" y="720" type="curve" smooth="yes"/>
      <point x="1268" y="597"/>
      <point x="1249" y="485"/>
      <point x="1211" y="383" type="curve" smooth="yes"/>
      <point x="1173" y="280"/>
      <point x="1116" y="196"/>
      <point x="1041" y="130" type="curve" smooth="yes"/>
      <point x="965" y="64"/>
      <point x="871" y="24"/>
      <point x="760" y="9" type="curve" smooth="yes"/>
      <point x="727" y="4"/>
      <point x="692" y="2"/>
      <point x="655" y="1" type="curve" smooth="yes"/>
      <point x="618" y="0"/>
      <point x="592" y="0"/>
      <point x="579" y="0" type="curve" smooth="yes"/>
    </contour>
    <contour>
      <point x="322" y="174" type="line"/>
      <point x="579" y="174" type="line" smooth="yes"/>
      <point x="604" y="174"/>
      <point x="632" y="175"/>
      <point x="663" y="177" type="curve"/>
      <point x="694" y="178"/>
      <point x="722" y="181"/>
      <point x="745" y="185" type="curve" smooth="yes"/>
      <point x="823" y="200"/>
      <point x="886" y="233"/>
      <point x="935" y="284" type="curve" smooth="yes"/>
      <point x="1031" y="386"/>
      <point x="1074" y="544"/>
      <point x="1074" y="720" type="curve" smooth="yes"/>
      <point x="1074" y="810"/>
      <point x="1063" y="893"/>
      <point x="1040" y="969" type="curve" smooth="yes"/>
      <point x="995" y="1120"/>
      <point x="900" y="1227"/>
      <point x="745" y="1255" type="curve"/>
      <point x="722" y="1260"/>
      <point x="694" y="1263"/>
      <point x="662" y="1264" type="curve" smooth="yes"/>
      <point x="630" y="1265"/>
      <point x="602" y="1266"/>
      <point x="579" y="1266" type="curve" smooth="yes"/>
      <point x="322" y="1266" type="line"/>
    </contour>
  </outline>
</glyph>
<glyph name="Ntilde" format="2">
  <advance width="1387"/>
  <unicode hex="00D1"/>
  <outline>
    <contour>
      <point x="873" y="1609" type="curve" smooth="yes"/>
      <point x="815" y="1609"/>
      <point x="761" y="1637"/>
      <point x="710" y="1669" type="curve" smooth="yes"/>
      <point x="659" y="1700"/>
      <point x="614" y="1729"/>
      <point x="574" y="1729" type="curve" smooth="yes"/>
      <point x="549" y="1729"/>
      <point x="534" y="1719"/>
      <point x="527" y="1698" type="curve"/>
      <point x="519" y="1677"/>
      <point x="519" y="1654"/>
      <point x="527" y="1628" type="curve"/>
      <point x="410" y="1628" type="line"/>
      <point x="394" y="1693"/>
      <point x="400" y="1749"/>
      <point x="427" y="1795" type="curve" smooth="yes"/>
      <point x="454" y="1840"/>
      <point x="499" y="1862"/>
      <point x="563" y="1862" type="curve" smooth="yes"/>
      <point x="622" y="1862"/>
      <point x="677" y="1834"/>
      <point x="728" y="1802" type="curve" smooth="yes"/>
      <point x="778" y="1771"/>
      <point x="823" y="1742"/>
      <point x="863" y="1742" type="curve" smooth="yes"/>
      <point x="909" y="1742"/>
      <point x="928" y="1789"/>
      <point x="910" y="1845" type="curve"/>
      <point x="1027" y="1845" type="line"/>
      <point x="1043" y="1780"/>
      <point x="1038" y="1726"/>
      <point x="1011" y="1679" type="curve" smooth="yes"/>
      <point x="984" y="1632"/>
      <point x="938" y="1609"/>
    </contour>
    <contour>
      <point x="140" y="0" type="line"/>
      <point x="140" y="1440" type="line"/>
      <point x="314" y="1440" type="line"/>
      <point x="1073" y="304" type="line"/>
      <point x="1073" y="1440" type="line"/>
      <point x="1247" y="1440" type="line"/>
      <point x="1247" y="0" type="line"/>
      <point x="1073" y="0" type="line"/>
      <point x="314" y="1137" type="line"/>
      <point x="314" y="0" type="line"/>
    </contour>
  </outline>
</glyph>
<glyph name="Ograve" format="2">
  <advance width="1461"/>
  <unicode hex="00D2"/>
  <outline>
    <contour>
      <point x="693" y="1932" type="line"/>
      <point x="765" y="1606" type="line"/>
      <point x="651" y="1606" type="line"/>
      <point x="522" y="1932" type="line"/>
    </contour>
    <contour>
      <point x="730" y="-30" type="curve" smooth="yes"/>
      <point x="587" y="-30"/>
      <point x="465" y="2"/>
      <point x="366" y="65" type="curve" smooth="yes"/>
      <point x="266" y="129"/>
      <point x="190" y="216"/>
      <point x="138" y="329" type="curve" smooth="yes"/>
      <point x="86" y="442"/>
      <point x="60" y="572"/>
      <point x="60" y="720" type="curve" smooth="yes"/>
      <point x="60" y="868"/>
      <point x="86" y="998"/>
      <point x="138" y="1111" type="curve" smooth="yes"/>
      <point x="190" y="1224"/>
      <point x="266" y="1311"/>
      <point x="366" y="1375" type="curve" smooth="yes"/>
      <point x="465" y="1438"/>
      <point x="587" y="1470"/>
      <point x="730" y="1470" type="curve" smooth="yes"/>
      <point x="874" y="1470"/>
      <point x="996" y="1438"/>
      <point x="1096" y="1375" type="curve" smooth="yes"/>
      <point x="1195" y="1311"/>
      <point x="1271" y="1224"/>
      <point x="1323" y="1111" type="curve" smooth="yes"/>
      <point x="1375" y="998"/>
      <point x="1401" y="868"/>
      <point x="1401" y="720" type="curve" smooth="yes"/>
      <point x="1401" y="572"/>
      <point x="1375" y="442"/>
      <point x="1323" y="329" type="curve" smooth="yes"/>
      <point x="1271" y="216"/>
      <point x="1195" y="129"/>
      <point x="1096" y="65" type="curve" smooth="yes"/>
      <point x="996" y="2"/>
      <point x="874" y="-30"/>
    </contour>
    <contour>
      <point x="730" y="134" type="curve"/>
      <point x="838" y="134"/>
      <point x="929" y="158"/>
      <point x="1001" y="208" type="curve" smooth="yes"/>
      <point x="1145" y="306"/>
      <point x="1218" y="488"/>
      <point x="1218" y="720" type="curve" smooth="yes"/>
      <point x="1218" y="836"/>
      <point x="1200" y="938"/>
      <point x="1164" y="1026" type="curve" smooth="yes"/>
      <point x="1091" y="1201"/>
      <point x="947" y="1304"/>
      <point x="730" y="1306" type="curve"/>
      <point x="622" y="1306"/>
      <point x="532" y="1282"/>
      <point x="460" y="1233" type="curve" smooth="yes"/>
      <point x="316" y="1135"/>
      <point x="244" y="952"/>
      <point x="242" y="720" type="curve"/>
      <point x="242" y="604"/>
      <point x="260" y="502"/>
      <point x="296" y="415" type="curve" smooth="yes"/>
      <point x="368" y="239"/>
      <point x="513" y="136"/>
    </contour>
  </outline>
</glyph>
<glyph name="Ocircumflex" format="2">
  <advance width="1467"/>
  <unicode hex="00D4"/>
  <outline>
    <contour>
      <point x="404" y="1604" type="line"/>
      <point x="651" y="1892" type="line"/>
      <point x="812" y="1892" type="line"/>
      <point x="1058" y="1604" type="line"/>
      <point x="879" y="1604" type="line"/>
      <point x="731" y="1779" type="line"/>
      <point x="583" y="1604" type="line"/>
    </contour>
    <contour>
      <point x="733" y="-30" type="curve" smooth="yes"/>
      <point x="590" y="-30"/>
      <point x="468" y="2"/>
      <point x="368" y="65" type="curve" smooth="yes"/>
      <point x="267" y="128"/>
      <point x="191" y="216"/>
      <point x="139" y="329" type="curve" smooth="yes"/>
      <point x="86" y="442"/>
      <point x="60" y="572"/>
      <point x="60" y="720" type="curve" smooth="yes"/>
      <point x="60" y="868"/>
      <point x="86" y="998"/>
      <point x="139" y="1111" type="curve" smooth="yes"/>
      <point x="191" y="1224"/>
      <point x="267" y="1312"/>
      <point x="368" y="1375" type="curve" smooth="yes"/>
      <point x="468" y="1438"/>
      <point x="590" y="1470"/>
      <point x="733" y="1470" type="curve" smooth="yes"/>
      <point x="877" y="1470"/>
      <point x="999" y="1438"/>
      <point x="1100" y="1375" type="curve" smooth="yes"/>
      <point x="1200" y="1312"/>
      <point x="1276" y="1224"/>
      <point x="1329" y="1111" type="curve" smooth="yes"/>
      <point x="1381" y="998"/>
      <point x="1407" y="868"/>
      <point x="1407" y="720" type="curve" smooth="yes"/>
      <point x="1407" y="572"/>
      <point x="1381" y="442"/>
      <point x="1329" y="329" type="curve" smooth="yes"/>
      <point x="1276" y="216"/>
      <point x="1200" y="128"/>
      <point x="1100" y="65" type="curve" smooth="yes"/>
      <point x="999" y="2"/>
      <point x="877" y="-30"/>
    </contour>
    <contour>
      <point x="733" y="144" type="curve" smooth="yes"/>
      <point x="840" y="143"/>
      <point x="929" y="167"/>
      <point x="1000" y="216" type="curve" smooth="yes"/>
      <point x="1142" y="313"/>
      <point x="1213" y="492"/>
      <point x="1213" y="720" type="curve" smooth="yes"/>
      <point x="1213" y="834"/>
      <point x="1195" y="934"/>
      <point x="1160" y="1021" type="curve" smooth="yes"/>
      <point x="1088" y="1193"/>
      <point x="946" y="1295"/>
      <point x="733" y="1296" type="curve" smooth="yes"/>
      <point x="627" y="1297"/>
      <point x="539" y="1273"/>
      <point x="468" y="1225" type="curve" smooth="yes"/>
      <point x="327" y="1128"/>
      <point x="255" y="948"/>
      <point x="254" y="720" type="curve" smooth="yes"/>
      <point x="253" y="606"/>
      <point x="271" y="506"/>
      <point x="307" y="420" type="curve" smooth="yes"/>
      <point x="378" y="248"/>
      <point x="521" y="145"/>
    </contour>
  </outline>
</glyph>
<glyph name="Ugrave" format="2">
  <advance width="1414"/>
  <unicode hex="00D9"/>
  <outline>
    <contour>
      <point x="699" y="1932" type="line"/>
      <point x="771" y="1606" type="line"/>
      <point x="656" y="1606" type="line"/>
      <point x="528" y="1932" type="line"/>
    </contour>
    <contour>
      <point x="707" y="-30" type="curve" smooth="yes"/>
      <point x="596" y="-30"/>
      <point x="498" y="-8"/>
      <point x="413" y="39" type="curve" smooth="yes"/>
      <point x="242" y="130"/>
      <point x="140" y="300"/>
      <point x="140" y="524" type="curve" smooth="yes"/>
      <point x="140" y="1439" type="line"/>
      <point x="314" y="1440" type="line"/>
      <point x="314" y="540" type="line" smooth="yes"/>
      <point x="314" y="401"/>
      <point x="365" y="299"/>
      <point x="442" y="232" type="curve" smooth="yes"/>
      <point x="519" y="165"/>
      <point x="616" y="132"/>
      <point x="707" y="132" type="curve" smooth="yes"/>
      <point x="799" y="132"/>
      <point x="896" y="165"/>
      <point x="973" y="232" type="curve" smooth="yes"/>
      <point x="1049" y="299"/>
      <point x="1100" y="402"/>
      <point x="1100" y="540" type="curve" smooth="yes"/>
      <point x="1100" y="1440" type="line"/>
      <point x="1274" y="1440" type="line"/>
      <point x="1274" y="524" type="line" smooth="yes"/>
      <point x="1274" y="413"/>
      <point x="1249" y="315"/>
      <point x="1201" y="233" type="curve" smooth="yes"/>
      <point x="1104" y="66"/>
      <point x="929" y="-30"/>
    </contour>
  </outline>
</glyph>
<glyph name="Ucircumflex" format="2">
  <advance width="1418"/>
  <unicode hex="00DB"/>
  <outline>
    <contour>
      <point x="380" y="1604" type="line"/>
      <point x="626" y="1892" type="line"/>
      <point x="788" y="1892" type="line"/>
      <point x="1034" y="1604" type="line"/>
      <point x="855" y="1604" type="line"/>
      <point x="707" y="1779" type="line"/>
      <point x="559" y="1604" type="line"/>
    </contour>
    <contour>
      <point x="709" y="-30" type="curve" smooth="yes"/>
      <point x="598" y="-30"/>
      <point x="499" y="-7"/>
      <point x="414" y="39" type="curve" smooth="yes"/>
      <point x="242" y="131"/>
      <point x="140" y="302"/>
      <point x="140" y="526" type="curve" smooth="yes"/>
      <point x="140" y="1439" type="line"/>
      <point x="325" y="1440" type="line"/>
      <point x="325" y="540" type="line" smooth="yes"/>
      <point x="325" y="407"/>
      <point x="374" y="307"/>
      <point x="449" y="241" type="curve" smooth="yes"/>
      <point x="524" y="175"/>
      <point x="618" y="143"/>
      <point x="709" y="143" type="curve" smooth="yes"/>
      <point x="801" y="143"/>
      <point x="895" y="176"/>
      <point x="970" y="242" type="curve" smooth="yes"/>
      <point x="1045" y="308"/>
      <point x="1093" y="407"/>
      <point x="1093" y="540" type="curve" smooth="yes"/>
      <point x="1093" y="1440" type="line"/>
      <point x="1278" y="1440" type="line"/>
      <point x="1278" y="526" type="line" smooth="yes"/>
      <point x="1278" y="414"/>
      <point x="1254" y="316"/>
      <point x="1206" y="233" type="curve" smooth="yes"/>
      <point x="1109" y="66"/>
      <point x="932" y="-30"/>
    </contour>
  </outline>
</glyph>
<glyph name="Udieresis" format="2">
  <advance width="1418"/>
  <unicode hex="00DC"/>
  <outline>
    <contour>
      <point x="512" y="1608" type="qcurve" smooth="yes"/>
      <point x="462" y="1608"/>
      <point x="393" y="1676"/>
      <point x="393" y="1725" type="qcurve" smooth="yes"/>
      <point x="393" y="1776"/>
      <point x="462" y="1843"/>
      <point x="512" y="1843" type="qcurve" smooth="yes"/>
      <point x="563" y="1843"/>
      <point x="631" y="1776"/>
      <point x="631" y="1725" type="qcurve" smooth="yes"/>
      <point x="631" y="1676"/>
      <point x="563" y="1608"/>
    </contour>
    <contour>
      <point x="905" y="1608" type="qcurve" smooth="yes"/>
      <point x="854" y="1608"/>
      <point x="786" y="1676"/>
      <point x="786" y="1725" type="qcurve" smooth="yes"/>
      <point x="786" y="1776"/>
      <point x="854" y="1843"/>
      <point x="905" y="1843" type="qcurve" smooth="yes"/>
      <point x="956" y="1843"/>
      <point x="1023" y="1776"/>
      <point x="1023" y="1725" type="qcurve" smooth="yes"/>
      <point x="1023" y="1676"/>
      <point x="956" y="1608"/>
    </contour>
    <contour>
      <point x="709" y="-30" type="qcurve" smooth="yes"/>
      <point x="542" y="-30"/>
      <point x="285" y="108"/>
      <point x="140" y="358"/>
      <point x="140" y="526" type="qcurve" smooth="yes"/>
      <point x="140" y="1439" type="line"/>
      <point x="325" y="1440" type="line"/>
      <point x="325" y="540" type="line" smooth="yes"/>
      <point x="325" y="440"/>
      <point x="393" y="290"/>
      <point x="505" y="191"/>
      <point x="641" y="143"/>
      <point x="709" y="143" type="qcurve" smooth="yes"/>
      <point x="778" y="143"/>
      <point x="914" y="192"/>
      <point x="1026" y="291"/>
      <point x="1093" y="440"/>
      <point x="1093" y="540" type="qcurve" smooth="yes"/>
      <point x="1093" y="1440" type="line"/>
      <point x="1278" y="1440" type="line"/>
      <point x="1278" y="526" type="line" smooth="yes"/>
      <point x="1278" y="358"/>
      <point x="1133" y="108"/>
      <point x="876" y="-30"/>
    </contour>
  </outline>
</glyph>
<glyph name="Yacute" format="2">
  <advance width="1142"/>
  <unicode hex="00DD"/>
  <outline>
    <contour>
      <point x="584" y="1932" type="line"/>
      <point x="755" y="1932" type="line"/>
      <point x="626" y="1606" type="line"/>
      <point x="511" y="1606" type="line"/>
    </contour>
    <contour>
      <point x="485" y="0" type="line"/>
      <point x="485" y="600" type="line"/>
      <point x="0" y="1440" type="line"/>
      <point x="200" y="1440" type="line"/>
      <point x="571" y="797" type="line"/>
      <point x="942" y="1440" type="line"/>
      <point x="1142" y="1440" type="line"/>
      <point x="658" y="600" type="line"/>
      <point x="658" y="0" type="line"/>
    </contour>
  </outline>
</glyph>
<glyph name="Thorn" format="2">
  <advance width="1208"/>
  <unicode hex="00DE"/>
  <outline>
    <contour>
      <point x="140" y="0" type="line"/>
      <point x="140" y="1440" type="line"/>
      <point x="314" y="1440" type="line"/>
      <point x="314" y="1173" type="line"/>
      <point x="693" y="1173" type="line" smooth="yes"/>
      <point x="744" y="1173"/>
      <point x="794" y="1164"/>
      <point x="843" y="1146" type="curve"/>
      <point x="916" y="1122"/>
      <point x="983" y="1078"/>
      <point x="1031" y="1018" type="curve"/>
      <point x="1105" y="938"/>
      <point x="1148" y="829"/>
      <point x="1148" y="720" type="curve"/>
      <point x="1150" y="616"/>
      <point x="1109" y="513"/>
      <point x="1043" y="434" type="curve" smooth="yes"/>
      <point x="1002" y="383"/>
      <point x="952" y="343"/>
      <point x="889" y="313" type="curve" smooth="yes"/>
      <point x="827" y="284"/>
      <point x="761" y="268"/>
      <point x="693" y="268" type="curve" smooth="yes"/>
      <point x="314" y="268" type="line"/>
      <point x="314" y="0" type="line"/>
    </contour>
    <contour>
      <point x="314" y="432" type="line"/>
      <point x="692" y="432" type="line" smooth="yes"/>
      <point x="770" y="432"/>
      <point x="854" y="472"/>
      <point x="907" y="539" type="curve" smooth="yes"/>
      <point x="948" y="591"/>
      <point x="974" y="654"/>
      <point x="971" y="720" type="curve"/>
      <point x="970" y="795"/>
      <point x="943" y="868"/>
      <point x="891" y="920" type="curve"/>
      <point x="841" y="972"/>
      <point x="765" y="1008"/>
      <point x="692" y="1008" type="curve" smooth="yes"/>
      <point x="314" y="1008" type="line"/>
    </contour>
  </outline>
</glyph>
<glyph name="germandbls" format="2">
  <advance width="1225"/>
  <unicode hex="00DF"/>
  <outline>
    <contour>
      <point x="649" y="-29" type="qcurve" smooth="yes"/>
      <point x="593" y="-29"/>
      <point x="504" y="-16"/>
      <point x="465" y="0" type="qcurve"/>
      <point x="465" y="180" type="line"/>
      <point x="502" y="167"/>
      <point x="580" y="152"/>
      <point x="628" y="152" type="qcurve" smooth="yes"/>
      <point x="759" y="152"/>
      <point x="919" y="288"/>
      <point x="919" y="418" type="qcurve" smooth="yes"/>
      <point x="919" y="547"/>
      <point x="721" y="682"/>
      <point x="561" y="684" type="qcurve"/>
      <point x="561" y="848" type="line"/>
      <point x="628" y="854"/>
      <point x="734" y="908"/>
      <point x="795" y="1004"/>
      <point x="795" y="1075" type="qcurve" smooth="yes"/>
      <point x="795" y="1180"/>
      <point x="662" y="1297"/>
      <point x="561" y="1297" type="qcurve" smooth="yes"/>
      <point x="492" y="1297"/>
      <point x="377" y="1237"/>
      <point x="350" y="1170" type="qcurve" smooth="yes"/>
      <point x="337" y="1139"/>
      <point x="327" y="1057"/>
      <point x="327" y="1013" type="qcurve" smooth="yes"/>
      <point x="327" y="0" type="line"/>
      <point x="139" y="0" type="line"/>
      <point x="139" y="1062" type="line" smooth="yes"/>
      <point x="139" y="1108"/>
      <point x="150" y="1187"/>
      <point x="162" y="1220" type="qcurve" smooth="yes"/>
      <point x="191" y="1306"/>
      <point x="307" y="1417"/>
      <point x="466" y="1470"/>
      <point x="560" y="1470" type="qcurve" smooth="yes"/>
      <point x="681" y="1470"/>
      <point x="872" y="1373"/>
      <point x="982" y="1196"/>
      <point x="982" y="1077" type="qcurve" smooth="yes"/>
      <point x="982" y="982"/>
      <point x="905" y="831"/>
      <point x="829" y="791" type="qcurve"/>
      <point x="878" y="779"/>
      <point x="976" y="717"/>
      <point x="1056" y="621"/>
      <point x="1105" y="494"/>
      <point x="1105" y="416" type="qcurve" smooth="yes"/>
      <point x="1105" y="212"/>
      <point x="871" y="-29"/>
    </contour>
  </outline>
</glyph>
<glyph name="agrave" format="2">
  <advance width="1127"/>
  <unicode hex="00E0"/>
  <outline>
    <component base="a"/>
    <contour>
      <point x="552" y="1577" type="line"/>
      <point x="625" y="1244" type="line"/>
      <point x="504" y="1244" type="line"/>
      <point x="372" y="1577" type="line"/>
    </contour>
  </outline>
</glyph>
<glyph name="aacute" format="2">
  <advance width="1127"/>
  <unicode hex="00E1"/>
  <outline>
    <component base="a"/>
    <contour>
      <point x="604" y="1577" type="line"/>
      <point x="785" y="1577" type="line"/>
      <point x="652" y="1244" type="line"/>
      <point x="531" y="1244" type="line"/>
    </contour>
  </outline>
</glyph>
<glyph name="acircumflex" format="2">
  <advance width="1127"/>
  <unicode hex="00E2"/>
  <outline>
    <component base="a"/>
    <contour>
      <point x="251" y="1244" type="line"/>
      <point x="497" y="1532" type="line"/>
      <point x="659" y="1532" type="line"/>
      <point x="905" y="1244" type="line"/>
      <point x="726" y="1244" type="line"/>
      <point x="578" y="1419" type="line"/>
      <point x="430" y="1244" type="line"/>
    </contour>
  </outline>
</glyph>
<glyph name="atilde" format="2">
  <advance width="1127"/>
  <unicode hex="00E3"/>
  <outline>
    <contour>
      <point x="748" y="1247" type="qcurve" smooth="yes"/>
      <point x="704" y="1247"/>
      <point x="622" y="1285"/>
      <point x="545" y="1333"/>
      <point x="477" y="1371"/>
      <point x="447" y="1371" type="qcurve" smooth="yes"/>
      <point x="411" y="1371"/>
      <point x="389" y="1308"/>
      <point x="401" y="1268" type="qcurve"/>
      <point x="278" y="1268" type="line"/>
      <point x="253" y="1369"/>
      <point x="336" y="1511"/>
      <point x="435" y="1511" type="qcurve" smooth="yes"/>
      <point x="479" y="1511"/>
      <point x="562" y="1473"/>
      <point x="639" y="1425"/>
      <point x="707" y="1387"/>
      <point x="736" y="1387" type="qcurve" smooth="yes"/>
      <point x="770" y="1387"/>
      <point x="796" y="1449"/>
      <point x="783" y="1492" type="qcurve"/>
      <point x="906" y="1492" type="line"/>
      <point x="931" y="1392"/>
      <point x="849" y="1247"/>
    </contour>
    <contour>
      <point x="447" y="-30" type="qcurve" smooth="yes"/>
      <point x="326" y="-30"/>
      <point x="163" y="59"/>
      <point x="80" y="205"/>
      <point x="80" y="292" type="qcurve" smooth="yes"/>
      <point x="80" y="377"/>
      <point x="144" y="501"/>
      <point x="261" y="585"/>
      <point x="344" y="610" type="qcurve"/>
      <point x="420" y="630"/>
      <point x="609" y="662"/>
      <point x="806" y="688"/>
      <point x="893" y="701" type="qcurve"/>
      <point x="827" y="663" type="line"/>
      <point x="830" y="804"/>
      <point x="711" y="940"/>
      <point x="565" y="940" type="qcurve" smooth="yes"/>
      <point x="469" y="940"/>
      <point x="322" y="852"/>
      <point x="293" y="754" type="qcurve"/>
      <point x="120" y="806" type="line"/>
      <point x="159" y="948"/>
      <point x="383" y="1110"/>
      <point x="567" y="1110" type="qcurve" smooth="yes"/>
      <point x="713" y="1110"/>
      <point x="925" y="1006"/>
      <point x="972" y="900" type="qcurve" smooth="yes"/>
      <point x="995" y="849"/>
      <point x="1007" y="732"/>
      <point x="1007" y="668" type="qcurve" smooth="yes"/>
      <point x="1007" y="0" type="line"/>
      <point x="845" y="0" type="line"/>
      <point x="845" y="257" type="line"/>
      <point x="882" y="232" type="line"/>
      <point x="820" y="102"/>
      <point x="602" y="-30"/>
    </contour>
    <contour>
      <point x="475" y="122" type="qcurve" smooth="yes"/>
      <point x="570" y="122"/>
      <point x="709" y="190"/>
      <point x="794" y="301"/>
      <point x="807" y="366" type="qcurve"/>
      <point x="822" y="416"/>
      <point x="825" y="538"/>
      <point x="825" y="572" type="qcurve"/>
      <point x="888" y="545" type="line"/>
      <point x="800" y="532"/>
      <point x="632" y="510"/>
      <point x="485" y="485"/>
      <point x="427" y="469" type="qcurve"/>
      <point x="382" y="455"/>
      <point x="307" y="410"/>
      <point x="262" y="343"/>
      <point x="262" y="293" type="qcurve" smooth="yes"/>
      <point x="262" y="249"/>
      <point x="306" y="171"/>
      <point x="400" y="122"/>
    </contour>
  </outline>
</glyph>
<glyph name="aring" format="2">
  <advance width="1127"/>
  <unicode hex="00E5"/>
  <outline>
    <component base="a"/>
    <contour>
      <point x="578" y="1195" type="curve" smooth="yes"/>
      <point x="535" y="1195"/>
      <point x="495" y="1206"/>
      <point x="460" y="1227" type="curve" smooth="yes"/>
      <point x="389" y="1269"/>
      <point x="344" y="1342"/>
      <point x="344" y="1429" type="curve" smooth="yes"/>
      <point x="344" y="1472"/>
      <point x="355" y="1511"/>
      <point x="376" y="1546" type="curve" smooth="yes"/>
      <point x="418" y="1617"/>
      <point x="491" y="1663"/>
      <point x="578" y="1663" type="curve" smooth="yes"/>
      <point x="621" y="1663"/>
      <point x="661" y="1652"/>
      <point x="696" y="1631" type="curve" smooth="yes"/>
      <point x="766" y="1588"/>
      <point x="811" y="1514"/>
      <point x="811" y="1429" type="curve" smooth="yes"/>
      <point x="811" y="1386"/>
      <point x="801" y="1346"/>
      <point x="780" y="1311" type="curve" smooth="yes"/>
      <point x="738" y="1240"/>
      <point x="665" y="1195"/>
    </contour>
    <contour>
      <point x="578" y="1319" type="curve" smooth="yes"/>
      <point x="609" y="1319"/>
      <point x="635" y="1330"/>
      <point x="656" y="1352" type="curve" smooth="yes"/>
      <point x="677" y="1373"/>
      <point x="688" y="1399"/>
      <point x="688" y="1429" type="curve" smooth="yes"/>
      <point x="688" y="1460"/>
      <point x="677" y="1486"/>
      <point x="656" y="1507" type="curve" smooth="yes"/>
      <point x="635" y="1528"/>
      <point x="609" y="1539"/>
      <point x="578" y="1539" type="curve" smooth="yes"/>
      <point x="548" y="1539"/>
      <point x="522" y="1528"/>
      <point x="501" y="1507" type="curve" smooth="yes"/>
      <point x="479" y="1486"/>
      <point x="468" y="1460"/>
      <point x="468" y="1429" type="curve" smooth="yes"/>
      <point x="468" y="1399"/>
      <point x="479" y="1373"/>
      <point x="501" y="1352" type="curve"/>
      <point x="522" y="1330"/>
      <point x="548" y="1319"/>
    </contour>
  </outline>
</glyph>
<glyph name="ae" format="2">
  <advance width="1879"/>
  <unicode hex="00E6"/>
  <outline>
    <contour>
      <point x="1334" y="-30" type="qcurve" smooth="yes"/>
      <point x="1178" y="-30"/>
      <point x="953" y="115"/>
      <point x="833" y="370"/>
      <point x="833" y="534" type="qcurve" smooth="yes"/>
      <point x="833" y="706"/>
      <point x="952" y="965"/>
      <point x="1174" y="1110"/>
      <point x="1328" y="1110" type="qcurve" smooth="yes"/>
      <point x="1489" y="1110"/>
      <point x="1703" y="952"/>
      <point x="1805" y="672"/>
      <point x="1797" y="489" type="qcurve"/>
      <point x="1622" y="489" type="line"/>
      <point x="1622" y="555" type="line"/>
      <point x="1620" y="737"/>
      <point x="1487" y="946"/>
      <point x="1326" y="946" type="qcurve" smooth="yes"/>
      <point x="1217" y="946"/>
      <point x="1079" y="842"/>
      <point x="1016" y="659"/>
      <point x="1016" y="540" type="qcurve" smooth="yes"/>
      <point x="1016" y="360"/>
      <point x="1172" y="143"/>
      <point x="1326" y="143" type="qcurve" smooth="yes"/>
      <point x="1421" y="143"/>
      <point x="1571" y="237"/>
      <point x="1613" y="331" type="qcurve"/>
      <point x="1780" y="271" type="line"/>
      <point x="1741" y="175"/>
      <point x="1605" y="40"/>
      <point x="1431" y="-30"/>
    </contour>
    <contour>
      <point x="475" y="121" type="qcurve" smooth="yes"/>
      <point x="581" y="121"/>
      <point x="748" y="220"/>
      <point x="784" y="291" type="qcurve" smooth="yes"/>
      <point x="805" y="333"/>
      <point x="824" y="430"/>
      <point x="827" y="518"/>
      <point x="826" y="545" type="qcurve"/>
      <point x="880" y="508" type="line"/>
      <point x="594" y="494" type="line" smooth="yes"/>
      <point x="551" y="492"/>
      <point x="438" y="478"/>
      <point x="332" y="439"/>
      <point x="262" y="361"/>
      <point x="262" y="295" type="qcurve" smooth="yes"/>
      <point x="262" y="214"/>
      <point x="376" y="121"/>
    </contour>
    <contour>
      <point x="458" y="-30" type="qcurve" smooth="yes"/>
      <point x="278" y="-30"/>
      <point x="80" y="147"/>
      <point x="80" y="291" type="qcurve" smooth="yes"/>
      <point x="80" y="380"/>
      <point x="149" y="498"/>
      <point x="261" y="570"/>
      <point x="391" y="607"/>
      <point x="517" y="623"/>
      <point x="564" y="626" type="qcurve"/>
      <point x="859" y="643" type="line"/>
      <point x="824" y="610" type="line"/>
      <point x="833" y="723"/>
      <point x="778" y="869"/>
      <point x="657" y="940"/>
      <point x="568" y="940" type="qcurve" smooth="yes"/>
      <point x="473" y="940"/>
      <point x="320" y="857"/>
      <point x="290" y="760" type="qcurve"/>
      <point x="120" y="813" type="line"/>
      <point x="149" y="903"/>
      <point x="276" y="1036"/>
      <point x="459" y="1110"/>
      <point x="571" y="1110" type="qcurve" smooth="yes"/>
      <point x="741" y="1110"/>
      <point x="949" y="966"/>
      <point x="986" y="837" type="qcurve" smooth="yes"/>
      <point x="1001" y="788"/>
      <point x="1007" y="694"/>
      <point x="1007" y="659" type="qcurve"/>
      <point x="922" y="254" type="line"/>
      <point x="876" y="148"/>
      <point x="732" y="23"/>
      <point x="554" y="-30"/>
    </contour>
    <contour>
      <point x="957" y="489" type="line"/>
      <point x="957" y="639" type="line"/>
      <point x="1708" y="639" type="line"/>
      <point x="1708" y="489" type="line"/>
    </contour>
  </outline>
</glyph>
<glyph name="ccedilla" format="2">
  <advance width="1119"/>
  <unicode hex="00E7"/>
  <outline>
    <contour>
      <point x="549" y="-481" type="curve" smooth="yes"/>
      <point x="499" y="-481"/>
      <point x="456" y="-466"/>
      <point x="418" y="-448" type="curve"/>
      <point x="460" y="-336" type="line"/>
      <point x="490" y="-347"/>
      <point x="515" y="-352"/>
      <point x="534" y="-352" type="curve" smooth="yes"/>
      <point x="583" y="-352"/>
      <point x="611" y="-316"/>
      <point x="611" y="-281" type="curve" smooth="yes"/>
      <point x="611" y="-251"/>
      <point x="597" y="-230"/>
      <point x="570" y="-217" type="curve" smooth="yes"/>
      <point x="543" y="-204"/>
      <point x="512" y="-192"/>
      <point x="478" y="-182" type="curve"/>
      <point x="552" y="23" type="line"/>
      <point x="670" y="24" type="line"/>
      <point x="622" y="-109" type="line"/>
      <point x="696" y="-143"/>
      <point x="743" y="-198"/>
      <point x="743" y="-285" type="curve" smooth="yes"/>
      <point x="743" y="-342"/>
      <point x="724" y="-389"/>
      <point x="686" y="-426" type="curve"/>
      <point x="647" y="-462"/>
      <point x="601" y="-481"/>
    </contour>
    <contour>
      <point x="594" y="-30" type="curve" smooth="yes"/>
      <point x="484" y="-30"/>
      <point x="391" y="-6"/>
      <point x="315" y="43" type="curve" smooth="yes"/>
      <point x="163" y="141"/>
      <point x="82" y="319"/>
      <point x="80" y="540" type="curve"/>
      <point x="81" y="652"/>
      <point x="102" y="752"/>
      <point x="143" y="837" type="curve" smooth="yes"/>
      <point x="224" y="1009"/>
      <point x="379" y="1110"/>
      <point x="595" y="1110" type="curve" smooth="yes"/>
      <point x="708" y="1110"/>
      <point x="805" y="1082"/>
      <point x="888" y="1027" type="curve" smooth="yes"/>
      <point x="970" y="971"/>
      <point x="1025" y="895"/>
      <point x="1054" y="799" type="curve"/>
      <point x="884" y="747" type="line"/>
      <point x="861" y="810"/>
      <point x="823" y="860"/>
      <point x="772" y="894" type="curve" smooth="yes"/>
      <point x="720" y="929"/>
      <point x="660" y="947"/>
      <point x="594" y="947" type="curve" smooth="yes"/>
      <point x="518" y="947"/>
      <point x="457" y="929"/>
      <point x="408" y="895" type="curve" smooth="yes"/>
      <point x="310" y="825"/>
      <point x="264" y="698"/>
      <point x="262" y="540" type="curve"/>
      <point x="263" y="418"/>
      <point x="292" y="320"/>
      <point x="347" y="245" type="curve" smooth="yes"/>
      <point x="402" y="170"/>
      <point x="484" y="133"/>
      <point x="594" y="133" type="curve" smooth="yes"/>
      <point x="736" y="133"/>
      <point x="831" y="200"/>
      <point x="880" y="324" type="curve"/>
      <point x="1054" y="278" type="line"/>
      <point x="1015" y="178"/>
      <point x="957" y="102"/>
      <point x="878" y="49" type="curve" smooth="yes"/>
      <point x="800" y="-4"/>
      <point x="704" y="-30"/>
    </contour>
  </outline>
</glyph>
<glyph name="egrave" format="2">
  <advance width="1183"/>
  <unicode hex="00E8"/>
  <outline>
    <contour>
      <point x="585" y="1577" type="line"/>
      <point x="657" y="1244" type="line"/>
      <point x="537" y="1244" type="line"/>
      <point x="404" y="1577" type="line"/>
    </contour>
    <contour>
      <point x="610" y="-30" type="curve" smooth="yes"/>
      <point x="503" y="-30"/>
      <point x="410" y="-7"/>
      <point x="331" y="41" type="curve" smooth="yes"/>
      <point x="252" y="88"/>
      <point x="190" y="153"/>
      <point x="146" y="238" type="curve" smooth="yes"/>
      <point x="102" y="322"/>
      <point x="80" y="420"/>
      <point x="80" y="533" type="curve" smooth="yes"/>
      <point x="80" y="651"/>
      <point x="102" y="753"/>
      <point x="145" y="840" type="curve" smooth="yes"/>
      <point x="232" y="1012"/>
      <point x="392" y="1110"/>
      <point x="601" y="1110" type="curve" smooth="yes"/>
      <point x="710" y="1110"/>
      <point x="802" y="1085"/>
      <point x="879" y="1035" type="curve" smooth="yes"/>
      <point x="1032" y="934"/>
      <point x="1112" y="745"/>
      <point x="1100" y="489" type="curve"/>
      <point x="916" y="489" type="line"/>
      <point x="916" y="555" type="line"/>
      <point x="914" y="686"/>
      <point x="888" y="784"/>
      <point x="837" y="849" type="curve" smooth="yes"/>
      <point x="786" y="914"/>
      <point x="709" y="946"/>
      <point x="608" y="946" type="curve" smooth="yes"/>
      <point x="499" y="946"/>
      <point x="416" y="911"/>
      <point x="359" y="841" type="curve" smooth="yes"/>
      <point x="302" y="771"/>
      <point x="274" y="671"/>
      <point x="274" y="540" type="curve" smooth="yes"/>
      <point x="274" y="414"/>
      <point x="302" y="316"/>
      <point x="359" y="247" type="curve" smooth="yes"/>
      <point x="416" y="178"/>
      <point x="496" y="143"/>
      <point x="601" y="143" type="curve" smooth="yes"/>
      <point x="742" y="143"/>
      <point x="848" y="210"/>
      <point x="907" y="331" type="curve"/>
      <point x="1083" y="271" type="line"/>
      <point x="1041" y="175"/>
      <point x="978" y="101"/>
      <point x="894" y="49" type="curve" smooth="yes"/>
      <point x="809" y="-4"/>
      <point x="715" y="-30"/>
    </contour>
    <contour>
      <point x="213" y="489" type="line"/>
      <point x="213" y="635" type="line"/>
      <point x="1007" y="635" type="line"/>
      <point x="1007" y="489" type="line"/>
    </contour>
  </outline>
</glyph>
